<?xml version="1.0" encoding="utf-8"?>
<!-- Generator: Adobe Illustrator 22.0.1, SVG Export Plug-In . SVG Version: 6.00 Build 0)  -->
<svg version="1.1" id="Layer_1" xmlns="http://www.w3.org/2000/svg" xmlns:xlink="http://www.w3.org/1999/xlink" x="0px" y="0px"
	 viewBox="0 0 714.5 227" style="enable-background:new 0 0 714.5 227;" xml:space="preserve">
<style type="text/css">
	.st0{fill:none;stroke:#E30613;stroke-width:5.0534;stroke-miterlimit:10;}
	.st1{fill:#FFFFFF;}
	.st2{fill:none;}
</style>
<g>
	<rect x="2.5" y="2.5" class="st0" width="709.4" height="222"/>
	<g>
		<polygon class="st1" points="411.3,177 411.3,117.9 443.8,117.9 443.8,116.3 409.5,116.3 409.5,178.6 444.2,178.6 444.2,177 		"/>
		<rect x="422.8" y="146.4" class="st1" width="18.7" height="1.6"/>
	</g>
	<g>
		<polygon class="st1" points="622,177 622,117.9 654.5,117.9 654.5,116.3 620.2,116.3 620.2,178.6 654.9,178.6 654.9,177 		"/>
		<rect x="633.5" y="146.4" class="st1" width="18.7" height="1.6"/>
	</g>
	<path class="st2" d="M509.1,134.1c0-8.9-7.2-16.2-16-16.2h-22.2v32.4h22.2C501.9,150.3,509.1,143,509.1,134.1z"/>
	<path class="st1" d="M87.9,177.9c-17.6,0-30.2-13.6-30.2-30.4s12.6-30.4,30.2-30.4c10.5,0,19.8,5.4,24.6,13.6l1.5-0.9
		c-5.2-8.6-15-14.3-26.1-14.3c-18.6,0-32,14.3-32,32c0,17.7,13.4,32,32,32c11.5,0,21.5-6,26.6-14.9l-1.6-0.9
		C108.2,172.2,98.7,177.9,87.9,177.9z"/>
	<path class="st1" d="M197.6,147.5c0,16.8-13.5,30.4-30.2,30.4s-30.2-13.6-30.2-30.4s13.5-30.4,30.2-30.4v-1.6
		c-17.7,0-32,14.3-32,32c0,17.7,14.3,32,32,32s32-14.3,32-32H197.6z"/>
	<path class="st1" d="M327.4,177.9c-17.6,0-30.2-13.6-30.2-30.4s12.6-30.4,30.2-30.4c10.5,0,19.8,5.4,24.6,13.6l1.5-0.9
		c-5.2-8.6-15-14.3-26.1-14.3c-18.6,0-32,14.3-32,32c0,17.7,13.4,32,32,32c11.5,0,21.5-6,26.6-14.9l-1.6-0.9
		C347.7,172.2,338.2,177.9,327.4,177.9z"/>
	<rect x="378.4" y="116.3" class="st1" width="1.8" height="62.2"/>
	<path class="st1" d="M496.7,151.5c8.1-1.7,14.2-8.9,14.2-17.4c0-9.8-8-17.8-17.8-17.8h-24v62.2h1.8v-26.7h22.2c0.6,0,0.9,0,1.8-0.1
		C494.9,151.8,495.9,151.7,496.7,151.5z M493.1,150.3h-22.2v-32.4h22.2c8.8,0,16,7.3,16,16.2C509.1,143,501.9,150.3,493.1,150.3z"/>
	<polygon class="st1" points="510.7,178.6 512.7,178.6 500.7,158.4 498.7,158.4 	"/>
	<path class="st1" d="M563.2,152.3h29.5c-0.4,14-11.2,25.5-27.7,25.5c-18.5,0-31.1-13.6-31.1-30.4s12.6-30.4,30.2-30.4
		c10.7,0,20.1,5.5,24.8,14l1.5-0.9c-5.1-8.8-15-14.7-26.3-14.7c-18.6,0-32,14.3-32,32c0,17.7,13.4,32,32.9,32
		c17.7,0,29.3-12.5,29.3-27.8v-0.9h-31.2V152.3z"/>
	<g>
		<g>
			<path class="st1" d="M254.1,69.5h-2.8V52.9l-6.9,11.5H244L237.1,53v16.5h-2.8V48.3h3.2l6.8,11.2l6.7-11.2h3.2V69.5z"/>
			<path class="st1" d="M270.1,58.9c0-6.1,4.8-11,11-11c6.2,0,11,4.9,11,11c0,6.1-4.8,11-11,11C274.9,69.9,270.1,65,270.1,58.9z
				 M289.3,58.9c0-4.7-3.5-8.3-8.2-8.3c-4.6,0-8.2,3.6-8.2,8.3c0,4.6,3.5,8.2,8.2,8.2C285.7,67.1,289.3,63.5,289.3,58.9z"/>
			<path class="st1" d="M315.8,61.4h-5v8.1H308V48.3h8.5c3.6,0,6.6,2.9,6.6,6.6c0,2.8-1.8,5.2-4.4,6.2l5,8.5h-3.1L315.8,61.4z
				 M310.8,58.8h5.7c2.1,0,3.8-1.8,3.8-4c0-2.2-1.7-3.9-3.8-3.9h-5.7V58.8z"/>
			<path class="st1" d="M352.3,51H346v18.5h-2.8V51H337v-2.7h15.3V51z"/>
			<path class="st1" d="M386.8,60.3c0,5.4-4,9.6-10.4,9.6c-6.5,0-11.2-4.9-11.2-11c0-6.1,4.7-11,11.1-11c4,0,7.4,2.1,9.2,5.1
				l-2.4,1.4c-1.2-2.3-3.8-3.8-6.8-3.8c-4.9,0-8.3,3.6-8.3,8.3c0,4.6,3.4,8.2,8.4,8.2c4.4,0,7-2.4,7.5-5.6h-7.8V59h10.6V60.3z"/>
			<path class="st1" d="M414.1,64.7h-9.5l-1.7,4.8h-3l7.9-21.2h3.2l7.9,21.2h-3L414.1,64.7z M413.1,62.1l-3.8-10.5l-3.8,10.5H413.1z
				"/>
			<path class="st1" d="M453.3,60.3c0,5.4-4,9.6-10.4,9.6c-6.5,0-11.2-4.9-11.2-11c0-6.1,4.7-11,11.1-11c4,0,7.4,2.1,9.2,5.1
				l-2.4,1.4c-1.2-2.3-3.8-3.8-6.8-3.8c-4.9,0-8.3,3.6-8.3,8.3c0,4.6,3.4,8.2,8.4,8.2c4.4,0,7-2.4,7.5-5.6h-7.8V59h10.6V60.3z"/>
			<path class="st1" d="M481.8,66.8v2.7h-12.7V48.3h12.5V51h-9.7v6.5h8.9v2.6h-8.9v6.7H481.8z"/>
		</g>
		<g>
			<path class="st1" d="M254.1,69.5h-2.8V52.9l-6.9,11.5H244L237.1,53v16.5h-2.8V48.3h3.2l6.8,11.2l6.7-11.2h3.2V69.5z"/>
			<path class="st1" d="M270.1,58.9c0-6.1,4.8-11,11-11c6.2,0,11,4.9,11,11c0,6.1-4.8,11-11,11C274.9,69.9,270.1,65,270.1,58.9z
				 M289.3,58.9c0-4.7-3.5-8.3-8.2-8.3c-4.6,0-8.2,3.6-8.2,8.3c0,4.6,3.5,8.2,8.2,8.2C285.7,67.1,289.3,63.5,289.3,58.9z"/>
			<path class="st1" d="M315.8,61.4h-5v8.1H308V48.3h8.5c3.6,0,6.6,2.9,6.6,6.6c0,2.8-1.8,5.2-4.4,6.2l5,8.5h-3.1L315.8,61.4z
				 M310.8,58.8h5.7c2.1,0,3.8-1.8,3.8-4c0-2.2-1.7-3.9-3.8-3.9h-5.7V58.8z"/>
			<path class="st1" d="M352.3,51H346v18.5h-2.8V51H337v-2.7h15.3V51z"/>
			<path class="st1" d="M386.8,60.3c0,5.4-4,9.6-10.4,9.6c-6.5,0-11.2-4.9-11.2-11c0-6.1,4.7-11,11.1-11c4,0,7.4,2.1,9.2,5.1
				l-2.4,1.4c-1.2-2.3-3.8-3.8-6.8-3.8c-4.9,0-8.3,3.6-8.3,8.3c0,4.6,3.4,8.2,8.4,8.2c4.4,0,7-2.4,7.5-5.6h-7.8V59h10.6V60.3z"/>
			<path class="st1" d="M414.1,64.7h-9.5l-1.7,4.8h-3l7.9-21.2h3.2l7.9,21.2h-3L414.1,64.7z M413.1,62.1l-3.8-10.5l-3.8,10.5H413.1z
				"/>
			<path class="st1" d="M453.3,60.3c0,5.4-4,9.6-10.4,9.6c-6.5,0-11.2-4.9-11.2-11c0-6.1,4.7-11,11.1-11c4,0,7.4,2.1,9.2,5.1
				l-2.4,1.4c-1.2-2.3-3.8-3.8-6.8-3.8c-4.9,0-8.3,3.6-8.3,8.3c0,4.6,3.4,8.2,8.4,8.2c4.4,0,7-2.4,7.5-5.6h-7.8V59h10.6V60.3z"/>
			<path class="st1" d="M481.8,66.8v2.7h-12.7V48.3h12.5V51h-9.7v6.5h8.9v2.6h-8.9v6.7H481.8z"/>
		</g>
	</g>
	<g>
		<g>
			<g>
				<path class="st1" d="M560.2,60.1h-42.1v-2.7h42.1V60.1z"/>
			</g>
		</g>
		<g>
			<g>
				<path class="st1" d="M196.4,60.1h-42.1v-2.7h42.1V60.1z"/>
			</g>
		</g>
	</g>
	<g>
		<polygon class="st1" points="225.1,178.6 226.9,178.6 226.9,137.3 225.1,134.7 		"/>
		<polygon class="st1" points="267.8,116.3 267.8,175.6 226.9,116.3 225.1,116.3 225.1,116.8 267.8,178.6 269.6,178.6 269.6,116.3 
					"/>
	</g>
</g>
</svg>
