<?xml version="1.0" encoding="utf-8"?>
<!-- Generator: Adobe Illustrator 22.0.1, SVG Export Plug-In . SVG Version: 6.00 Build 0)  -->
<svg version="1.1" id="Layer_1" xmlns="http://www.w3.org/2000/svg" xmlns:xlink="http://www.w3.org/1999/xlink" x="0px" y="0px"
	 viewBox="0 0 75.3 14.9" style="enable-background:new 0 0 75.3 14.9;" xml:space="preserve">
<style type="text/css">
	.st0{fill:#E30613;}
	.st1{fill:#FFFFFF;}
</style>
<g>
	<path class="st0" d="M14,14.6h-2.8V5.3l-4,6.7H6.9l-4-6.6v9.3H0V0.3h2.9L7,7.1l4.1-6.8H14V14.6z"/>
	<path class="st0" d="M17.1,7.4c0-4.2,3.3-7.4,7.4-7.4S32,3.3,32,7.4c0,4.2-3.3,7.4-7.4,7.4S17.1,11.6,17.1,7.4z M29.2,7.4
		c0-2.8-2-4.7-4.6-4.7s-4.6,1.9-4.6,4.7c0,2.7,2,4.7,4.6,4.7S29.2,10.2,29.2,7.4z"/>
	<path class="st0" d="M40,9.6h-2.1v5H35V0.3h5.7c2.6,0,4.8,2.1,4.8,4.7c0,1.8-1.1,3.4-2.8,4.2l3.2,5.4h-3L40,9.6z M37.9,7.2h2.9
		c1.1,0,1.9-0.9,1.9-2.1s-0.9-2.1-1.9-2.1h-2.9V7.2z"/>
	<path class="st0" d="M57.6,11.9v2.7h-8.9V0.3h8.8V3h-5.9v3H57v2.7h-5.4v3.2H57.6z"/>
	<path class="st1" d="M75.3,6.3v2.4l-9,3.9V9.8l6-2.3l-6-2.3V2.4L75.3,6.3z"/>
</g>
</svg>
