<?xml version="1.0" encoding="utf-8"?>
<!-- Generator: Adobe Illustrator 22.0.1, SVG Export Plug-In . SVG Version: 6.00 Build 0)  -->
<svg version="1.1" xmlns="http://www.w3.org/2000/svg" xmlns:xlink="http://www.w3.org/1999/xlink" x="0px" y="0px"
	 viewBox="0 0 181.1 298" style="enable-background:new 0 0 181.1 298;" xml:space="preserve">
<style type="text/css">
	.st0{fill:#FFFFFF;}
	.st1{fill:#CD1A1A;}
</style>
<g id="Layer_1">
</g>
<g id="ARTWORK">
	<g>
		<g>
			<path class="st0" d="M75.1,1.9h-2.8V0.2h7.5v1.7h-2.8v6.9h-2V1.9z"/>
			<path class="st0" d="M85.2,9c-0.6,0-1.2-0.1-1.8-0.3c-0.5-0.2-1-0.5-1.4-1c-0.4-0.4-0.7-0.9-0.9-1.4c-0.2-0.6-0.3-1.1-0.3-1.8
				c0-0.6,0.1-1.2,0.3-1.8c0.2-0.5,0.5-1,0.9-1.4c0.4-0.4,0.9-0.7,1.4-1C84,0.1,84.5,0,85.2,0c0.6,0,1.2,0.1,1.8,0.3
				c0.5,0.2,1,0.5,1.4,1c0.4,0.4,0.7,0.9,0.9,1.4c0.2,0.5,0.3,1.1,0.3,1.8c0,0.6-0.1,1.2-0.3,1.8c-0.2,0.6-0.5,1-0.9,1.4
				c-0.4,0.4-0.9,0.7-1.4,1C86.4,8.9,85.8,9,85.2,9z M85.2,7.2c0.4,0,0.7-0.1,1-0.2c0.3-0.1,0.6-0.3,0.8-0.6
				c0.2-0.2,0.4-0.5,0.5-0.9c0.1-0.3,0.2-0.7,0.2-1c0-0.4-0.1-0.7-0.2-1c-0.1-0.3-0.3-0.6-0.5-0.9c-0.2-0.2-0.5-0.4-0.8-0.6
				c-0.3-0.1-0.6-0.2-1-0.2c-0.4,0-0.7,0.1-1,0.2c-0.3,0.1-0.6,0.3-0.8,0.6c-0.2,0.2-0.4,0.5-0.5,0.9c-0.1,0.3-0.2,0.7-0.2,1
				c0,0.4,0.1,0.7,0.2,1c0.1,0.3,0.3,0.6,0.5,0.9c0.2,0.2,0.5,0.4,0.8,0.6C84.5,7.1,84.8,7.2,85.2,7.2z"/>
			<path class="st0" d="M100.2,1.9h-2.8V0.2h7.5v1.7h-2.8v6.9h-2V1.9z"/>
			<path class="st0" d="M106.7,0.2h1.9v3.3h3.7V0.2h1.9v8.6h-1.9V5.3h-3.7v3.5h-1.9V0.2z"/>
			<path class="st0" d="M120.8,9c-0.6,0-1.2-0.1-1.8-0.3c-0.5-0.2-1-0.5-1.4-1c-0.4-0.4-0.7-0.9-0.9-1.4c-0.2-0.6-0.3-1.1-0.3-1.8
				c0-0.6,0.1-1.2,0.3-1.8c0.2-0.5,0.5-1,0.9-1.4c0.4-0.4,0.9-0.7,1.4-1c0.5-0.2,1.1-0.3,1.8-0.3s1.2,0.1,1.8,0.3
				c0.5,0.2,1,0.5,1.4,1c0.4,0.4,0.7,0.9,0.9,1.4c0.2,0.5,0.3,1.1,0.3,1.8c0,0.6-0.1,1.2-0.3,1.8c-0.2,0.6-0.5,1-0.9,1.4
				c-0.4,0.4-0.9,0.7-1.4,1C122,8.9,121.4,9,120.8,9z M120.8,7.2c0.4,0,0.7-0.1,1-0.2c0.3-0.1,0.6-0.3,0.8-0.6
				c0.2-0.2,0.4-0.5,0.5-0.9c0.1-0.3,0.2-0.7,0.2-1c0-0.4-0.1-0.7-0.2-1c-0.1-0.3-0.3-0.6-0.5-0.9c-0.2-0.2-0.5-0.4-0.8-0.6
				c-0.3-0.1-0.6-0.2-1-0.2s-0.7,0.1-1,0.2c-0.3,0.1-0.6,0.3-0.8,0.6c-0.2,0.2-0.4,0.5-0.5,0.9c-0.1,0.3-0.2,0.7-0.2,1
				c0,0.4,0.1,0.7,0.2,1c0.1,0.3,0.3,0.6,0.5,0.9c0.2,0.2,0.5,0.4,0.8,0.6C120.1,7.1,120.4,7.2,120.8,7.2z"/>
			<path class="st0" d="M127.8,6.3c0.1,0.1,0.2,0.2,0.4,0.4c0.2,0.1,0.3,0.2,0.5,0.3c0.2,0.1,0.4,0.2,0.6,0.3
				c0.2,0.1,0.5,0.1,0.7,0.1c0.1,0,0.3,0,0.4-0.1c0.1,0,0.3-0.1,0.4-0.2c0.1-0.1,0.2-0.2,0.3-0.3c0.1-0.1,0.1-0.2,0.1-0.4
				c0-0.3-0.2-0.6-0.5-0.7c-0.3-0.2-0.8-0.3-1.5-0.5c-0.3-0.1-0.6-0.2-0.9-0.3c-0.3-0.1-0.5-0.3-0.7-0.5c-0.2-0.2-0.4-0.4-0.5-0.7
				C127.1,3.3,127,3,127,2.7c0-0.4,0.1-0.7,0.2-1c0.1-0.3,0.3-0.6,0.6-0.8c0.3-0.2,0.6-0.4,1-0.6s0.9-0.2,1.4-0.2
				c0.4,0,0.8,0,1.2,0.1c0.3,0.1,0.6,0.2,0.9,0.3c0.2,0.1,0.4,0.3,0.6,0.4c0.1,0.1,0.3,0.2,0.3,0.3L132,2.4
				c-0.1-0.1-0.2-0.2-0.3-0.3c-0.1-0.1-0.3-0.2-0.4-0.3c-0.2-0.1-0.3-0.1-0.5-0.2c-0.2-0.1-0.4-0.1-0.6-0.1c-0.1,0-0.3,0-0.4,0.1
				c-0.1,0-0.3,0.1-0.4,0.2c-0.1,0.1-0.2,0.2-0.3,0.3C129,2.2,129,2.3,129,2.4c0,0.3,0.2,0.5,0.5,0.7c0.3,0.2,0.7,0.3,1.3,0.5
				c0.3,0.1,0.6,0.2,0.9,0.3c0.3,0.1,0.6,0.3,0.8,0.5c0.2,0.2,0.4,0.5,0.6,0.8c0.1,0.3,0.2,0.7,0.2,1.1c0,0.4-0.1,0.7-0.3,1.1
				c-0.2,0.3-0.4,0.6-0.7,0.8c-0.3,0.2-0.6,0.4-1,0.6C130.9,9,130.5,9,130,9c-0.4,0-0.8,0-1.2-0.1c-0.4-0.1-0.7-0.2-1-0.3
				c-0.3-0.1-0.5-0.3-0.8-0.5c-0.2-0.2-0.4-0.3-0.6-0.5L127.8,6.3z"/>
			<path class="st0" d="M135.4,0.2h5.9v1.7h-3.9v1.7h3.1v1.6h-3.1v1.9h4.2v1.7h-6.2V0.2z"/>
			<path class="st0" d="M149.2,0.2h2.1l1.3,6.2l1.5-6h1.8l1.5,6l1.2-6.2h2l-2.2,8.6h-2l-1.5-5.6l-1.5,5.6h-2L149.2,0.2z"/>
			<path class="st0" d="M162.2,0.2h1.9v3.3h3.7V0.2h1.9v8.6h-1.9V5.3h-3.7v3.5h-1.9V0.2z"/>
			<path class="st0" d="M176.3,9c-0.6,0-1.2-0.1-1.8-0.3c-0.5-0.2-1-0.5-1.4-1c-0.4-0.4-0.7-0.9-0.9-1.4c-0.2-0.6-0.3-1.1-0.3-1.8
				c0-0.6,0.1-1.2,0.3-1.8c0.2-0.5,0.5-1,0.9-1.4c0.4-0.4,0.9-0.7,1.4-1c0.5-0.2,1.1-0.3,1.8-0.3c0.6,0,1.2,0.1,1.8,0.3
				c0.5,0.2,1,0.5,1.4,1c0.4,0.4,0.7,0.9,0.9,1.4c0.2,0.5,0.3,1.1,0.3,1.8c0,0.6-0.1,1.2-0.3,1.8c-0.2,0.6-0.5,1-0.9,1.4
				c-0.4,0.4-0.9,0.7-1.4,1C177.5,8.9,176.9,9,176.3,9z M176.3,7.2c0.4,0,0.7-0.1,1-0.2c0.3-0.1,0.6-0.3,0.8-0.6
				c0.2-0.2,0.4-0.5,0.5-0.9c0.1-0.3,0.2-0.7,0.2-1c0-0.4-0.1-0.7-0.2-1c-0.1-0.3-0.3-0.6-0.5-0.9c-0.2-0.2-0.5-0.4-0.8-0.6
				c-0.3-0.1-0.6-0.2-1-0.2c-0.4,0-0.7,0.1-1,0.2c-0.3,0.1-0.6,0.3-0.8,0.6c-0.2,0.2-0.4,0.5-0.5,0.9c-0.1,0.3-0.2,0.7-0.2,1
				c0,0.4,0.1,0.7,0.2,1c0.1,0.3,0.3,0.6,0.5,0.9c0.2,0.2,0.5,0.4,0.8,0.6C175.5,7.1,175.9,7.2,176.3,7.2z"/>
		</g>
		<g>
			<path class="st0" d="M3.2,19.5h2.2l3.1,8.6H6.4l-0.7-2h-3l-0.7,2H0L3.2,19.5z M5.3,24.6l-1-3.2l-1.1,3.2H5.3z"/>
			<path class="st0" d="M10.1,19.5h3.2c0.5,0,0.9,0.1,1.3,0.2c0.4,0.1,0.7,0.3,0.9,0.6c0.3,0.2,0.4,0.5,0.6,0.9
				c0.1,0.3,0.2,0.7,0.2,1c0,0.6-0.1,1-0.4,1.5c-0.2,0.4-0.6,0.7-1,1l1.9,3.4h-2.1l-1.6-3.2H12v3.2h-1.9V19.5z M13.2,23.4
				c0.4,0,0.6-0.1,0.8-0.3c0.2-0.2,0.3-0.5,0.3-0.8c0-0.4-0.1-0.6-0.3-0.8c-0.2-0.2-0.5-0.3-0.8-0.3H12v2.3H13.2z"/>
			<path class="st0" d="M18.5,19.5h5.9v1.7h-3.9v1.7h3.1v1.6h-3.1v1.9h4.2v1.7h-6.2V19.5z"/>
			<path class="st0" d="M38.8,25.5c0.1,0.1,0.2,0.2,0.4,0.4c0.2,0.1,0.3,0.2,0.5,0.3c0.2,0.1,0.4,0.2,0.6,0.3
				c0.2,0.1,0.5,0.1,0.7,0.1c0.1,0,0.3,0,0.4-0.1c0.1,0,0.3-0.1,0.4-0.2c0.1-0.1,0.2-0.2,0.3-0.3c0.1-0.1,0.1-0.2,0.1-0.4
				c0-0.3-0.2-0.6-0.5-0.7c-0.3-0.2-0.8-0.3-1.5-0.5c-0.3-0.1-0.6-0.2-0.9-0.3c-0.3-0.1-0.5-0.3-0.7-0.5c-0.2-0.2-0.4-0.4-0.5-0.7
				c-0.1-0.3-0.2-0.6-0.2-0.9c0-0.4,0.1-0.7,0.2-1c0.1-0.3,0.3-0.6,0.6-0.8c0.3-0.2,0.6-0.4,1-0.6c0.4-0.1,0.9-0.2,1.4-0.2
				c0.4,0,0.8,0,1.2,0.1c0.3,0.1,0.6,0.2,0.9,0.3c0.2,0.1,0.4,0.3,0.6,0.4c0.2,0.1,0.3,0.2,0.3,0.3L43,21.7
				c-0.1-0.1-0.2-0.2-0.3-0.3c-0.1-0.1-0.3-0.2-0.4-0.3S41.9,21,41.7,21c-0.2-0.1-0.4-0.1-0.6-0.1c-0.1,0-0.3,0-0.4,0.1
				c-0.1,0-0.3,0.1-0.4,0.2c-0.1,0.1-0.2,0.2-0.3,0.3C40,21.5,40,21.6,40,21.7c0,0.3,0.2,0.5,0.5,0.7c0.3,0.2,0.7,0.3,1.3,0.5
				c0.3,0.1,0.6,0.2,0.9,0.3c0.3,0.1,0.6,0.3,0.8,0.5c0.2,0.2,0.4,0.5,0.6,0.8c0.1,0.3,0.2,0.7,0.2,1.1c0,0.4-0.1,0.7-0.3,1.1
				c-0.2,0.3-0.4,0.6-0.7,0.8c-0.3,0.2-0.6,0.4-1,0.6c-0.4,0.1-0.8,0.2-1.3,0.2c-0.4,0-0.8,0-1.2-0.1c-0.4-0.1-0.7-0.2-1-0.3
				c-0.3-0.1-0.5-0.3-0.8-0.5c-0.2-0.2-0.4-0.3-0.6-0.5L38.8,25.5z"/>
			<path class="st0" d="M48.2,21.2h-2.8v-1.7h7.5v1.7h-2.8v6.9h-2V21.2z"/>
			<path class="st0" d="M54.7,19.5h3.2c0.5,0,0.9,0.1,1.3,0.2c0.4,0.1,0.7,0.3,0.9,0.6c0.3,0.2,0.4,0.5,0.6,0.9
				c0.1,0.3,0.2,0.7,0.2,1c0,0.6-0.1,1-0.4,1.5c-0.2,0.4-0.6,0.7-1,1l1.9,3.4h-2.1l-1.6-3.2h-1.1v3.2h-1.9V19.5z M57.8,23.4
				c0.4,0,0.6-0.1,0.8-0.3c0.2-0.2,0.3-0.5,0.3-0.8c0-0.4-0.1-0.6-0.3-0.8c-0.2-0.2-0.5-0.3-0.8-0.3h-1.2v2.3H57.8z"/>
			<path class="st0" d="M65.6,19.5h2.2l3.1,8.6h-2.1l-0.7-2h-3l-0.7,2h-2L65.6,19.5z M67.7,24.6l-1-3.2l-1.1,3.2H67.7z"/>
			<path class="st0" d="M72.5,19.5h1.9v8.6h-1.9V19.5z"/>
			<path class="st0" d="M81.2,23.4h3.3v3.7c-0.4,0.4-1,0.7-1.6,0.9c-0.6,0.2-1.3,0.3-2,0.3c-0.7,0-1.3-0.1-1.9-0.3
				c-0.6-0.2-1-0.5-1.4-0.9c-0.4-0.4-0.7-0.9-0.9-1.4c-0.2-0.5-0.3-1.2-0.3-1.8c0-0.6,0.1-1.2,0.3-1.8c0.2-0.5,0.5-1,0.9-1.4
				c0.4-0.4,0.9-0.7,1.4-1c0.5-0.2,1.1-0.3,1.8-0.3c0.8,0,1.5,0.1,2.1,0.4c0.6,0.3,1.1,0.7,1.5,1.2l-1.3,1.2
				c-0.3-0.3-0.6-0.6-0.9-0.8c-0.3-0.2-0.7-0.3-1.2-0.3c-0.4,0-0.7,0.1-1.1,0.2c-0.3,0.1-0.6,0.3-0.8,0.6c-0.2,0.2-0.4,0.5-0.5,0.9
				c-0.1,0.3-0.2,0.7-0.2,1.1c0,0.4,0.1,0.8,0.2,1.1c0.1,0.3,0.3,0.6,0.5,0.9c0.2,0.2,0.5,0.4,0.8,0.5c0.3,0.1,0.7,0.2,1,0.2
				c0.3,0,0.7,0,0.9-0.1c0.3-0.1,0.5-0.2,0.8-0.4v-1.1h-1.5V23.4z"/>
			<path class="st0" d="M86.7,19.5h1.9v3.3h3.7v-3.3h1.9v8.6h-1.9v-3.5h-3.7v3.5h-1.9V19.5z"/>
			<path class="st0" d="M98.8,21.2H96v-1.7h7.5v1.7h-2.8v6.9h-2V21.2z"/>
			<path class="st0" d="M116.8,19.5h5.8v1.7h-3.8v1.9h2.9v1.7h-2.9v3.3h-1.9V19.5z"/>
			<path class="st0" d="M128.5,28.3c-0.6,0-1.2-0.1-1.8-0.3c-0.5-0.2-1-0.5-1.4-1c-0.4-0.4-0.7-0.9-0.9-1.4
				c-0.2-0.6-0.3-1.1-0.3-1.8c0-0.6,0.1-1.2,0.3-1.8c0.2-0.5,0.5-1,0.9-1.4c0.4-0.4,0.9-0.7,1.4-1c0.5-0.2,1.1-0.3,1.8-0.3
				c0.6,0,1.2,0.1,1.8,0.3c0.5,0.2,1,0.5,1.4,1c0.4,0.4,0.7,0.9,0.9,1.4c0.2,0.5,0.3,1.1,0.3,1.8c0,0.6-0.1,1.2-0.3,1.8
				c-0.2,0.6-0.5,1-0.9,1.4c-0.4,0.4-0.9,0.7-1.4,1C129.7,28.2,129.1,28.3,128.5,28.3z M128.5,26.5c0.4,0,0.7-0.1,1-0.2
				c0.3-0.1,0.6-0.3,0.8-0.6c0.2-0.2,0.4-0.5,0.5-0.9c0.1-0.3,0.2-0.7,0.2-1c0-0.4-0.1-0.7-0.2-1c-0.1-0.3-0.3-0.6-0.5-0.9
				c-0.2-0.2-0.5-0.4-0.8-0.6s-0.6-0.2-1-0.2c-0.4,0-0.7,0.1-1,0.2c-0.3,0.1-0.6,0.3-0.8,0.6c-0.2,0.2-0.4,0.5-0.5,0.9
				c-0.1,0.3-0.2,0.7-0.2,1c0,0.4,0.1,0.7,0.2,1c0.1,0.3,0.3,0.6,0.5,0.9c0.2,0.2,0.5,0.4,0.8,0.6C127.8,26.4,128.1,26.5,128.5,26.5
				z"/>
			<path class="st0" d="M135,19.5h3.2c0.5,0,0.9,0.1,1.3,0.2c0.4,0.1,0.7,0.3,0.9,0.6c0.3,0.2,0.4,0.5,0.6,0.9
				c0.1,0.3,0.2,0.7,0.2,1c0,0.6-0.1,1-0.4,1.5c-0.2,0.4-0.6,0.7-1,1l1.9,3.4h-2.1l-1.6-3.2h-1.1v3.2H135V19.5z M138,23.4
				c0.4,0,0.6-0.1,0.8-0.3c0.2-0.2,0.3-0.5,0.3-0.8c0-0.4-0.1-0.6-0.3-0.8c-0.2-0.2-0.5-0.3-0.8-0.3h-1.2v2.3H138z"/>
			<path class="st0" d="M142.7,19.5h2.1l1.3,6.2l1.5-6h1.8l1.5,6l1.2-6.2h2l-2.2,8.6h-2l-1.5-5.6l-1.5,5.6h-2L142.7,19.5z"/>
			<path class="st0" d="M157.5,19.5h2.2l3.1,8.6h-2.1l-0.7-2h-3l-0.7,2h-2L157.5,19.5z M159.5,24.6l-1-3.2l-1.1,3.2H159.5z"/>
			<path class="st0" d="M164.4,19.5h3.2c0.5,0,0.9,0.1,1.3,0.2c0.4,0.1,0.7,0.3,0.9,0.6c0.3,0.2,0.4,0.5,0.6,0.9
				c0.1,0.3,0.2,0.7,0.2,1c0,0.6-0.1,1-0.4,1.5c-0.2,0.4-0.6,0.7-1,1l1.9,3.4h-2.1l-1.6-3.2h-1.1v3.2h-1.9V19.5z M167.4,23.4
				c0.4,0,0.6-0.1,0.8-0.3c0.2-0.2,0.3-0.5,0.3-0.8c0-0.4-0.1-0.6-0.3-0.8c-0.2-0.2-0.5-0.3-0.8-0.3h-1.2v2.3H167.4z"/>
			<path class="st0" d="M172.8,19.5h3.2c0.7,0,1.3,0.1,1.8,0.3c0.6,0.2,1,0.4,1.5,0.8c0.4,0.4,0.7,0.8,1,1.4
				c0.2,0.5,0.3,1.2,0.3,1.9c0,0.7-0.1,1.3-0.3,1.9s-0.6,1-1,1.3c-0.4,0.4-0.9,0.6-1.5,0.8c-0.6,0.2-1.2,0.3-1.8,0.3h-3.2V19.5z
				 M175.9,26.4c0.9,0,1.5-0.2,2-0.7c0.5-0.5,0.7-1.1,0.7-1.9c0-0.4-0.1-0.8-0.2-1.1c-0.1-0.3-0.3-0.6-0.5-0.8
				c-0.2-0.2-0.5-0.4-0.8-0.5c-0.3-0.1-0.7-0.2-1.2-0.2h-1.2v5.2H175.9z"/>
		</g>
		<g>
			<path class="st0" d="M3.2,38.8h2.2l3.1,8.6H6.4l-0.7-2h-3l-0.7,2H0L3.2,38.8z M5.3,43.9l-1-3.2l-1.1,3.2H5.3z"/>
			<path class="st0" d="M10.1,38.8h1.9l3.7,5.6v-5.6h1.9v8.6h-1.8L12,41.7v5.7h-1.9V38.8z"/>
			<path class="st0" d="M19.9,38.8h3.2c0.7,0,1.3,0.1,1.8,0.3c0.6,0.2,1,0.4,1.5,0.8c0.4,0.4,0.7,0.8,1,1.4c0.2,0.5,0.3,1.2,0.3,1.9
				c0,0.7-0.1,1.3-0.3,1.9c-0.2,0.5-0.6,1-1,1.3c-0.4,0.4-0.9,0.6-1.5,0.8c-0.6,0.2-1.2,0.3-1.8,0.3h-3.2V38.8z M23,45.6
				c0.9,0,1.5-0.2,2-0.7c0.5-0.5,0.7-1.1,0.7-1.9c0-0.4-0.1-0.8-0.2-1.1c-0.1-0.3-0.3-0.6-0.5-0.8c-0.2-0.2-0.5-0.4-0.8-0.5
				c-0.3-0.1-0.7-0.2-1.2-0.2h-1.2v5.2H23z"/>
			<path class="st0" d="M46,47.1c-0.3,0.1-0.6,0.3-1,0.3c-0.3,0.1-0.7,0.1-1,0.1c-0.6,0-1.2-0.1-1.8-0.3c-0.5-0.2-1-0.5-1.4-1
				c-0.4-0.4-0.7-0.9-0.9-1.4c-0.2-0.6-0.3-1.1-0.3-1.8c0-0.6,0.1-1.2,0.3-1.8c0.2-0.5,0.5-1,0.9-1.4c0.4-0.4,0.9-0.7,1.4-1
				c0.5-0.2,1.1-0.3,1.8-0.3c0.6,0,1.2,0.1,1.8,0.3c0.5,0.2,1,0.5,1.4,1c0.4,0.4,0.7,0.9,0.9,1.4c0.2,0.5,0.3,1.1,0.3,1.8
				c0,0.7-0.1,1.3-0.4,1.8c-0.2,0.6-0.6,1-1,1.5l0.9,1.1L47,48.3L46,47.1z M43.8,44.4l1-0.9l1,1.2c0.2-0.2,0.3-0.5,0.4-0.8
				c0.1-0.3,0.1-0.6,0.1-1c0-0.4-0.1-0.7-0.2-1c-0.1-0.3-0.3-0.6-0.5-0.9c-0.2-0.2-0.5-0.4-0.8-0.6c-0.3-0.1-0.6-0.2-1-0.2
				c-0.4,0-0.7,0.1-1,0.2c-0.3,0.1-0.6,0.3-0.8,0.6c-0.2,0.2-0.4,0.5-0.5,0.9c-0.1,0.3-0.2,0.7-0.2,1c0,0.4,0.1,0.7,0.2,1
				c0.1,0.3,0.3,0.6,0.5,0.9c0.2,0.2,0.5,0.4,0.8,0.6c0.3,0.1,0.6,0.2,1,0.2c0.1,0,0.3,0,0.4,0c0.1,0,0.3-0.1,0.4-0.1L43.8,44.4z"/>
			<path class="st0" d="M50.4,38.8h2v5.1c0,0.3,0,0.5,0.1,0.8c0.1,0.2,0.1,0.4,0.3,0.6c0.1,0.2,0.3,0.3,0.5,0.4
				c0.2,0.1,0.5,0.1,0.8,0.1c0.3,0,0.6,0,0.8-0.1c0.2-0.1,0.4-0.2,0.5-0.4c0.1-0.2,0.2-0.4,0.3-0.6c0.1-0.2,0.1-0.5,0.1-0.8v-5.1h2
				v5.3c0,0.5-0.1,1-0.3,1.4c-0.2,0.4-0.4,0.8-0.7,1.1c-0.3,0.3-0.7,0.5-1.1,0.7c-0.4,0.2-0.9,0.3-1.5,0.3c-0.5,0-1-0.1-1.5-0.3
				c-0.4-0.2-0.8-0.4-1.1-0.7c-0.3-0.3-0.6-0.7-0.7-1.1c-0.2-0.4-0.3-0.9-0.3-1.4V38.8z"/>
			<path class="st0" d="M59.8,38.8h5.9v1.7h-3.9v1.7h3.1v1.6h-3.1v1.9H66v1.7h-6.2V38.8z"/>
			<path class="st0" d="M68.6,44.8c0.1,0.1,0.2,0.2,0.4,0.4c0.2,0.1,0.3,0.2,0.5,0.3c0.2,0.1,0.4,0.2,0.6,0.3
				c0.2,0.1,0.5,0.1,0.7,0.1c0.1,0,0.3,0,0.4-0.1c0.1,0,0.3-0.1,0.4-0.2c0.1-0.1,0.2-0.2,0.3-0.3c0.1-0.1,0.1-0.2,0.1-0.4
				c0-0.3-0.2-0.6-0.5-0.7c-0.3-0.2-0.8-0.3-1.5-0.5c-0.3-0.1-0.6-0.2-0.9-0.3c-0.3-0.1-0.5-0.3-0.7-0.5c-0.2-0.2-0.4-0.4-0.5-0.7
				c-0.1-0.3-0.2-0.6-0.2-0.9c0-0.4,0.1-0.7,0.2-1c0.1-0.3,0.3-0.6,0.6-0.8c0.3-0.2,0.6-0.4,1-0.6c0.4-0.1,0.9-0.2,1.4-0.2
				c0.4,0,0.8,0,1.2,0.1c0.3,0.1,0.6,0.2,0.9,0.3c0.2,0.1,0.4,0.3,0.6,0.4c0.2,0.1,0.3,0.2,0.3,0.3l-1.1,1.2
				c-0.1-0.1-0.2-0.2-0.3-0.3c-0.1-0.1-0.3-0.2-0.4-0.3s-0.3-0.1-0.5-0.2c-0.2-0.1-0.4-0.1-0.6-0.1c-0.1,0-0.3,0-0.4,0.1
				c-0.1,0-0.3,0.1-0.4,0.2c-0.1,0.1-0.2,0.2-0.3,0.3c-0.1,0.1-0.1,0.2-0.1,0.3c0,0.3,0.2,0.5,0.5,0.7c0.3,0.2,0.7,0.3,1.3,0.5
				c0.3,0.1,0.6,0.2,0.9,0.3c0.3,0.1,0.6,0.3,0.8,0.5c0.2,0.2,0.4,0.5,0.6,0.8c0.1,0.3,0.2,0.7,0.2,1.1c0,0.4-0.1,0.7-0.3,1.1
				c-0.2,0.3-0.4,0.6-0.7,0.8c-0.3,0.2-0.6,0.4-1,0.6c-0.4,0.1-0.8,0.2-1.3,0.2c-0.4,0-0.8,0-1.2-0.1c-0.4-0.1-0.7-0.2-1-0.3
				c-0.3-0.1-0.5-0.3-0.8-0.5c-0.2-0.2-0.4-0.3-0.6-0.5L68.6,44.8z"/>
			<path class="st0" d="M78.1,40.5h-2.8v-1.7h7.5v1.7H80v6.9h-2V40.5z"/>
			<path class="st0" d="M84.5,38.8h1.9v8.6h-1.9V38.8z"/>
			<path class="st0" d="M92.9,47.6c-0.6,0-1.2-0.1-1.8-0.3c-0.5-0.2-1-0.5-1.4-1c-0.4-0.4-0.7-0.9-0.9-1.4c-0.2-0.6-0.3-1.1-0.3-1.8
				c0-0.6,0.1-1.2,0.3-1.8c0.2-0.5,0.5-1,0.9-1.4c0.4-0.4,0.9-0.7,1.4-1c0.5-0.2,1.1-0.3,1.8-0.3c0.6,0,1.2,0.1,1.8,0.3
				c0.5,0.2,1,0.5,1.4,1c0.4,0.4,0.7,0.9,0.9,1.4c0.2,0.5,0.3,1.1,0.3,1.8c0,0.6-0.1,1.2-0.3,1.8c-0.2,0.6-0.5,1-0.9,1.4
				c-0.4,0.4-0.9,0.7-1.4,1C94.2,47.5,93.6,47.6,92.9,47.6z M92.9,45.7c0.4,0,0.7-0.1,1-0.2c0.3-0.1,0.6-0.3,0.8-0.6
				c0.2-0.2,0.4-0.5,0.5-0.9c0.1-0.3,0.2-0.7,0.2-1c0-0.4-0.1-0.7-0.2-1c-0.1-0.3-0.3-0.6-0.5-0.9c-0.2-0.2-0.5-0.4-0.8-0.6
				s-0.6-0.2-1-0.2c-0.4,0-0.7,0.1-1,0.2c-0.3,0.1-0.6,0.3-0.8,0.6c-0.2,0.2-0.4,0.5-0.5,0.9c-0.1,0.3-0.2,0.7-0.2,1
				c0,0.4,0.1,0.7,0.2,1c0.1,0.3,0.3,0.6,0.5,0.9c0.2,0.2,0.5,0.4,0.8,0.6C92.2,45.7,92.6,45.7,92.9,45.7z"/>
			<path class="st0" d="M99.4,38.8h1.9l3.7,5.6v-5.6h1.9v8.6h-1.8l-3.8-5.7v5.7h-1.9V38.8z"/>
			<path class="st0" d="M109.2,38.8h1.9v8.6h-1.9V38.8z"/>
			<path class="st0" d="M113.5,38.8h1.9l3.7,5.6v-5.6h1.9v8.6h-1.8l-3.8-5.7v5.7h-1.9V38.8z"/>
			<path class="st0" d="M127.7,42.6h3.3v3.7c-0.4,0.4-1,0.7-1.6,0.9c-0.6,0.2-1.3,0.3-2,0.3c-0.7,0-1.3-0.1-1.9-0.3
				c-0.6-0.2-1-0.5-1.4-0.9c-0.4-0.4-0.7-0.9-0.9-1.4c-0.2-0.5-0.3-1.2-0.3-1.8c0-0.6,0.1-1.2,0.3-1.8c0.2-0.5,0.5-1,0.9-1.4
				c0.4-0.4,0.9-0.7,1.4-1c0.5-0.2,1.1-0.3,1.8-0.3c0.8,0,1.5,0.1,2.1,0.4c0.6,0.3,1.1,0.7,1.5,1.2l-1.3,1.2
				c-0.3-0.3-0.6-0.6-0.9-0.8c-0.3-0.2-0.7-0.3-1.2-0.3c-0.4,0-0.7,0.1-1.1,0.2c-0.3,0.1-0.6,0.3-0.8,0.6c-0.2,0.2-0.4,0.5-0.5,0.9
				c-0.1,0.3-0.2,0.7-0.2,1.1c0,0.4,0.1,0.8,0.2,1.1c0.1,0.3,0.3,0.6,0.5,0.9c0.2,0.2,0.5,0.4,0.8,0.5c0.3,0.1,0.7,0.2,1,0.2
				c0.3,0,0.7,0,0.9-0.1c0.3-0.1,0.5-0.2,0.8-0.4v-1.1h-1.5V42.6z"/>
			<path class="st0" d="M145.5,40.5h-2.8v-1.7h7.5v1.7h-2.8v6.9h-2V40.5z"/>
			<path class="st0" d="M152,38.8h1.9v3.3h3.7v-3.3h1.9v8.6h-1.9v-3.5h-3.7v3.5H152V38.8z"/>
			<path class="st0" d="M161.9,38.8h5.9v1.7h-3.9v1.7h3.1v1.6h-3.1v1.9h4.2v1.7h-6.2V38.8z"/>
			<path class="st0" d="M170,38.8h1.9v8.6H170V38.8z"/>
			<path class="st0" d="M174.3,38.8h3.2c0.5,0,0.9,0.1,1.3,0.2c0.4,0.1,0.7,0.3,0.9,0.6c0.3,0.2,0.4,0.5,0.6,0.9
				c0.1,0.3,0.2,0.7,0.2,1c0,0.6-0.1,1-0.4,1.5c-0.2,0.4-0.6,0.7-1,1l1.9,3.4h-2.1l-1.6-3.2h-1.1v3.2h-1.9V38.8z M177.4,42.6
				c0.4,0,0.6-0.1,0.8-0.3c0.2-0.2,0.3-0.5,0.3-0.8c0-0.4-0.1-0.6-0.3-0.8c-0.2-0.2-0.5-0.3-0.8-0.3h-1.2v2.3H177.4z"/>
		</g>
		<g>
			<path class="st0" d="M0.7,58h1.9v6.9h4.1v1.7H0.7V58z"/>
			<path class="st0" d="M12.3,66.8c-0.6,0-1.2-0.1-1.8-0.3c-0.5-0.2-1-0.5-1.4-1c-0.4-0.4-0.7-0.9-0.9-1.4C8,63.5,7.9,63,7.9,62.3
				c0-0.6,0.1-1.2,0.3-1.8c0.2-0.5,0.5-1,0.9-1.4c0.4-0.4,0.9-0.7,1.4-1c0.5-0.2,1.1-0.3,1.8-0.3c0.6,0,1.2,0.1,1.8,0.3
				c0.5,0.2,1,0.5,1.4,1c0.4,0.4,0.7,0.9,0.9,1.4c0.2,0.5,0.3,1.1,0.3,1.8c0,0.6-0.1,1.2-0.3,1.8c-0.2,0.6-0.5,1-0.9,1.4
				c-0.4,0.4-0.9,0.7-1.4,1C13.6,66.7,13,66.8,12.3,66.8z M12.3,65c0.4,0,0.7-0.1,1-0.2c0.3-0.1,0.6-0.3,0.8-0.6
				c0.2-0.2,0.4-0.5,0.5-0.9c0.1-0.3,0.2-0.7,0.2-1c0-0.4-0.1-0.7-0.2-1c-0.1-0.3-0.3-0.6-0.5-0.9c-0.2-0.2-0.5-0.4-0.8-0.6
				c-0.3-0.1-0.6-0.2-1-0.2c-0.4,0-0.7,0.1-1,0.2c-0.3,0.1-0.6,0.3-0.8,0.6c-0.2,0.2-0.4,0.5-0.5,0.9c-0.1,0.3-0.2,0.7-0.2,1
				c0,0.4,0.1,0.7,0.2,1c0.1,0.3,0.3,0.6,0.5,0.9c0.2,0.2,0.5,0.4,0.8,0.6C11.6,64.9,12,65,12.3,65z"/>
			<path class="st0" d="M20.3,63l-3-5h2.2l1.9,3.2l1.8-3.2h2.1l-3,5v3.6h-2V63z"/>
			<path class="st0" d="M27.9,58H30l3.1,8.6h-2.1l-0.7-2h-3l-0.7,2h-2L27.9,58z M29.9,63.1l-1-3.2l-1.1,3.2H29.9z"/>
			<path class="st0" d="M34.8,58h1.9v6.9h4.1v1.7h-6.1V58z"/>
			<path class="st0" d="M42.8,59.7H40V58h7.5v1.7h-2.8v6.9h-2V59.7z"/>
			<path class="st0" d="M51.6,63l-3-5h2.2l1.9,3.2l1.8-3.2h2.1l-3,5v3.6h-2V63z"/>
			<path class="st0" d="M57.1,66.6h-0.7v-2.1h2.1v2l-1.1,1.9h-1.1L57.1,66.6z"/>
			<path class="st0" d="M71.3,59.7h-2.8V58H76v1.7h-2.8v6.9h-2V59.7z"/>
			<path class="st0" d="M81.3,66.8c-0.6,0-1.2-0.1-1.8-0.3c-0.5-0.2-1-0.5-1.4-1c-0.4-0.4-0.7-0.9-0.9-1.4c-0.2-0.6-0.3-1.1-0.3-1.8
				c0-0.6,0.1-1.2,0.3-1.8c0.2-0.5,0.5-1,0.9-1.4c0.4-0.4,0.9-0.7,1.4-1c0.5-0.2,1.1-0.3,1.8-0.3c0.6,0,1.2,0.1,1.8,0.3
				c0.5,0.2,1,0.5,1.4,1c0.4,0.4,0.7,0.9,0.9,1.4c0.2,0.5,0.3,1.1,0.3,1.8c0,0.6-0.1,1.2-0.3,1.8c-0.2,0.6-0.5,1-0.9,1.4
				c-0.4,0.4-0.9,0.7-1.4,1C82.5,66.7,81.9,66.8,81.3,66.8z M81.3,65c0.4,0,0.7-0.1,1-0.2c0.3-0.1,0.6-0.3,0.8-0.6
				c0.2-0.2,0.4-0.5,0.5-0.9c0.1-0.3,0.2-0.7,0.2-1c0-0.4-0.1-0.7-0.2-1c-0.1-0.3-0.3-0.6-0.5-0.9c-0.2-0.2-0.5-0.4-0.8-0.6
				c-0.3-0.1-0.6-0.2-1-0.2c-0.4,0-0.7,0.1-1,0.2c-0.3,0.1-0.6,0.3-0.8,0.6c-0.2,0.2-0.4,0.5-0.5,0.9c-0.1,0.3-0.2,0.7-0.2,1
				c0,0.4,0.1,0.7,0.2,1c0.1,0.3,0.3,0.6,0.5,0.9c0.2,0.2,0.5,0.4,0.8,0.6C80.6,64.9,80.9,65,81.3,65z"/>
			<path class="st0" d="M98.3,59.7h-2.8V58h7.5v1.7h-2.8v6.9h-2V59.7z"/>
			<path class="st0" d="M104.8,58h1.9v3.3h3.7V58h1.9v8.6h-1.9v-3.5h-3.7v3.5h-1.9V58z"/>
			<path class="st0" d="M118.9,66.8c-0.6,0-1.2-0.1-1.8-0.3c-0.5-0.2-1-0.5-1.4-1c-0.4-0.4-0.7-0.9-0.9-1.4
				c-0.2-0.6-0.3-1.1-0.3-1.8c0-0.6,0.1-1.2,0.3-1.8c0.2-0.5,0.5-1,0.9-1.4c0.4-0.4,0.9-0.7,1.4-1c0.5-0.2,1.1-0.3,1.8-0.3
				c0.6,0,1.2,0.1,1.8,0.3c0.5,0.2,1,0.5,1.4,1c0.4,0.4,0.7,0.9,0.9,1.4c0.2,0.5,0.3,1.1,0.3,1.8c0,0.6-0.1,1.2-0.3,1.8
				c-0.2,0.6-0.5,1-0.9,1.4c-0.4,0.4-0.9,0.7-1.4,1C120.1,66.7,119.5,66.8,118.9,66.8z M118.9,65c0.4,0,0.7-0.1,1-0.2
				c0.3-0.1,0.6-0.3,0.8-0.6c0.2-0.2,0.4-0.5,0.5-0.9c0.1-0.3,0.2-0.7,0.2-1c0-0.4-0.1-0.7-0.2-1c-0.1-0.3-0.3-0.6-0.5-0.9
				c-0.2-0.2-0.5-0.4-0.8-0.6s-0.6-0.2-1-0.2c-0.4,0-0.7,0.1-1,0.2c-0.3,0.1-0.6,0.3-0.8,0.6c-0.2,0.2-0.4,0.5-0.5,0.9
				c-0.1,0.3-0.2,0.7-0.2,1c0,0.4,0.1,0.7,0.2,1c0.1,0.3,0.3,0.6,0.5,0.9c0.2,0.2,0.5,0.4,0.8,0.6C118.2,64.9,118.5,65,118.9,65z"/>
			<path class="st0" d="M125.9,64.1c0.1,0.1,0.2,0.2,0.4,0.4c0.2,0.1,0.3,0.2,0.5,0.3c0.2,0.1,0.4,0.2,0.6,0.3
				c0.2,0.1,0.5,0.1,0.7,0.1c0.1,0,0.3,0,0.4-0.1c0.1,0,0.3-0.1,0.4-0.2c0.1-0.1,0.2-0.2,0.3-0.3c0.1-0.1,0.1-0.2,0.1-0.4
				c0-0.3-0.2-0.6-0.5-0.7c-0.3-0.2-0.8-0.3-1.5-0.5c-0.3-0.1-0.6-0.2-0.9-0.3c-0.3-0.1-0.5-0.3-0.7-0.5c-0.2-0.2-0.4-0.4-0.5-0.7
				c-0.1-0.3-0.2-0.6-0.2-0.9c0-0.4,0.1-0.7,0.2-1c0.1-0.3,0.3-0.6,0.6-0.8c0.3-0.2,0.6-0.4,1-0.6c0.4-0.1,0.9-0.2,1.4-0.2
				c0.4,0,0.8,0,1.2,0.1c0.3,0.1,0.6,0.2,0.9,0.3c0.2,0.1,0.4,0.3,0.6,0.4c0.1,0.1,0.3,0.2,0.3,0.3l-1.1,1.2
				c-0.1-0.1-0.2-0.2-0.3-0.3c-0.1-0.1-0.3-0.2-0.4-0.3c-0.2-0.1-0.3-0.1-0.5-0.2c-0.2-0.1-0.4-0.1-0.6-0.1c-0.1,0-0.3,0-0.4,0.1
				c-0.1,0-0.3,0.1-0.4,0.2c-0.1,0.1-0.2,0.2-0.3,0.3c-0.1,0.1-0.1,0.2-0.1,0.3c0,0.3,0.2,0.5,0.5,0.7c0.3,0.2,0.7,0.3,1.3,0.5
				c0.3,0.1,0.6,0.2,0.9,0.3c0.3,0.1,0.6,0.3,0.8,0.5c0.2,0.2,0.4,0.5,0.6,0.8c0.1,0.3,0.2,0.7,0.2,1.1c0,0.4-0.1,0.7-0.3,1.1
				c-0.2,0.3-0.4,0.6-0.7,0.8c-0.3,0.2-0.6,0.4-1,0.6c-0.4,0.1-0.8,0.2-1.3,0.2c-0.4,0-0.8,0-1.2-0.1c-0.4-0.1-0.7-0.2-1-0.3
				c-0.3-0.1-0.5-0.3-0.8-0.5c-0.2-0.2-0.4-0.3-0.6-0.5L125.9,64.1z"/>
			<path class="st0" d="M133.5,58h5.9v1.7h-3.9v1.7h3.1v1.6h-3.1v1.9h4.2v1.7h-6.2V58z"/>
			<path class="st0" d="M149.2,58h2.1l1.3,6.2l1.5-6h1.8l1.5,6l1.2-6.2h2l-2.2,8.6h-2l-1.5-5.6l-1.5,5.6h-2L149.2,58z"/>
			<path class="st0" d="M162.3,58h1.9v3.3h3.7V58h1.9v8.6h-1.9v-3.5h-3.7v3.5h-1.9V58z"/>
			<path class="st0" d="M176.3,66.8c-0.6,0-1.2-0.1-1.8-0.3c-0.5-0.2-1-0.5-1.4-1c-0.4-0.4-0.7-0.9-0.9-1.4
				c-0.2-0.6-0.3-1.1-0.3-1.8c0-0.6,0.1-1.2,0.3-1.8c0.2-0.5,0.5-1,0.9-1.4c0.4-0.4,0.9-0.7,1.4-1c0.5-0.2,1.1-0.3,1.8-0.3
				s1.2,0.1,1.8,0.3c0.5,0.2,1,0.5,1.4,1c0.4,0.4,0.7,0.9,0.9,1.4c0.2,0.5,0.3,1.1,0.3,1.8c0,0.6-0.1,1.2-0.3,1.8
				c-0.2,0.6-0.5,1-0.9,1.4c-0.4,0.4-0.9,0.7-1.4,1C177.5,66.7,177,66.8,176.3,66.8z M176.3,65c0.4,0,0.7-0.1,1-0.2
				c0.3-0.1,0.6-0.3,0.8-0.6c0.2-0.2,0.4-0.5,0.5-0.9c0.1-0.3,0.2-0.7,0.2-1c0-0.4-0.1-0.7-0.2-1c-0.1-0.3-0.3-0.6-0.5-0.9
				c-0.2-0.2-0.5-0.4-0.8-0.6c-0.3-0.1-0.6-0.2-1-0.2c-0.4,0-0.7,0.1-1,0.2c-0.3,0.1-0.6,0.3-0.8,0.6c-0.2,0.2-0.4,0.5-0.5,0.9
				c-0.1,0.3-0.2,0.7-0.2,1c0,0.4,0.1,0.7,0.2,1c0.1,0.3,0.3,0.6,0.5,0.9c0.2,0.2,0.5,0.4,0.8,0.6C175.6,64.9,175.9,65,176.3,65z"/>
		</g>
		<g>
			<path class="st0" d="M0.7,77.3h5.8V79H2.7V81h2.9v1.7H2.7v3.3H0.7V77.3z"/>
			<path class="st0" d="M8.3,77.3h5.9V79h-3.9v1.7h3.1v1.6h-3.1v1.9h4.2v1.7H8.3V77.3z"/>
			<path class="st0" d="M16.4,77.3h5.9V79h-3.9v1.7h3.1v1.6h-3.1v1.9h4.2v1.7h-6.2V77.3z"/>
			<path class="st0" d="M24.6,77.3h1.9v6.9h4.1v1.7h-6.1V77.3z"/>
			<path class="st0" d="M51.4,84.3c-0.2,0.2-0.4,0.5-0.7,0.7c-0.3,0.2-0.5,0.4-0.9,0.6c-0.3,0.2-0.7,0.3-1,0.4
				c-0.4,0.1-0.7,0.1-1.1,0.1c-0.7,0-1.2-0.1-1.8-0.3c-0.5-0.2-1-0.5-1.4-0.9c-0.4-0.4-0.7-0.9-0.9-1.4c-0.2-0.5-0.3-1.1-0.3-1.8
				c0-0.6,0.1-1.2,0.3-1.8c0.2-0.6,0.5-1,0.9-1.4c0.4-0.4,0.9-0.7,1.4-1c0.5-0.2,1.1-0.4,1.8-0.4c0.8,0,1.5,0.1,2.1,0.4
				c0.6,0.3,1.1,0.7,1.5,1.3L50,80.1c-0.3-0.4-0.6-0.7-0.9-0.9c-0.4-0.2-0.8-0.3-1.3-0.3c-0.4,0-0.7,0.1-1,0.2
				c-0.3,0.1-0.6,0.3-0.8,0.6c-0.2,0.2-0.4,0.5-0.5,0.9c-0.1,0.3-0.2,0.7-0.2,1c0,0.4,0.1,0.7,0.2,1.1c0.1,0.3,0.3,0.6,0.5,0.8
				c0.2,0.2,0.5,0.4,0.8,0.6c0.3,0.1,0.6,0.2,1,0.2c0.3,0,0.6,0,0.8-0.1c0.2-0.1,0.4-0.2,0.6-0.3c0.2-0.1,0.3-0.2,0.5-0.4
				c0.1-0.1,0.3-0.3,0.4-0.4L51.4,84.3z"/>
			<path class="st0" d="M57,86.1c-0.6,0-1.2-0.1-1.8-0.3c-0.5-0.2-1-0.5-1.4-1c-0.4-0.4-0.7-0.9-0.9-1.4c-0.2-0.6-0.3-1.1-0.3-1.8
				c0-0.6,0.1-1.2,0.3-1.8c0.2-0.5,0.5-1,0.9-1.4c0.4-0.4,0.9-0.7,1.4-1c0.5-0.2,1.1-0.3,1.8-0.3c0.6,0,1.2,0.1,1.8,0.3
				c0.5,0.2,1,0.5,1.4,1c0.4,0.4,0.7,0.9,0.9,1.4c0.2,0.5,0.3,1.1,0.3,1.8c0,0.6-0.1,1.2-0.3,1.8c-0.2,0.6-0.5,1-0.9,1.4
				c-0.4,0.4-0.9,0.7-1.4,1C58.2,86,57.6,86.1,57,86.1z M57,84.3c0.4,0,0.7-0.1,1-0.2c0.3-0.1,0.6-0.3,0.8-0.6
				c0.2-0.2,0.4-0.5,0.5-0.9c0.1-0.3,0.2-0.7,0.2-1c0-0.4-0.1-0.7-0.2-1c-0.1-0.3-0.3-0.6-0.5-0.9c-0.2-0.2-0.5-0.4-0.8-0.6
				c-0.3-0.1-0.6-0.2-1-0.2c-0.4,0-0.7,0.1-1,0.2c-0.3,0.1-0.6,0.3-0.8,0.6c-0.2,0.2-0.4,0.5-0.5,0.9c-0.1,0.3-0.2,0.7-0.2,1
				c0,0.4,0.1,0.7,0.2,1c0.1,0.3,0.3,0.6,0.5,0.9c0.2,0.2,0.5,0.4,0.8,0.6C56.2,84.2,56.6,84.3,57,84.3z"/>
			<path class="st0" d="M63.7,77.3h1.8l2.2,4l2.2-4h1.9l0.4,8.6h-1.9L70,80.3l-1.8,3.3h-1l-1.9-3.3l-0.2,5.6h-1.9L63.7,77.3z"/>
			<path class="st0" d="M74.4,77.3h3.1c0.5,0,1,0.1,1.4,0.2c0.4,0.2,0.7,0.4,0.9,0.6c0.2,0.3,0.4,0.5,0.5,0.9c0.1,0.3,0.2,0.7,0.2,1
				c0,0.5-0.1,0.9-0.2,1.2c-0.2,0.3-0.4,0.6-0.6,0.9c-0.3,0.2-0.6,0.4-0.9,0.5c-0.4,0.1-0.7,0.2-1.1,0.2h-1.3v3h-1.9V77.3z
				 M77.4,81.3c0.4,0,0.6-0.1,0.9-0.3c0.2-0.2,0.3-0.5,0.3-0.9c0-0.4-0.1-0.7-0.3-0.9c-0.2-0.2-0.5-0.3-0.9-0.3h-1.1v2.4H77.4z"/>
			<path class="st0" d="M82.5,77.3h1.9v6.9h4.1v1.7h-6.1V77.3z"/>
			<path class="st0" d="M90.3,77.3h1.9v8.6h-1.9V77.3z"/>
			<path class="st0" d="M102.3,84.3c-0.2,0.2-0.4,0.5-0.7,0.7c-0.3,0.2-0.5,0.4-0.9,0.6c-0.3,0.2-0.7,0.3-1,0.4
				c-0.4,0.1-0.7,0.1-1.1,0.1c-0.7,0-1.2-0.1-1.8-0.3c-0.5-0.2-1-0.5-1.4-0.9c-0.4-0.4-0.7-0.9-0.9-1.4c-0.2-0.5-0.3-1.1-0.3-1.8
				c0-0.6,0.1-1.2,0.3-1.8c0.2-0.6,0.5-1,0.9-1.4c0.4-0.4,0.9-0.7,1.4-1c0.5-0.2,1.1-0.4,1.8-0.4c0.8,0,1.5,0.1,2.1,0.4
				c0.6,0.3,1.1,0.7,1.5,1.3l-1.3,1.3c-0.3-0.4-0.6-0.7-0.9-0.9c-0.4-0.2-0.8-0.3-1.3-0.3c-0.4,0-0.7,0.1-1,0.2s-0.6,0.3-0.8,0.6
				c-0.2,0.2-0.4,0.5-0.5,0.9c-0.1,0.3-0.2,0.7-0.2,1c0,0.4,0.1,0.7,0.2,1.1c0.1,0.3,0.3,0.6,0.5,0.8c0.2,0.2,0.5,0.4,0.8,0.6
				c0.3,0.1,0.6,0.2,1,0.2c0.3,0,0.6,0,0.8-0.1c0.2-0.1,0.4-0.2,0.6-0.3c0.2-0.1,0.3-0.2,0.5-0.4c0.1-0.1,0.3-0.3,0.4-0.4
				L102.3,84.3z"/>
			<path class="st0" d="M106.5,77.3h2.2l3.1,8.6h-2.1l-0.7-2h-3l-0.7,2h-2L106.5,77.3z M108.6,82.4l-1-3.2l-1.1,3.2H108.6z"/>
			<path class="st0" d="M114.2,79h-2.8v-1.7h7.5V79h-2.8v6.9h-2V79z"/>
			<path class="st0" d="M120.7,77.3h5.9V79h-3.9v1.7h3.1v1.6h-3.1v1.9h4.2v1.7h-6.2V77.3z"/>
			<path class="st0" d="M128.8,77.3h3.2c0.7,0,1.3,0.1,1.8,0.3c0.6,0.2,1,0.4,1.5,0.8c0.4,0.4,0.7,0.8,1,1.4
				c0.2,0.5,0.3,1.2,0.3,1.9c0,0.7-0.1,1.3-0.3,1.9c-0.2,0.5-0.6,1-1,1.3c-0.4,0.4-0.9,0.6-1.5,0.8c-0.6,0.2-1.2,0.3-1.8,0.3h-3.2
				V77.3z M131.9,84.2c0.9,0,1.5-0.2,2-0.7c0.5-0.5,0.7-1.1,0.7-1.9c0-0.4-0.1-0.8-0.2-1.1c-0.1-0.3-0.3-0.6-0.5-0.8
				c-0.2-0.2-0.5-0.4-0.8-0.5c-0.3-0.1-0.7-0.2-1.2-0.2h-1.2v5.2H131.9z"/>
			<path class="st0" d="M138.9,85.9h-0.7v-2.1h2.1v2l-1.1,1.9h-1.1L138.9,85.9z"/>
			<path class="st0" d="M156.2,77.3h2.2l3.1,8.6h-2.1l-0.7-2h-3l-0.7,2h-2L156.2,77.3z M158.2,82.4l-1-3.2l-1.1,3.2H158.2z"/>
			<path class="st0" d="M163,77.3h1.9l3.7,5.6v-5.6h1.9v8.6h-1.8l-3.8-5.7v5.7H163V77.3z"/>
			<path class="st0" d="M172.9,77.3h3.2c0.7,0,1.3,0.1,1.8,0.3c0.6,0.2,1,0.4,1.5,0.8c0.4,0.4,0.7,0.8,1,1.4
				c0.2,0.5,0.3,1.2,0.3,1.9c0,0.7-0.1,1.3-0.3,1.9c-0.2,0.5-0.6,1-1,1.3c-0.4,0.4-0.9,0.6-1.5,0.8c-0.6,0.2-1.2,0.3-1.8,0.3h-3.2
				V77.3z M176,84.2c0.9,0,1.5-0.2,2-0.7c0.5-0.5,0.7-1.1,0.7-1.9c0-0.4-0.1-0.8-0.2-1.1c-0.1-0.3-0.3-0.6-0.5-0.8
				c-0.2-0.2-0.5-0.4-0.8-0.5c-0.3-0.1-0.7-0.2-1.2-0.2h-1.2v5.2H176z"/>
		</g>
		<g>
			<path class="st0" d="M0.7,96.6h1.9l3.7,5.6v-5.6h1.9v8.6H6.5l-3.8-5.7v5.7H0.7V96.6z"/>
			<path class="st0" d="M10.6,96.6h5.9v1.7h-3.9v1.7h3.1v1.6h-3.1v1.9h4.2v1.7h-6.2V96.6z"/>
			<path class="st0" d="M18.7,96.6h5.9v1.7h-3.9v1.7h3.1v1.6h-3.1v1.9h4.2v1.7h-6.2V96.6z"/>
			<path class="st0" d="M26.8,96.6H30c0.7,0,1.3,0.1,1.8,0.3c0.6,0.2,1,0.4,1.5,0.8c0.4,0.4,0.7,0.8,1,1.4c0.2,0.5,0.3,1.2,0.3,1.9
				c0,0.7-0.1,1.3-0.3,1.9c-0.2,0.5-0.6,1-1,1.3c-0.4,0.4-0.9,0.6-1.5,0.8c-0.6,0.2-1.2,0.3-1.8,0.3h-3.2V96.6z M29.9,103.4
				c0.9,0,1.5-0.2,2-0.7s0.7-1.1,0.7-1.9c0-0.4-0.1-0.8-0.2-1.1c-0.1-0.3-0.3-0.6-0.5-0.8c-0.2-0.2-0.5-0.4-0.8-0.5
				c-0.3-0.1-0.7-0.2-1.2-0.2h-1.2v5.2H29.9z"/>
			<path class="st0" d="M45.7,102.6c0.1,0.1,0.2,0.2,0.4,0.4c0.2,0.1,0.3,0.2,0.5,0.3c0.2,0.1,0.4,0.2,0.6,0.3
				c0.2,0.1,0.5,0.1,0.7,0.1c0.1,0,0.3,0,0.4-0.1c0.1,0,0.3-0.1,0.4-0.2c0.1-0.1,0.2-0.2,0.3-0.3c0.1-0.1,0.1-0.2,0.1-0.4
				c0-0.3-0.2-0.6-0.5-0.7c-0.3-0.2-0.8-0.3-1.5-0.5c-0.3-0.1-0.6-0.2-0.9-0.3c-0.3-0.1-0.5-0.3-0.7-0.5c-0.2-0.2-0.4-0.4-0.5-0.7
				c-0.1-0.3-0.2-0.6-0.2-0.9c0-0.4,0.1-0.7,0.2-1c0.1-0.3,0.3-0.6,0.6-0.8c0.3-0.2,0.6-0.4,1-0.6c0.4-0.1,0.9-0.2,1.4-0.2
				c0.4,0,0.8,0,1.2,0.1c0.3,0.1,0.6,0.2,0.9,0.3c0.2,0.1,0.4,0.3,0.6,0.4c0.2,0.1,0.3,0.2,0.3,0.3l-1.1,1.2
				c-0.1-0.1-0.2-0.2-0.3-0.3c-0.1-0.1-0.3-0.2-0.4-0.3c-0.2-0.1-0.3-0.1-0.5-0.2C48.5,98,48.3,98,48,98c-0.1,0-0.3,0-0.4,0.1
				c-0.1,0-0.3,0.1-0.4,0.2c-0.1,0.1-0.2,0.2-0.3,0.3c-0.1,0.1-0.1,0.2-0.1,0.3c0,0.3,0.2,0.5,0.5,0.7c0.3,0.2,0.7,0.3,1.3,0.5
				c0.3,0.1,0.6,0.2,0.9,0.3c0.3,0.1,0.6,0.3,0.8,0.5c0.2,0.2,0.4,0.5,0.6,0.8c0.1,0.3,0.2,0.7,0.2,1.1c0,0.4-0.1,0.7-0.3,1.1
				c-0.2,0.3-0.4,0.6-0.7,0.8c-0.3,0.2-0.6,0.4-1,0.6c-0.4,0.1-0.8,0.2-1.3,0.2c-0.4,0-0.8,0-1.2-0.1c-0.4-0.1-0.7-0.2-1-0.3
				c-0.3-0.1-0.5-0.3-0.8-0.5c-0.2-0.2-0.4-0.3-0.6-0.5L45.7,102.6z"/>
			<path class="st0" d="M53.3,96.6h1.9v8.6h-1.9V96.6z"/>
			<path class="st0" d="M57.8,96.6h1.8l2.2,4l2.2-4H66l0.4,8.6h-1.9l-0.2-5.6l-1.8,3.3h-1l-1.9-3.3l-0.2,5.6h-1.9L57.8,96.6z"/>
			<path class="st0" d="M68.5,96.6h3.1c0.5,0,1,0.1,1.4,0.2c0.4,0.2,0.7,0.4,0.9,0.6c0.2,0.3,0.4,0.5,0.5,0.9c0.1,0.3,0.2,0.7,0.2,1
				c0,0.5-0.1,0.9-0.2,1.2c-0.2,0.3-0.4,0.6-0.6,0.9c-0.3,0.2-0.6,0.4-0.9,0.5c-0.4,0.1-0.7,0.2-1.1,0.2h-1.3v3h-1.9V96.6z
				 M71.6,100.6c0.4,0,0.6-0.1,0.9-0.3c0.2-0.2,0.3-0.5,0.3-0.9c0-0.4-0.1-0.7-0.3-0.9c-0.2-0.2-0.5-0.3-0.9-0.3h-1.1v2.4H71.6z"/>
			<path class="st0" d="M76.6,96.6h1.9v6.9h4.1v1.7h-6.1V96.6z"/>
			<path class="st0" d="M84.5,96.6h1.9v8.6h-1.9V96.6z"/>
			<path class="st0" d="M88.7,96.6h5.8v1.7h-3.8v1.9h2.9v1.7h-2.9v3.3h-1.9V96.6z"/>
			<path class="st0" d="M96.3,96.6h1.9v8.6h-1.9V96.6z"/>
			<path class="st0" d="M108.3,103.6c-0.2,0.2-0.4,0.5-0.7,0.7c-0.3,0.2-0.5,0.4-0.9,0.6c-0.3,0.2-0.7,0.3-1,0.4
				c-0.4,0.1-0.7,0.1-1.1,0.1c-0.7,0-1.2-0.1-1.8-0.3c-0.5-0.2-1-0.5-1.4-0.9c-0.4-0.4-0.7-0.9-0.9-1.4c-0.2-0.5-0.3-1.1-0.3-1.8
				c0-0.6,0.1-1.2,0.3-1.8c0.2-0.6,0.5-1,0.9-1.4c0.4-0.4,0.9-0.7,1.4-1c0.5-0.2,1.1-0.4,1.8-0.4c0.8,0,1.5,0.1,2.1,0.4
				c0.6,0.3,1.1,0.7,1.5,1.3l-1.3,1.3c-0.3-0.4-0.6-0.7-0.9-0.9c-0.4-0.2-0.8-0.3-1.3-0.3c-0.4,0-0.7,0.1-1,0.2s-0.6,0.3-0.8,0.6
				c-0.2,0.2-0.4,0.5-0.5,0.9c-0.1,0.3-0.2,0.7-0.2,1c0,0.4,0.1,0.7,0.2,1.1c0.1,0.3,0.3,0.6,0.5,0.8c0.2,0.2,0.5,0.4,0.8,0.6
				c0.3,0.1,0.6,0.2,1,0.2c0.3,0,0.6,0,0.8-0.1c0.2-0.1,0.4-0.2,0.6-0.3c0.2-0.1,0.3-0.2,0.5-0.4c0.1-0.1,0.3-0.3,0.4-0.4
				L108.3,103.6z"/>
			<path class="st0" d="M112.5,96.6h2.2l3.1,8.6h-2.1l-0.7-2h-3l-0.7,2h-2L112.5,96.6z M114.5,101.7l-1-3.2l-1.1,3.2H114.5z"/>
			<path class="st0" d="M120.2,98.3h-2.8v-1.7h7.5v1.7h-2.8v6.9h-2V98.3z"/>
			<path class="st0" d="M126.7,96.6h1.9v8.6h-1.9V96.6z"/>
			<path class="st0" d="M135.1,105.4c-0.6,0-1.2-0.1-1.8-0.3c-0.5-0.2-1-0.5-1.4-1c-0.4-0.4-0.7-0.9-0.9-1.4
				c-0.2-0.6-0.3-1.1-0.3-1.8c0-0.6,0.1-1.2,0.3-1.8c0.2-0.5,0.5-1,0.9-1.4c0.4-0.4,0.9-0.7,1.4-1c0.5-0.2,1.1-0.3,1.8-0.3
				c0.6,0,1.2,0.1,1.8,0.3c0.5,0.2,1,0.5,1.4,1c0.4,0.4,0.7,0.9,0.9,1.4c0.2,0.5,0.3,1.1,0.3,1.8c0,0.6-0.1,1.2-0.3,1.8
				c-0.2,0.6-0.5,1-0.9,1.4c-0.4,0.4-0.9,0.7-1.4,1C136.3,105.3,135.7,105.4,135.1,105.4z M135.1,103.5c0.4,0,0.7-0.1,1-0.2
				c0.3-0.1,0.6-0.3,0.8-0.6c0.2-0.2,0.4-0.5,0.5-0.9c0.1-0.3,0.2-0.7,0.2-1c0-0.4-0.1-0.7-0.2-1c-0.1-0.3-0.3-0.6-0.5-0.9
				c-0.2-0.2-0.5-0.4-0.8-0.6s-0.6-0.2-1-0.2c-0.4,0-0.7,0.1-1,0.2c-0.3,0.1-0.6,0.3-0.8,0.6c-0.2,0.2-0.4,0.5-0.5,0.9
				c-0.1,0.3-0.2,0.7-0.2,1c0,0.4,0.1,0.7,0.2,1c0.1,0.3,0.3,0.6,0.5,0.9c0.2,0.2,0.5,0.4,0.8,0.6
				C134.4,103.5,134.7,103.5,135.1,103.5z"/>
			<path class="st0" d="M141.5,96.6h1.9l3.7,5.6v-5.6h1.9v8.6h-1.8l-3.8-5.7v5.7h-1.9V96.6z"/>
		</g>
		<g>
			<path class="st1" d="M151.3,103.1h2.1v2h-2.1V103.1z"/>
		</g>
		<g>
			<path class="st0" d="M166.3,98.3h-2.8v-1.7h7.5v1.7h-2.8v6.9h-2V98.3z"/>
			<path class="st0" d="M176.3,105.4c-0.6,0-1.2-0.1-1.8-0.3c-0.5-0.2-1-0.5-1.4-1c-0.4-0.4-0.7-0.9-0.9-1.4
				c-0.2-0.6-0.3-1.1-0.3-1.8c0-0.6,0.1-1.2,0.3-1.8c0.2-0.5,0.5-1,0.9-1.4c0.4-0.4,0.9-0.7,1.4-1c0.5-0.2,1.1-0.3,1.8-0.3
				c0.6,0,1.2,0.1,1.8,0.3c0.5,0.2,1,0.5,1.4,1c0.4,0.4,0.7,0.9,0.9,1.4c0.2,0.5,0.3,1.1,0.3,1.8c0,0.6-0.1,1.2-0.3,1.8
				c-0.2,0.6-0.5,1-0.9,1.4c-0.4,0.4-0.9,0.7-1.4,1C177.5,105.3,176.9,105.4,176.3,105.4z M176.3,103.5c0.4,0,0.7-0.1,1-0.2
				c0.3-0.1,0.6-0.3,0.8-0.6c0.2-0.2,0.4-0.5,0.5-0.9c0.1-0.3,0.2-0.7,0.2-1c0-0.4-0.1-0.7-0.2-1c-0.1-0.3-0.3-0.6-0.5-0.9
				c-0.2-0.2-0.5-0.4-0.8-0.6s-0.6-0.2-1-0.2c-0.4,0-0.7,0.1-1,0.2c-0.3,0.1-0.6,0.3-0.8,0.6c-0.2,0.2-0.4,0.5-0.5,0.9
				c-0.1,0.3-0.2,0.7-0.2,1c0,0.4,0.1,0.7,0.2,1c0.1,0.3,0.3,0.6,0.5,0.9c0.2,0.2,0.5,0.4,0.8,0.6
				C175.6,103.5,175.9,103.5,176.3,103.5z"/>
		</g>
		<g>
			<path class="st0" d="M1.4,121.9c0.1,0.1,0.2,0.2,0.4,0.4c0.2,0.1,0.3,0.2,0.5,0.3c0.2,0.1,0.4,0.2,0.6,0.3
				c0.2,0.1,0.5,0.1,0.7,0.1c0.1,0,0.3,0,0.4-0.1c0.1,0,0.3-0.1,0.4-0.2c0.1-0.1,0.2-0.2,0.3-0.3c0.1-0.1,0.1-0.2,0.1-0.4
				c0-0.3-0.2-0.6-0.5-0.7c-0.3-0.2-0.8-0.3-1.5-0.5c-0.3-0.1-0.6-0.2-0.9-0.3c-0.3-0.1-0.5-0.3-0.7-0.5c-0.2-0.2-0.4-0.4-0.5-0.7
				c-0.1-0.3-0.2-0.6-0.2-0.9c0-0.4,0.1-0.7,0.2-1c0.1-0.3,0.3-0.6,0.6-0.8c0.3-0.2,0.6-0.4,1-0.6c0.4-0.1,0.9-0.2,1.4-0.2
				c0.4,0,0.8,0,1.2,0.1c0.3,0.1,0.6,0.2,0.9,0.3c0.2,0.1,0.4,0.3,0.6,0.4c0.2,0.1,0.3,0.2,0.3,0.3L5.6,118
				c-0.1-0.1-0.2-0.2-0.3-0.3c-0.1-0.1-0.3-0.2-0.4-0.3c-0.2-0.1-0.3-0.1-0.5-0.2c-0.2-0.1-0.4-0.1-0.6-0.1c-0.1,0-0.3,0-0.4,0.1
				c-0.1,0-0.3,0.1-0.4,0.2c-0.1,0.1-0.2,0.2-0.3,0.3c-0.1,0.1-0.1,0.2-0.1,0.3c0,0.3,0.2,0.5,0.5,0.7s0.7,0.3,1.3,0.5
				c0.3,0.1,0.6,0.2,0.9,0.3c0.3,0.1,0.6,0.3,0.8,0.5c0.2,0.2,0.4,0.5,0.6,0.8c0.1,0.3,0.2,0.7,0.2,1.1c0,0.4-0.1,0.7-0.3,1.1
				c-0.2,0.3-0.4,0.6-0.7,0.8c-0.3,0.2-0.6,0.4-1,0.6c-0.4,0.1-0.8,0.2-1.3,0.2c-0.4,0-0.8,0-1.2-0.1c-0.4-0.1-0.7-0.2-1-0.3
				c-0.3-0.1-0.5-0.3-0.8-0.5c-0.2-0.2-0.4-0.3-0.6-0.5L1.4,121.9z"/>
			<path class="st0" d="M9,115.8h1.9v3.3h3.7v-3.3h1.9v8.6h-1.9v-3.5h-3.7v3.5H9V115.8z"/>
			<path class="st0" d="M18.9,115.8h5.9v1.7h-3.9v1.7h3.1v1.6h-3.1v1.9h4.2v1.7h-6.2V115.8z"/>
			<path class="st0" d="M27,115.8H29v6.9h4.1v1.7H27V115.8z"/>
			<path class="st0" d="M34.9,115.8h5.8v1.7h-3.8v1.9h2.9v1.7h-2.9v3.3h-1.9V115.8z"/>
			<path class="st0" d="M45.5,121.9c0.1,0.1,0.2,0.2,0.4,0.4c0.2,0.1,0.3,0.2,0.5,0.3c0.2,0.1,0.4,0.2,0.6,0.3s0.5,0.1,0.7,0.1
				c0.1,0,0.3,0,0.4-0.1c0.1,0,0.3-0.1,0.4-0.2c0.1-0.1,0.2-0.2,0.3-0.3c0.1-0.1,0.1-0.2,0.1-0.4c0-0.3-0.2-0.6-0.5-0.7
				c-0.3-0.2-0.8-0.3-1.5-0.5c-0.3-0.1-0.6-0.2-0.9-0.3c-0.3-0.1-0.5-0.3-0.7-0.5c-0.2-0.2-0.4-0.4-0.5-0.7
				c-0.1-0.3-0.2-0.6-0.2-0.9c0-0.4,0.1-0.7,0.2-1c0.1-0.3,0.3-0.6,0.6-0.8c0.3-0.2,0.6-0.4,1-0.6c0.4-0.1,0.9-0.2,1.4-0.2
				c0.4,0,0.8,0,1.2,0.1c0.3,0.1,0.6,0.2,0.9,0.3c0.2,0.1,0.4,0.3,0.6,0.4c0.2,0.1,0.3,0.2,0.3,0.3l-1.1,1.2
				c-0.1-0.1-0.2-0.2-0.3-0.3c-0.1-0.1-0.3-0.2-0.4-0.3c-0.2-0.1-0.3-0.1-0.5-0.2c-0.2-0.1-0.4-0.1-0.6-0.1c-0.1,0-0.3,0-0.4,0.1
				c-0.1,0-0.3,0.1-0.4,0.2c-0.1,0.1-0.2,0.2-0.3,0.3c-0.1,0.1-0.1,0.2-0.1,0.3c0,0.3,0.2,0.5,0.5,0.7c0.3,0.2,0.7,0.3,1.3,0.5
				c0.3,0.1,0.6,0.2,0.9,0.3c0.3,0.1,0.6,0.3,0.8,0.5c0.2,0.2,0.4,0.5,0.6,0.8c0.1,0.3,0.2,0.7,0.2,1.1c0,0.4-0.1,0.7-0.3,1.1
				c-0.2,0.3-0.4,0.6-0.7,0.8c-0.3,0.2-0.6,0.4-1,0.6c-0.4,0.1-0.8,0.2-1.3,0.2c-0.4,0-0.8,0-1.2-0.1c-0.4-0.1-0.7-0.2-1-0.3
				c-0.3-0.1-0.5-0.3-0.8-0.5c-0.2-0.2-0.4-0.3-0.6-0.5L45.5,121.9z"/>
			<path class="st0" d="M55,117.5h-2.8v-1.7h7.5v1.7h-2.8v6.9h-2V117.5z"/>
			<path class="st0" d="M62.5,115.8h2.2l3.1,8.6h-2.1l-0.7-2h-3l-0.7,2h-2L62.5,115.8z M64.6,120.9l-1-3.2l-1.1,3.2H64.6z"/>
			<path class="st0" d="M76.8,122.8c-0.2,0.2-0.4,0.5-0.7,0.7c-0.3,0.2-0.5,0.4-0.9,0.6c-0.3,0.2-0.7,0.3-1,0.4
				c-0.4,0.1-0.7,0.1-1.1,0.1c-0.7,0-1.2-0.1-1.8-0.3s-1-0.5-1.4-0.9c-0.4-0.4-0.7-0.9-0.9-1.4c-0.2-0.5-0.3-1.1-0.3-1.8
				c0-0.6,0.1-1.2,0.3-1.8c0.2-0.6,0.5-1,0.9-1.4c0.4-0.4,0.9-0.7,1.4-1c0.5-0.2,1.1-0.4,1.8-0.4c0.8,0,1.5,0.1,2.1,0.4
				c0.6,0.3,1.1,0.7,1.5,1.3l-1.3,1.3c-0.3-0.4-0.6-0.7-0.9-0.9c-0.4-0.2-0.8-0.3-1.3-0.3c-0.4,0-0.7,0.1-1,0.2
				c-0.3,0.1-0.6,0.3-0.8,0.6c-0.2,0.2-0.4,0.5-0.5,0.9c-0.1,0.3-0.2,0.7-0.2,1c0,0.4,0.1,0.7,0.2,1.1c0.1,0.3,0.3,0.6,0.5,0.9
				c0.2,0.2,0.5,0.4,0.8,0.6c0.3,0.1,0.6,0.2,1,0.2c0.3,0,0.6,0,0.8-0.1c0.2-0.1,0.4-0.2,0.6-0.3c0.2-0.1,0.3-0.2,0.5-0.4
				c0.1-0.1,0.3-0.3,0.4-0.4L76.8,122.8z"/>
			<path class="st0" d="M78.4,115.8h1.9v3.4l2.9-3.4h2.3l-2.9,3.3l3.3,5.2h-2.4l-2.3-3.7l-0.9,1v2.8h-1.9V115.8z"/>
			<path class="st0" d="M87.5,115.8h5.9v1.7h-3.9v1.7h3.1v1.6h-3.1v1.9h4.2v1.7h-6.2V115.8z"/>
			<path class="st0" d="M95.6,115.8h3.2c0.5,0,0.9,0.1,1.3,0.2c0.4,0.1,0.7,0.3,0.9,0.6c0.3,0.2,0.4,0.5,0.6,0.9
				c0.1,0.3,0.2,0.7,0.2,1c0,0.6-0.1,1-0.4,1.5c-0.2,0.4-0.6,0.7-1,1l1.9,3.4h-2.1l-1.6-3.2h-1.1v3.2h-1.9V115.8z M98.7,119.7
				c0.4,0,0.6-0.1,0.8-0.3c0.2-0.2,0.3-0.5,0.3-0.8c0-0.4-0.1-0.6-0.3-0.8s-0.5-0.3-0.8-0.3h-1.2v2.3H98.7z"/>
			<path class="st0" d="M104.5,121.9c0.1,0.1,0.2,0.2,0.4,0.4c0.2,0.1,0.3,0.2,0.5,0.3c0.2,0.1,0.4,0.2,0.6,0.3
				c0.2,0.1,0.5,0.1,0.7,0.1c0.1,0,0.3,0,0.4-0.1c0.1,0,0.3-0.1,0.4-0.2c0.1-0.1,0.2-0.2,0.3-0.3c0.1-0.1,0.1-0.2,0.1-0.4
				c0-0.3-0.2-0.6-0.5-0.7c-0.3-0.2-0.8-0.3-1.5-0.5c-0.3-0.1-0.6-0.2-0.9-0.3c-0.3-0.1-0.5-0.3-0.7-0.5c-0.2-0.2-0.4-0.4-0.5-0.7
				c-0.1-0.3-0.2-0.6-0.2-0.9c0-0.4,0.1-0.7,0.2-1c0.1-0.3,0.3-0.6,0.6-0.8c0.3-0.2,0.6-0.4,1-0.6c0.4-0.1,0.9-0.2,1.4-0.2
				c0.4,0,0.8,0,1.2,0.1c0.3,0.1,0.6,0.2,0.9,0.3c0.2,0.1,0.4,0.3,0.6,0.4c0.1,0.1,0.3,0.2,0.3,0.3l-1.1,1.2
				c-0.1-0.1-0.2-0.2-0.3-0.3c-0.1-0.1-0.3-0.2-0.4-0.3c-0.2-0.1-0.3-0.1-0.5-0.2c-0.2-0.1-0.4-0.1-0.6-0.1c-0.1,0-0.3,0-0.4,0.1
				c-0.1,0-0.3,0.1-0.4,0.2c-0.1,0.1-0.2,0.2-0.3,0.3c-0.1,0.1-0.1,0.2-0.1,0.3c0,0.3,0.2,0.5,0.5,0.7c0.3,0.2,0.7,0.3,1.3,0.5
				c0.3,0.1,0.6,0.2,0.9,0.3c0.3,0.1,0.6,0.3,0.8,0.5c0.2,0.2,0.4,0.5,0.6,0.8c0.1,0.3,0.2,0.7,0.2,1.1c0,0.4-0.1,0.7-0.3,1.1
				c-0.2,0.3-0.4,0.6-0.7,0.8c-0.3,0.2-0.6,0.4-1,0.6c-0.4,0.1-0.8,0.2-1.3,0.2c-0.4,0-0.8,0-1.2-0.1c-0.4-0.1-0.7-0.2-1-0.3
				c-0.3-0.1-0.5-0.3-0.8-0.5c-0.2-0.2-0.4-0.3-0.6-0.5L104.5,121.9z"/>
			<path class="st0" d="M116.9,115.8h2.2l3.1,8.6h-2.1l-0.7-2h-3l-0.7,2h-2L116.9,115.8z M119,120.9l-1-3.2l-1.1,3.2H119z"/>
			<path class="st0" d="M123.8,115.8h1.9l3.7,5.6v-5.6h1.9v8.6h-1.8l-3.8-5.7v5.7h-1.9V115.8z"/>
			<path class="st0" d="M133.6,115.8h3.2c0.7,0,1.3,0.1,1.8,0.3c0.6,0.2,1,0.4,1.5,0.8c0.4,0.4,0.7,0.8,1,1.4
				c0.2,0.5,0.3,1.2,0.3,1.9c0,0.7-0.1,1.3-0.3,1.9c-0.2,0.5-0.6,1-1,1.3c-0.4,0.4-0.9,0.6-1.5,0.8c-0.6,0.2-1.2,0.3-1.8,0.3h-3.2
				V115.8z M136.7,122.7c0.9,0,1.5-0.2,2-0.7c0.5-0.5,0.7-1.1,0.7-1.9c0-0.4-0.1-0.8-0.2-1.1c-0.1-0.3-0.3-0.6-0.5-0.8
				c-0.2-0.2-0.5-0.4-0.8-0.5c-0.3-0.1-0.7-0.2-1.2-0.2h-1.2v5.2H136.7z"/>
			<path class="st0" d="M146.5,121.9c0.1,0.1,0.2,0.2,0.4,0.4c0.2,0.1,0.3,0.2,0.5,0.3c0.2,0.1,0.4,0.2,0.6,0.3s0.5,0.1,0.7,0.1
				c0.1,0,0.3,0,0.4-0.1c0.1,0,0.3-0.1,0.4-0.2c0.1-0.1,0.2-0.2,0.3-0.3c0.1-0.1,0.1-0.2,0.1-0.4c0-0.3-0.2-0.6-0.5-0.7
				c-0.3-0.2-0.8-0.3-1.5-0.5c-0.3-0.1-0.6-0.2-0.9-0.3c-0.3-0.1-0.5-0.3-0.7-0.5c-0.2-0.2-0.4-0.4-0.5-0.7
				c-0.1-0.3-0.2-0.6-0.2-0.9c0-0.4,0.1-0.7,0.2-1c0.1-0.3,0.3-0.6,0.6-0.8c0.3-0.2,0.6-0.4,1-0.6c0.4-0.1,0.9-0.2,1.4-0.2
				c0.4,0,0.8,0,1.2,0.1c0.3,0.1,0.6,0.2,0.9,0.3c0.2,0.1,0.4,0.3,0.6,0.4c0.2,0.1,0.3,0.2,0.3,0.3l-1.1,1.2
				c-0.1-0.1-0.2-0.2-0.3-0.3c-0.1-0.1-0.3-0.2-0.4-0.3c-0.2-0.1-0.3-0.1-0.5-0.2c-0.2-0.1-0.4-0.1-0.6-0.1c-0.1,0-0.3,0-0.4,0.1
				c-0.1,0-0.3,0.1-0.4,0.2c-0.1,0.1-0.2,0.2-0.3,0.3c-0.1,0.1-0.1,0.2-0.1,0.3c0,0.3,0.2,0.5,0.5,0.7s0.7,0.3,1.3,0.5
				c0.3,0.1,0.6,0.2,0.9,0.3c0.3,0.1,0.6,0.3,0.8,0.5c0.2,0.2,0.4,0.5,0.6,0.8c0.1,0.3,0.2,0.7,0.2,1.1c0,0.4-0.1,0.7-0.3,1.1
				c-0.2,0.3-0.4,0.6-0.7,0.8c-0.3,0.2-0.6,0.4-1,0.6c-0.4,0.1-0.8,0.2-1.3,0.2c-0.4,0-0.8,0-1.2-0.1c-0.4-0.1-0.7-0.2-1-0.3
				c-0.3-0.1-0.5-0.3-0.8-0.5c-0.2-0.2-0.4-0.3-0.6-0.5L146.5,121.9z"/>
			<path class="st0" d="M154.1,115.8h1.9v3.3h3.7v-3.3h1.9v8.6h-1.9v-3.5h-3.7v3.5h-1.9V115.8z"/>
			<path class="st0" d="M168.2,124.6c-0.6,0-1.2-0.1-1.8-0.3c-0.5-0.2-1-0.5-1.4-1c-0.4-0.4-0.7-0.9-0.9-1.4
				c-0.2-0.6-0.3-1.1-0.3-1.8c0-0.6,0.1-1.2,0.3-1.8c0.2-0.5,0.5-1,0.9-1.4c0.4-0.4,0.9-0.7,1.4-1c0.5-0.2,1.1-0.3,1.8-0.3
				c0.6,0,1.2,0.1,1.8,0.3c0.5,0.2,1,0.5,1.4,1c0.4,0.4,0.7,0.9,0.9,1.4c0.2,0.5,0.3,1.1,0.3,1.8c0,0.6-0.1,1.2-0.3,1.8
				c-0.2,0.6-0.5,1-0.9,1.4c-0.4,0.4-0.9,0.7-1.4,1C169.4,124.5,168.8,124.6,168.2,124.6z M168.2,122.8c0.4,0,0.7-0.1,1-0.2
				c0.3-0.1,0.6-0.3,0.8-0.6c0.2-0.2,0.4-0.5,0.5-0.9c0.1-0.3,0.2-0.7,0.2-1c0-0.4-0.1-0.7-0.2-1c-0.1-0.3-0.3-0.6-0.5-0.9
				c-0.2-0.2-0.5-0.4-0.8-0.6s-0.6-0.2-1-0.2c-0.4,0-0.7,0.1-1,0.2c-0.3,0.1-0.6,0.3-0.8,0.6c-0.2,0.2-0.4,0.5-0.5,0.9
				c-0.1,0.3-0.2,0.7-0.2,1c0,0.4,0.1,0.7,0.2,1c0.1,0.3,0.3,0.6,0.5,0.9c0.2,0.2,0.5,0.4,0.8,0.6
				C167.5,122.7,167.8,122.8,168.2,122.8z"/>
			<path class="st0" d="M174.6,115.8h3.1c0.5,0,1,0.1,1.4,0.2c0.4,0.2,0.7,0.4,0.9,0.6c0.2,0.3,0.4,0.5,0.5,0.9
				c0.1,0.3,0.2,0.7,0.2,1c0,0.5-0.1,0.9-0.2,1.2c-0.2,0.3-0.4,0.6-0.6,0.9c-0.3,0.2-0.6,0.4-0.9,0.5c-0.4,0.1-0.7,0.2-1.1,0.2h-1.3
				v3h-1.9V115.8z M177.7,119.8c0.4,0,0.6-0.1,0.9-0.3c0.2-0.2,0.3-0.5,0.3-0.9c0-0.4-0.1-0.7-0.3-0.9c-0.2-0.2-0.5-0.3-0.9-0.3
				h-1.1v2.4H177.7z"/>
		</g>
		<g>
			<g>
				<path class="st0" d="M3.2,135.1h2.2l3.1,8.6H6.4l-0.7-2h-3l-0.7,2H0L3.2,135.1z M5.3,140.2l-1-3.2l-1.1,3.2H5.3z"/>
				<path class="st0" d="M10.7,141.1c0.1,0.1,0.2,0.2,0.4,0.4c0.2,0.1,0.3,0.2,0.5,0.3c0.2,0.1,0.4,0.2,0.6,0.3
					c0.2,0.1,0.5,0.1,0.7,0.1c0.1,0,0.3,0,0.4-0.1c0.1,0,0.3-0.1,0.4-0.2c0.1-0.1,0.2-0.2,0.3-0.3c0.1-0.1,0.1-0.2,0.1-0.4
					c0-0.3-0.2-0.6-0.5-0.7c-0.3-0.2-0.8-0.3-1.5-0.5c-0.3-0.1-0.6-0.2-0.9-0.3c-0.3-0.1-0.5-0.3-0.7-0.5c-0.2-0.2-0.4-0.4-0.5-0.7
					c-0.1-0.3-0.2-0.6-0.2-0.9c0-0.4,0.1-0.7,0.2-1c0.1-0.3,0.3-0.6,0.6-0.8c0.3-0.2,0.6-0.4,1-0.6c0.4-0.1,0.9-0.2,1.4-0.2
					c0.4,0,0.8,0,1.2,0.1c0.3,0.1,0.6,0.2,0.9,0.3c0.2,0.1,0.4,0.3,0.6,0.4c0.2,0.1,0.3,0.2,0.3,0.3l-1.1,1.2
					c-0.1-0.1-0.2-0.2-0.3-0.3c-0.1-0.1-0.3-0.2-0.4-0.3c-0.2-0.1-0.3-0.1-0.5-0.2c-0.2-0.1-0.4-0.1-0.6-0.1c-0.1,0-0.3,0-0.4,0.1
					c-0.1,0-0.3,0.1-0.4,0.2c-0.1,0.1-0.2,0.2-0.3,0.3c-0.1,0.1-0.1,0.2-0.1,0.3c0,0.3,0.2,0.5,0.5,0.7c0.3,0.2,0.7,0.3,1.3,0.5
					c0.3,0.1,0.6,0.2,0.9,0.3c0.3,0.1,0.6,0.3,0.8,0.5c0.2,0.2,0.4,0.5,0.6,0.8c0.1,0.3,0.2,0.7,0.2,1.1c0,0.4-0.1,0.7-0.3,1.1
					c-0.2,0.3-0.4,0.6-0.7,0.8c-0.3,0.2-0.6,0.4-1,0.6c-0.4,0.1-0.8,0.2-1.3,0.2c-0.4,0-0.8,0-1.2-0.1c-0.4-0.1-0.7-0.2-1-0.3
					c-0.3-0.1-0.5-0.3-0.8-0.5c-0.2-0.2-0.4-0.3-0.6-0.5L10.7,141.1z"/>
				<path class="st0" d="M18.9,141.1c0.1,0.1,0.2,0.2,0.4,0.4c0.2,0.1,0.3,0.2,0.5,0.3c0.2,0.1,0.4,0.2,0.6,0.3s0.5,0.1,0.7,0.1
					c0.1,0,0.3,0,0.4-0.1c0.1,0,0.3-0.1,0.4-0.2c0.1-0.1,0.2-0.2,0.3-0.3c0.1-0.1,0.1-0.2,0.1-0.4c0-0.3-0.2-0.6-0.5-0.7
					c-0.3-0.2-0.8-0.3-1.5-0.5c-0.3-0.1-0.6-0.2-0.9-0.3c-0.3-0.1-0.5-0.3-0.7-0.5c-0.2-0.2-0.4-0.4-0.5-0.7
					c-0.1-0.3-0.2-0.6-0.2-0.9c0-0.4,0.1-0.7,0.2-1c0.1-0.3,0.3-0.6,0.6-0.8c0.3-0.2,0.6-0.4,1-0.6c0.4-0.1,0.9-0.2,1.4-0.2
					c0.4,0,0.8,0,1.2,0.1c0.3,0.1,0.6,0.2,0.9,0.3c0.2,0.1,0.4,0.3,0.6,0.4c0.2,0.1,0.3,0.2,0.3,0.3l-1.1,1.2
					c-0.1-0.1-0.2-0.2-0.3-0.3c-0.1-0.1-0.3-0.2-0.4-0.3c-0.2-0.1-0.3-0.1-0.5-0.2c-0.2-0.1-0.4-0.1-0.6-0.1c-0.1,0-0.3,0-0.4,0.1
					c-0.1,0-0.3,0.1-0.4,0.2c-0.1,0.1-0.2,0.2-0.3,0.3c-0.1,0.1-0.1,0.2-0.1,0.3c0,0.3,0.2,0.5,0.5,0.7c0.3,0.2,0.7,0.3,1.3,0.5
					c0.3,0.1,0.6,0.2,0.9,0.3c0.3,0.1,0.6,0.3,0.8,0.5c0.2,0.2,0.4,0.5,0.6,0.8c0.1,0.3,0.2,0.7,0.2,1.1c0,0.4-0.1,0.7-0.3,1.1
					c-0.2,0.3-0.4,0.6-0.7,0.8c-0.3,0.2-0.6,0.4-1,0.6c-0.4,0.1-0.8,0.2-1.3,0.2c-0.4,0-0.8,0-1.2-0.1c-0.4-0.1-0.7-0.2-1-0.3
					c-0.3-0.1-0.5-0.3-0.8-0.5c-0.2-0.2-0.4-0.3-0.6-0.5L18.9,141.1z"/>
				<path class="st0" d="M26.5,135.1h1.9v8.6h-1.9V135.1z"/>
				<path class="st0" d="M31.4,141.1c0.1,0.1,0.2,0.2,0.4,0.4c0.2,0.1,0.3,0.2,0.5,0.3c0.2,0.1,0.4,0.2,0.6,0.3s0.5,0.1,0.7,0.1
					c0.1,0,0.3,0,0.4-0.1c0.1,0,0.3-0.1,0.4-0.2c0.1-0.1,0.2-0.2,0.3-0.3c0.1-0.1,0.1-0.2,0.1-0.4c0-0.3-0.2-0.6-0.5-0.7
					c-0.3-0.2-0.8-0.3-1.5-0.5c-0.3-0.1-0.6-0.2-0.9-0.3c-0.3-0.1-0.5-0.3-0.7-0.5c-0.2-0.2-0.4-0.4-0.5-0.7
					c-0.1-0.3-0.2-0.6-0.2-0.9c0-0.4,0.1-0.7,0.2-1c0.1-0.3,0.3-0.6,0.6-0.8c0.3-0.2,0.6-0.4,1-0.6c0.4-0.1,0.9-0.2,1.4-0.2
					c0.4,0,0.8,0,1.2,0.1c0.3,0.1,0.6,0.2,0.9,0.3c0.2,0.1,0.4,0.3,0.6,0.4c0.2,0.1,0.3,0.2,0.3,0.3l-1.1,1.2
					c-0.1-0.1-0.2-0.2-0.3-0.3c-0.1-0.1-0.3-0.2-0.4-0.3c-0.2-0.1-0.3-0.1-0.5-0.2c-0.2-0.1-0.4-0.1-0.6-0.1c-0.1,0-0.3,0-0.4,0.1
					c-0.1,0-0.3,0.1-0.4,0.2c-0.1,0.1-0.2,0.2-0.3,0.3c-0.1,0.1-0.1,0.2-0.1,0.3c0,0.3,0.2,0.5,0.5,0.7c0.3,0.2,0.7,0.3,1.3,0.5
					c0.3,0.1,0.6,0.2,0.9,0.3c0.3,0.1,0.6,0.3,0.8,0.5c0.2,0.2,0.4,0.5,0.6,0.8c0.1,0.3,0.2,0.7,0.2,1.1c0,0.4-0.1,0.7-0.3,1.1
					c-0.2,0.3-0.4,0.6-0.7,0.8c-0.3,0.2-0.6,0.4-1,0.6c-0.4,0.1-0.8,0.2-1.3,0.2c-0.4,0-0.8,0-1.2-0.1c-0.4-0.1-0.7-0.2-1-0.3
					c-0.3-0.1-0.5-0.3-0.8-0.5c-0.2-0.2-0.4-0.3-0.6-0.5L31.4,141.1z"/>
				<path class="st0" d="M40.9,136.8h-2.8v-1.7h7.5v1.7h-2.8v6.9h-2V136.8z"/>
				<path class="st0" d="M48.4,135.1h2.2l3.1,8.6h-2.1l-0.7-2h-3l-0.7,2h-2L48.4,135.1z M50.5,140.2l-1-3.2l-1.1,3.2H50.5z"/>
				<path class="st0" d="M55.3,135.1h1.9l3.7,5.6v-5.6h1.9v8.6H61l-3.8-5.7v5.7h-1.9V135.1z"/>
				<path class="st0" d="M67.3,136.8h-2.8v-1.7H72v1.7h-2.8v6.9h-2V136.8z"/>
				<path class="st0" d="M74.2,141.1c0.1,0.1,0.2,0.2,0.4,0.4c0.2,0.1,0.3,0.2,0.5,0.3c0.2,0.1,0.4,0.2,0.6,0.3
					c0.2,0.1,0.5,0.1,0.7,0.1c0.1,0,0.3,0,0.4-0.1c0.1,0,0.3-0.1,0.4-0.2c0.1-0.1,0.2-0.2,0.3-0.3c0.1-0.1,0.1-0.2,0.1-0.4
					c0-0.3-0.2-0.6-0.5-0.7c-0.3-0.2-0.8-0.3-1.5-0.5c-0.3-0.1-0.6-0.2-0.9-0.3c-0.3-0.1-0.5-0.3-0.7-0.5c-0.2-0.2-0.4-0.4-0.5-0.7
					c-0.1-0.3-0.2-0.6-0.2-0.9c0-0.4,0.1-0.7,0.2-1c0.1-0.3,0.3-0.6,0.6-0.8c0.3-0.2,0.6-0.4,1-0.6c0.4-0.1,0.9-0.2,1.4-0.2
					c0.4,0,0.8,0,1.2,0.1c0.3,0.1,0.6,0.2,0.9,0.3c0.2,0.1,0.4,0.3,0.6,0.4c0.2,0.1,0.3,0.2,0.3,0.3l-1.1,1.2
					c-0.1-0.1-0.2-0.2-0.3-0.3c-0.1-0.1-0.3-0.2-0.4-0.3c-0.2-0.1-0.3-0.1-0.5-0.2c-0.2-0.1-0.4-0.1-0.6-0.1c-0.1,0-0.3,0-0.4,0.1
					c-0.1,0-0.3,0.1-0.4,0.2c-0.1,0.1-0.2,0.2-0.3,0.3c-0.1,0.1-0.1,0.2-0.1,0.3c0,0.3,0.2,0.5,0.5,0.7c0.3,0.2,0.7,0.3,1.3,0.5
					c0.3,0.1,0.6,0.2,0.9,0.3c0.3,0.1,0.6,0.3,0.8,0.5c0.2,0.2,0.4,0.5,0.6,0.8c0.1,0.3,0.2,0.7,0.2,1.1c0,0.4-0.1,0.7-0.3,1.1
					c-0.2,0.3-0.4,0.6-0.7,0.8c-0.3,0.2-0.6,0.4-1,0.6c-0.4,0.1-0.8,0.2-1.3,0.2c-0.4,0-0.8,0-1.2-0.1c-0.4-0.1-0.7-0.2-1-0.3
					c-0.3-0.1-0.5-0.3-0.8-0.5c-0.2-0.2-0.4-0.3-0.6-0.5L74.2,141.1z"/>
				<path class="st0" d="M82.4,143.7h-0.7v-2.1h2.1v2l-1.1,1.9h-1.1L82.4,143.7z"/>
				<path class="st0" d="M110.4,142.1c-0.2,0.2-0.4,0.5-0.7,0.7c-0.3,0.2-0.5,0.4-0.9,0.6c-0.3,0.2-0.7,0.3-1,0.4
					c-0.4,0.1-0.7,0.1-1.1,0.1c-0.7,0-1.2-0.1-1.8-0.3c-0.5-0.2-1-0.5-1.4-0.9c-0.4-0.4-0.7-0.9-0.9-1.4c-0.2-0.5-0.3-1.1-0.3-1.8
					c0-0.6,0.1-1.2,0.3-1.8c0.2-0.6,0.5-1,0.9-1.4c0.4-0.4,0.9-0.7,1.4-1c0.5-0.2,1.1-0.4,1.8-0.4c0.8,0,1.5,0.1,2.1,0.4
					c0.6,0.3,1.1,0.7,1.5,1.3l-1.3,1.3c-0.3-0.4-0.6-0.7-0.9-0.9c-0.4-0.2-0.8-0.3-1.3-0.3c-0.4,0-0.7,0.1-1,0.2
					c-0.3,0.1-0.6,0.3-0.8,0.6c-0.2,0.2-0.4,0.5-0.5,0.9c-0.1,0.3-0.2,0.7-0.2,1c0,0.4,0.1,0.7,0.2,1.1c0.1,0.3,0.3,0.6,0.5,0.9
					c0.2,0.2,0.5,0.4,0.8,0.6c0.3,0.1,0.6,0.2,1,0.2c0.3,0,0.6,0,0.8-0.1c0.2-0.1,0.4-0.2,0.6-0.3c0.2-0.1,0.3-0.2,0.5-0.4
					c0.1-0.1,0.3-0.3,0.4-0.4L110.4,142.1z"/>
				<path class="st0" d="M116,143.9c-0.6,0-1.2-0.1-1.8-0.3c-0.5-0.2-1-0.5-1.4-1c-0.4-0.4-0.7-0.9-0.9-1.4
					c-0.2-0.6-0.3-1.1-0.3-1.8c0-0.6,0.1-1.2,0.3-1.8c0.2-0.5,0.5-1,0.9-1.4c0.4-0.4,0.9-0.7,1.4-1c0.5-0.2,1.1-0.3,1.8-0.3
					c0.6,0,1.2,0.1,1.8,0.3c0.5,0.2,1,0.5,1.4,1c0.4,0.4,0.7,0.9,0.9,1.4c0.2,0.5,0.3,1.1,0.3,1.8c0,0.6-0.1,1.2-0.3,1.8
					c-0.2,0.6-0.5,1-0.9,1.4c-0.4,0.4-0.9,0.7-1.4,1C117.2,143.8,116.6,143.9,116,143.9z M116,142.1c0.4,0,0.7-0.1,1-0.2
					c0.3-0.1,0.6-0.3,0.8-0.6c0.2-0.2,0.4-0.5,0.5-0.9c0.1-0.3,0.2-0.7,0.2-1c0-0.4-0.1-0.7-0.2-1c-0.1-0.3-0.3-0.6-0.5-0.9
					c-0.2-0.2-0.5-0.4-0.8-0.6c-0.3-0.1-0.6-0.2-1-0.2s-0.7,0.1-1,0.2c-0.3,0.1-0.6,0.3-0.8,0.6c-0.2,0.2-0.4,0.5-0.5,0.9
					c-0.1,0.3-0.2,0.7-0.2,1c0,0.4,0.1,0.7,0.2,1c0.1,0.3,0.3,0.6,0.5,0.9c0.2,0.2,0.5,0.4,0.8,0.6C115.3,142,115.6,142.1,116,142.1
					z"/>
				<path class="st0" d="M122.4,135.1h3.2c0.5,0,0.9,0.1,1.3,0.2c0.4,0.1,0.7,0.3,0.9,0.6c0.3,0.2,0.4,0.5,0.6,0.9
					c0.1,0.3,0.2,0.7,0.2,1c0,0.6-0.1,1-0.4,1.5c-0.2,0.4-0.6,0.7-1,1l1.9,3.4H127l-1.6-3.2h-1.1v3.2h-1.9V135.1z M125.5,139
					c0.4,0,0.6-0.1,0.8-0.3c0.2-0.2,0.3-0.5,0.3-0.8c0-0.4-0.1-0.6-0.3-0.8s-0.5-0.3-0.8-0.3h-1.2v2.3H125.5z"/>
				<path class="st0" d="M130.9,135.1h3.1c0.5,0,1,0.1,1.4,0.2c0.4,0.2,0.7,0.4,0.9,0.6c0.2,0.3,0.4,0.5,0.5,0.9
					c0.1,0.3,0.2,0.7,0.2,1c0,0.5-0.1,0.9-0.2,1.2c-0.2,0.3-0.4,0.6-0.6,0.9c-0.3,0.2-0.6,0.4-0.9,0.5c-0.4,0.1-0.7,0.2-1.1,0.2
					h-1.3v3h-1.9V135.1z M133.9,139.1c0.4,0,0.6-0.1,0.9-0.3c0.2-0.2,0.3-0.5,0.3-0.9c0-0.4-0.1-0.7-0.3-0.9
					c-0.2-0.2-0.5-0.3-0.9-0.3h-1.1v2.4H133.9z"/>
				<path class="st0" d="M143.1,143.9c-0.6,0-1.2-0.1-1.8-0.3c-0.5-0.2-1-0.5-1.4-1c-0.4-0.4-0.7-0.9-0.9-1.4
					c-0.2-0.6-0.3-1.1-0.3-1.8c0-0.6,0.1-1.2,0.3-1.8c0.2-0.5,0.5-1,0.9-1.4c0.4-0.4,0.9-0.7,1.4-1c0.5-0.2,1.1-0.3,1.8-0.3
					c0.6,0,1.2,0.1,1.8,0.3c0.5,0.2,1,0.5,1.4,1c0.4,0.4,0.7,0.9,0.9,1.4c0.2,0.5,0.3,1.1,0.3,1.8c0,0.6-0.1,1.2-0.3,1.8
					c-0.2,0.6-0.5,1-0.9,1.4c-0.4,0.4-0.9,0.7-1.4,1C144.3,143.8,143.7,143.9,143.1,143.9z M143.1,142.1c0.4,0,0.7-0.1,1-0.2
					c0.3-0.1,0.6-0.3,0.8-0.6c0.2-0.2,0.4-0.5,0.5-0.9c0.1-0.3,0.2-0.7,0.2-1c0-0.4-0.1-0.7-0.2-1c-0.1-0.3-0.3-0.6-0.5-0.9
					c-0.2-0.2-0.5-0.4-0.8-0.6c-0.3-0.1-0.6-0.2-1-0.2c-0.4,0-0.7,0.1-1,0.2c-0.3,0.1-0.6,0.3-0.8,0.6c-0.2,0.2-0.4,0.5-0.5,0.9
					c-0.1,0.3-0.2,0.7-0.2,1c0,0.4,0.1,0.7,0.2,1c0.1,0.3,0.3,0.6,0.5,0.9c0.2,0.2,0.5,0.4,0.8,0.6
					C142.4,142,142.7,142.1,143.1,142.1z"/>
				<path class="st0" d="M149.6,135.1h3.2c0.5,0,0.9,0.1,1.3,0.2c0.4,0.1,0.7,0.3,0.9,0.6c0.3,0.2,0.4,0.5,0.6,0.9
					c0.1,0.3,0.2,0.7,0.2,1c0,0.6-0.1,1-0.4,1.5c-0.2,0.4-0.6,0.7-1,1l1.9,3.4h-2.1l-1.6-3.2h-1.1v3.2h-1.9V135.1z M152.6,139
					c0.4,0,0.6-0.1,0.8-0.3c0.2-0.2,0.3-0.5,0.3-0.8c0-0.4-0.1-0.6-0.3-0.8c-0.2-0.2-0.5-0.3-0.8-0.3h-1.2v2.3H152.6z"/>
				<path class="st0" d="M160.5,135.1h2.2l3.1,8.6h-2.1l-0.7-2h-3l-0.7,2h-2L160.5,135.1z M162.5,140.2l-1-3.2l-1.1,3.2H162.5z"/>
				<path class="st0" d="M168.2,136.8h-2.8v-1.7h7.5v1.7h-2.8v6.9h-2V136.8z"/>
				<path class="st0" d="M174.7,135.1h5.9v1.7h-3.9v1.7h3.1v1.6h-3.1v1.9h4.2v1.7h-6.2V135.1z"/>
			</g>
			<g>
				<path class="st0" d="M0.7,154.4H4c0.7,0,1.3,0.1,1.8,0.3c0.6,0.2,1,0.4,1.5,0.8c0.4,0.4,0.7,0.8,1,1.4c0.2,0.5,0.3,1.2,0.3,1.9
					c0,0.7-0.1,1.3-0.3,1.9c-0.2,0.5-0.6,1-1,1.3c-0.4,0.4-0.9,0.6-1.5,0.8c-0.6,0.2-1.2,0.3-1.8,0.3H0.7V154.4z M3.9,161.2
					c0.9,0,1.5-0.2,2-0.7c0.5-0.5,0.7-1.1,0.7-1.9c0-0.4-0.1-0.8-0.2-1.1c-0.1-0.3-0.3-0.6-0.5-0.8c-0.2-0.2-0.5-0.4-0.8-0.5
					c-0.3-0.1-0.7-0.2-1.2-0.2H2.7v5.2H3.9z"/>
				<path class="st0" d="M10.6,154.4h1.9v8.6h-1.9V154.4z"/>
				<path class="st0" d="M14.9,154.4h3.2c0.5,0,0.9,0.1,1.3,0.2c0.4,0.1,0.7,0.3,0.9,0.6c0.3,0.2,0.4,0.5,0.6,0.9
					c0.1,0.3,0.2,0.7,0.2,1c0,0.6-0.1,1-0.4,1.5c-0.2,0.4-0.6,0.7-1,1l1.9,3.4h-2.1l-1.6-3.2h-1.1v3.2h-1.9V154.4z M18,158.2
					c0.4,0,0.6-0.1,0.8-0.3c0.2-0.2,0.3-0.5,0.3-0.8c0-0.4-0.1-0.6-0.3-0.8S18.3,156,18,156h-1.2v2.3H18z"/>
				<path class="st0" d="M23.3,154.4h5.9v1.7h-3.9v1.7h3.1v1.6h-3.1v1.9h4.2v1.7h-6.2V154.4z"/>
				<path class="st0" d="M38.8,161.4c-0.2,0.2-0.4,0.5-0.7,0.7c-0.3,0.2-0.5,0.4-0.9,0.6c-0.3,0.2-0.7,0.3-1,0.4
					c-0.4,0.1-0.7,0.1-1.1,0.1c-0.7,0-1.2-0.1-1.8-0.3c-0.5-0.2-1-0.5-1.4-0.9c-0.4-0.4-0.7-0.9-0.9-1.4c-0.2-0.5-0.3-1.1-0.3-1.8
					c0-0.6,0.1-1.2,0.3-1.8c0.2-0.6,0.5-1,0.9-1.4c0.4-0.4,0.9-0.7,1.4-1c0.5-0.2,1.1-0.4,1.8-0.4c0.8,0,1.5,0.1,2.1,0.4
					c0.6,0.3,1.1,0.7,1.5,1.3l-1.3,1.3c-0.3-0.4-0.6-0.7-0.9-0.9c-0.4-0.2-0.8-0.3-1.3-0.3c-0.4,0-0.7,0.1-1,0.2
					c-0.3,0.1-0.6,0.3-0.8,0.6c-0.2,0.2-0.4,0.5-0.5,0.9c-0.1,0.3-0.2,0.7-0.2,1c0,0.4,0.1,0.7,0.2,1.1c0.1,0.3,0.3,0.6,0.5,0.9
					c0.2,0.2,0.5,0.4,0.8,0.6c0.3,0.1,0.6,0.2,1,0.2c0.3,0,0.6,0,0.8-0.1c0.2-0.1,0.4-0.2,0.6-0.3c0.2-0.1,0.3-0.2,0.5-0.4
					c0.1-0.1,0.3-0.3,0.4-0.4L38.8,161.4z"/>
				<path class="st0" d="M42.8,156.1H40v-1.7h7.5v1.7h-2.8v6.9h-2V156.1z"/>
				<path class="st0" d="M52.8,163.2c-0.6,0-1.2-0.1-1.8-0.3c-0.5-0.2-1-0.5-1.4-1c-0.4-0.4-0.7-0.9-0.9-1.4
					c-0.2-0.6-0.3-1.1-0.3-1.8c0-0.6,0.1-1.2,0.3-1.8c0.2-0.5,0.5-1,0.9-1.4c0.4-0.4,0.9-0.7,1.4-1c0.5-0.2,1.1-0.3,1.8-0.3
					c0.6,0,1.2,0.1,1.8,0.3c0.5,0.2,1,0.5,1.4,1c0.4,0.4,0.7,0.9,0.9,1.4c0.2,0.5,0.3,1.1,0.3,1.8c0,0.6-0.1,1.2-0.3,1.8
					c-0.2,0.6-0.5,1-0.9,1.4c-0.4,0.4-0.9,0.7-1.4,1C54.1,163.1,53.5,163.2,52.8,163.2z M52.8,161.3c0.4,0,0.7-0.1,1-0.2
					c0.3-0.1,0.6-0.3,0.8-0.6c0.2-0.2,0.4-0.5,0.5-0.9c0.1-0.3,0.2-0.7,0.2-1c0-0.4-0.1-0.7-0.2-1c-0.1-0.3-0.3-0.6-0.5-0.9
					c-0.2-0.2-0.5-0.4-0.8-0.6c-0.3-0.1-0.6-0.2-1-0.2c-0.4,0-0.7,0.1-1,0.2c-0.3,0.1-0.6,0.3-0.8,0.6c-0.2,0.2-0.4,0.5-0.5,0.9
					c-0.1,0.3-0.2,0.7-0.2,1c0,0.4,0.1,0.7,0.2,1c0.1,0.3,0.3,0.6,0.5,0.9c0.2,0.2,0.5,0.4,0.8,0.6
					C52.1,161.3,52.4,161.3,52.8,161.3z"/>
				<path class="st0" d="M59.3,154.4h3.2c0.5,0,0.9,0.1,1.3,0.2c0.4,0.1,0.7,0.3,0.9,0.6c0.3,0.2,0.4,0.5,0.6,0.9
					c0.1,0.3,0.2,0.7,0.2,1c0,0.6-0.1,1-0.4,1.5c-0.2,0.4-0.6,0.7-1,1l1.9,3.4h-2.1l-1.6-3.2h-1.1v3.2h-1.9V154.4z M62.4,158.2
					c0.4,0,0.6-0.1,0.8-0.3c0.2-0.2,0.3-0.5,0.3-0.8c0-0.4-0.1-0.6-0.3-0.8c-0.2-0.2-0.5-0.3-0.8-0.3h-1.2v2.3H62.4z"/>
				<path class="st0" d="M68.2,160.4c0.1,0.1,0.2,0.2,0.4,0.4c0.2,0.1,0.3,0.2,0.5,0.3c0.2,0.1,0.4,0.2,0.6,0.3s0.5,0.1,0.7,0.1
					c0.1,0,0.3,0,0.4-0.1c0.1,0,0.3-0.1,0.4-0.2c0.1-0.1,0.2-0.2,0.3-0.3c0.1-0.1,0.1-0.2,0.1-0.4c0-0.3-0.2-0.6-0.5-0.7
					c-0.3-0.2-0.8-0.3-1.5-0.5c-0.3-0.1-0.6-0.2-0.9-0.3c-0.3-0.1-0.5-0.3-0.7-0.5c-0.2-0.2-0.4-0.4-0.5-0.7
					c-0.1-0.3-0.2-0.6-0.2-0.9c0-0.4,0.1-0.7,0.2-1c0.1-0.3,0.3-0.6,0.6-0.8c0.3-0.2,0.6-0.4,1-0.6c0.4-0.1,0.9-0.2,1.4-0.2
					c0.4,0,0.8,0,1.2,0.1c0.3,0.1,0.6,0.2,0.9,0.3c0.2,0.1,0.4,0.3,0.6,0.4c0.2,0.1,0.3,0.2,0.3,0.3l-1.1,1.2
					c-0.1-0.1-0.2-0.2-0.3-0.3c-0.1-0.1-0.3-0.2-0.4-0.3c-0.2-0.1-0.3-0.1-0.5-0.2c-0.2-0.1-0.4-0.1-0.6-0.1c-0.1,0-0.3,0-0.4,0.1
					c-0.1,0-0.3,0.1-0.4,0.2c-0.1,0.1-0.2,0.2-0.3,0.3c-0.1,0.1-0.1,0.2-0.1,0.3c0,0.3,0.2,0.5,0.5,0.7c0.3,0.2,0.7,0.3,1.3,0.5
					c0.3,0.1,0.6,0.2,0.9,0.3c0.3,0.1,0.6,0.3,0.8,0.5c0.2,0.2,0.4,0.5,0.6,0.8c0.1,0.3,0.2,0.7,0.2,1.1c0,0.4-0.1,0.7-0.3,1.1
					c-0.2,0.3-0.4,0.6-0.7,0.8c-0.3,0.2-0.6,0.4-1,0.6c-0.4,0.1-0.8,0.2-1.3,0.2c-0.4,0-0.8,0-1.2-0.1c-0.4-0.1-0.7-0.2-1-0.3
					c-0.3-0.1-0.5-0.3-0.8-0.5c-0.2-0.2-0.4-0.3-0.6-0.5L68.2,160.4z"/>
				<path class="st0" d="M96.5,154.4h2.2l3.1,8.6h-2.1l-0.7-2h-3l-0.7,2h-2L96.5,154.4z M98.5,159.5l-1-3.2l-1.1,3.2H98.5z"/>
				<path class="st0" d="M103.4,154.4h1.9l3.7,5.6v-5.6h1.9v8.6h-1.8l-3.8-5.7v5.7h-1.9V154.4z"/>
				<path class="st0" d="M113.2,154.4h3.2c0.7,0,1.3,0.1,1.8,0.3c0.6,0.2,1,0.4,1.5,0.8c0.4,0.4,0.7,0.8,1,1.4
					c0.2,0.5,0.3,1.2,0.3,1.9c0,0.7-0.1,1.3-0.3,1.9c-0.2,0.5-0.6,1-1,1.3c-0.4,0.4-0.9,0.6-1.5,0.8c-0.6,0.2-1.2,0.3-1.8,0.3h-3.2
					V154.4z M116.3,161.2c0.9,0,1.5-0.2,2-0.7c0.5-0.5,0.7-1.1,0.7-1.9c0-0.4-0.1-0.8-0.2-1.1c-0.1-0.3-0.3-0.6-0.5-0.8
					c-0.2-0.2-0.5-0.4-0.8-0.5c-0.3-0.1-0.7-0.2-1.2-0.2h-1.2v5.2H116.3z"/>
				<path class="st0" d="M149.1,161.4c-0.2,0.2-0.4,0.5-0.7,0.7c-0.3,0.2-0.5,0.4-0.9,0.6c-0.3,0.2-0.7,0.3-1,0.4
					c-0.4,0.1-0.7,0.1-1.1,0.1c-0.7,0-1.2-0.1-1.8-0.3c-0.5-0.2-1-0.5-1.4-0.9c-0.4-0.4-0.7-0.9-0.9-1.4c-0.2-0.5-0.3-1.1-0.3-1.8
					c0-0.6,0.1-1.2,0.3-1.8c0.2-0.6,0.5-1,0.9-1.4c0.4-0.4,0.9-0.7,1.4-1c0.5-0.2,1.1-0.4,1.8-0.4c0.8,0,1.5,0.1,2.1,0.4
					c0.6,0.3,1.1,0.7,1.5,1.3l-1.3,1.3c-0.3-0.4-0.6-0.7-0.9-0.9c-0.4-0.2-0.8-0.3-1.3-0.3c-0.4,0-0.7,0.1-1,0.2
					c-0.3,0.1-0.6,0.3-0.8,0.6c-0.2,0.2-0.4,0.5-0.5,0.9c-0.1,0.3-0.2,0.7-0.2,1c0,0.4,0.1,0.7,0.2,1.1c0.1,0.3,0.3,0.6,0.5,0.9
					c0.2,0.2,0.5,0.4,0.8,0.6c0.3,0.1,0.6,0.2,1,0.2c0.3,0,0.6,0,0.8-0.1c0.2-0.1,0.4-0.2,0.6-0.3c0.2-0.1,0.3-0.2,0.5-0.4
					c0.1-0.1,0.3-0.3,0.4-0.4L149.1,161.4z"/>
				<path class="st0" d="M150.7,154.4h1.9v3.3h3.7v-3.3h1.9v8.6h-1.9v-3.5h-3.7v3.5h-1.9V154.4z"/>
				<path class="st0" d="M163.1,154.4h2.2l3.1,8.6h-2.1l-0.7-2h-3l-0.7,2h-2L163.1,154.4z M165.2,159.5l-1-3.2l-1.1,3.2H165.2z"/>
				<path class="st0" d="M170,154.4h1.9v8.6H170V154.4z"/>
				<path class="st0" d="M174.2,154.4h3.2c0.5,0,0.9,0.1,1.3,0.2c0.4,0.1,0.7,0.3,0.9,0.6c0.3,0.2,0.4,0.5,0.6,0.9
					c0.1,0.3,0.2,0.7,0.2,1c0,0.6-0.1,1-0.4,1.5c-0.2,0.4-0.6,0.7-1,1l1.9,3.4h-2.1l-1.6-3.2h-1.1v3.2h-1.9V154.4z M177.3,158.2
					c0.4,0,0.6-0.1,0.8-0.3c0.2-0.2,0.3-0.5,0.3-0.8c0-0.4-0.1-0.6-0.3-0.8c-0.2-0.2-0.5-0.3-0.8-0.3h-1.2v2.3H177.3z"/>
			</g>
		</g>
		<g>
			<path class="st0" d="M0.7,173.6h3.1c0.5,0,1,0.1,1.4,0.2c0.4,0.2,0.7,0.4,0.9,0.6c0.2,0.3,0.4,0.5,0.5,0.9c0.1,0.3,0.2,0.7,0.2,1
				c0,0.5-0.1,0.9-0.2,1.2c-0.2,0.3-0.4,0.6-0.6,0.9c-0.3,0.2-0.6,0.4-0.9,0.5c-0.4,0.1-0.7,0.2-1.1,0.2H2.6v3H0.7V173.6z
				 M3.8,177.6c0.4,0,0.6-0.1,0.9-0.3c0.2-0.2,0.3-0.5,0.3-0.9c0-0.4-0.1-0.7-0.3-0.9c-0.2-0.2-0.5-0.3-0.9-0.3H2.6v2.4H3.8z"/>
			<path class="st0" d="M8.8,173.6h5.9v1.7h-3.9v1.7h3.1v1.6h-3.1v1.9H15v1.7H8.8V173.6z"/>
			<path class="st0" d="M20.7,182.4c-0.6,0-1.2-0.1-1.8-0.3c-0.5-0.2-1-0.5-1.4-1c-0.4-0.4-0.7-0.9-0.9-1.4
				c-0.2-0.6-0.3-1.1-0.3-1.8c0-0.6,0.1-1.2,0.3-1.8c0.2-0.5,0.5-1,0.9-1.4c0.4-0.4,0.9-0.7,1.4-1c0.5-0.2,1.1-0.3,1.8-0.3
				c0.6,0,1.2,0.1,1.8,0.3c0.5,0.2,1,0.5,1.4,1c0.4,0.4,0.7,0.9,0.9,1.4c0.2,0.5,0.3,1.1,0.3,1.8c0,0.6-0.1,1.2-0.3,1.8
				c-0.2,0.6-0.5,1-0.9,1.4c-0.4,0.4-0.9,0.7-1.4,1C21.9,182.3,21.3,182.4,20.7,182.4z M20.7,180.6c0.4,0,0.7-0.1,1-0.2
				c0.3-0.1,0.6-0.3,0.8-0.6c0.2-0.2,0.4-0.5,0.5-0.9c0.1-0.3,0.2-0.7,0.2-1c0-0.4-0.1-0.7-0.2-1c-0.1-0.3-0.3-0.6-0.5-0.9
				c-0.2-0.2-0.5-0.4-0.8-0.6c-0.3-0.1-0.6-0.2-1-0.2c-0.4,0-0.7,0.1-1,0.2c-0.3,0.1-0.6,0.3-0.8,0.6c-0.2,0.2-0.4,0.5-0.5,0.9
				c-0.1,0.3-0.2,0.7-0.2,1c0,0.4,0.1,0.7,0.2,1c0.1,0.3,0.3,0.6,0.5,0.9c0.2,0.2,0.5,0.4,0.8,0.6C19.9,180.5,20.3,180.6,20.7,180.6
				z"/>
			<path class="st0" d="M27.1,173.6h3.1c0.5,0,1,0.1,1.4,0.2c0.4,0.2,0.7,0.4,0.9,0.6c0.2,0.3,0.4,0.5,0.5,0.9
				c0.1,0.3,0.2,0.7,0.2,1c0,0.5-0.1,0.9-0.2,1.2c-0.2,0.3-0.4,0.6-0.6,0.9c-0.3,0.2-0.6,0.4-0.9,0.5c-0.4,0.1-0.7,0.2-1.1,0.2H29v3
				h-1.9V173.6z M30.1,177.6c0.4,0,0.6-0.1,0.9-0.3c0.2-0.2,0.3-0.5,0.3-0.9c0-0.4-0.1-0.7-0.3-0.9c-0.2-0.2-0.5-0.3-0.9-0.3H29v2.4
				H30.1z"/>
			<path class="st0" d="M35.2,173.6h1.9v6.9h4.1v1.7h-6.1V173.6z"/>
			<path class="st0" d="M43,173.6h5.9v1.7H45v1.7H48v1.6H45v1.9h4.2v1.7H43V173.6z"/>
			<path class="st0" d="M59.6,182.4c-0.6,0-1.2-0.1-1.8-0.3c-0.5-0.2-1-0.5-1.4-1c-0.4-0.4-0.7-0.9-0.9-1.4
				c-0.2-0.6-0.3-1.1-0.3-1.8c0-0.6,0.1-1.2,0.3-1.8c0.2-0.5,0.5-1,0.9-1.4c0.4-0.4,0.9-0.7,1.4-1c0.5-0.2,1.1-0.3,1.8-0.3
				c0.6,0,1.2,0.1,1.8,0.3c0.5,0.2,1,0.5,1.4,1c0.4,0.4,0.7,0.9,0.9,1.4c0.2,0.5,0.3,1.1,0.3,1.8c0,0.6-0.1,1.2-0.3,1.8
				c-0.2,0.6-0.5,1-0.9,1.4c-0.4,0.4-0.9,0.7-1.4,1C60.8,182.3,60.2,182.4,59.6,182.4z M59.6,180.6c0.4,0,0.7-0.1,1-0.2
				c0.3-0.1,0.6-0.3,0.8-0.6c0.2-0.2,0.4-0.5,0.5-0.9c0.1-0.3,0.2-0.7,0.2-1c0-0.4-0.1-0.7-0.2-1c-0.1-0.3-0.3-0.6-0.5-0.9
				c-0.2-0.2-0.5-0.4-0.8-0.6c-0.3-0.1-0.6-0.2-1-0.2c-0.4,0-0.7,0.1-1,0.2c-0.3,0.1-0.6,0.3-0.8,0.6c-0.2,0.2-0.4,0.5-0.5,0.9
				c-0.1,0.3-0.2,0.7-0.2,1c0,0.4,0.1,0.7,0.2,1c0.1,0.3,0.3,0.6,0.5,0.9c0.2,0.2,0.5,0.4,0.8,0.6C58.9,180.5,59.2,180.6,59.6,180.6
				z"/>
			<path class="st0" d="M66.1,173.6h5.8v1.7H68v1.9h2.9v1.7H68v3.3h-1.9V173.6z"/>
			<path class="st0" d="M80.2,175.3h-2.8v-1.7h7.5v1.7h-2.8v6.9h-2V175.3z"/>
			<path class="st0" d="M86.6,173.6h1.9v3.3h3.7v-3.3h1.9v8.6h-1.9v-3.5h-3.7v3.5h-1.9V173.6z"/>
			<path class="st0" d="M96.6,173.6h5.9v1.7h-3.9v1.7h3.1v1.6h-3.1v1.9h4.2v1.7h-6.2V173.6z"/>
			<path class="st0" d="M109,173.6h3.2c0.5,0,1,0.1,1.4,0.2c0.4,0.1,0.7,0.3,0.9,0.5c0.2,0.2,0.4,0.4,0.5,0.7
				c0.1,0.3,0.2,0.6,0.2,0.8c0,0.3,0,0.5-0.1,0.7c-0.1,0.2-0.2,0.4-0.3,0.5c-0.1,0.2-0.3,0.3-0.4,0.4c-0.2,0.1-0.3,0.1-0.4,0.2
				c0.2,0,0.3,0.1,0.5,0.2c0.2,0.1,0.4,0.2,0.6,0.4c0.2,0.2,0.3,0.4,0.5,0.6c0.1,0.3,0.2,0.6,0.2,0.9c0,0.4-0.1,0.8-0.2,1.1
				c-0.2,0.3-0.4,0.6-0.7,0.8c-0.3,0.2-0.6,0.3-1.1,0.4c-0.4,0.1-0.9,0.1-1.4,0.1H109V173.6z M112,177.1c0.1,0,0.3,0,0.4-0.1
				c0.1,0,0.3-0.1,0.4-0.2c0.1-0.1,0.2-0.2,0.3-0.3c0.1-0.1,0.1-0.3,0.1-0.5c0-0.2,0-0.3-0.1-0.5c-0.1-0.1-0.2-0.2-0.3-0.3
				c-0.1-0.1-0.2-0.1-0.4-0.2c-0.1,0-0.3,0-0.4,0h-1.1v1.9H112z M112.1,180.7c0.1,0,0.3,0,0.5,0c0.2,0,0.3-0.1,0.5-0.1
				c0.1-0.1,0.3-0.2,0.4-0.3c0.1-0.1,0.1-0.3,0.1-0.6c0-0.2,0-0.4-0.1-0.6c-0.1-0.1-0.2-0.3-0.4-0.3c-0.1-0.1-0.3-0.1-0.5-0.2
				c-0.2,0-0.3,0-0.5,0h-1.3v2.2H112.1z"/>
			<path class="st0" d="M121.7,182.4c-0.6,0-1.2-0.1-1.8-0.3c-0.5-0.2-1-0.5-1.4-1c-0.4-0.4-0.7-0.9-0.9-1.4
				c-0.2-0.6-0.3-1.1-0.3-1.8c0-0.6,0.1-1.2,0.3-1.8c0.2-0.5,0.5-1,0.9-1.4c0.4-0.4,0.9-0.7,1.4-1c0.5-0.2,1.1-0.3,1.8-0.3
				c0.6,0,1.2,0.1,1.8,0.3c0.5,0.2,1,0.5,1.4,1c0.4,0.4,0.7,0.9,0.9,1.4c0.2,0.5,0.3,1.1,0.3,1.8c0,0.6-0.1,1.2-0.3,1.8
				c-0.2,0.6-0.5,1-0.9,1.4c-0.4,0.4-0.9,0.7-1.4,1C122.9,182.3,122.3,182.4,121.7,182.4z M121.7,180.6c0.4,0,0.7-0.1,1-0.2
				c0.3-0.1,0.6-0.3,0.8-0.6c0.2-0.2,0.4-0.5,0.5-0.9c0.1-0.3,0.2-0.7,0.2-1c0-0.4-0.1-0.7-0.2-1c-0.1-0.3-0.3-0.6-0.5-0.9
				c-0.2-0.2-0.5-0.4-0.8-0.6c-0.3-0.1-0.6-0.2-1-0.2c-0.4,0-0.7,0.1-1,0.2c-0.3,0.1-0.6,0.3-0.8,0.6c-0.2,0.2-0.4,0.5-0.5,0.9
				c-0.1,0.3-0.2,0.7-0.2,1c0,0.4,0.1,0.7,0.2,1c0.1,0.3,0.3,0.6,0.5,0.9c0.2,0.2,0.5,0.4,0.8,0.6
				C120.9,180.5,121.3,180.6,121.7,180.6z"/>
			<path class="st0" d="M130.2,173.6h2.2l3.1,8.6h-2.1l-0.7-2h-3l-0.7,2h-2L130.2,173.6z M132.2,178.7l-1-3.2l-1.1,3.2H132.2z"/>
			<path class="st0" d="M137.1,173.6h3.2c0.5,0,0.9,0.1,1.3,0.2c0.4,0.1,0.7,0.3,0.9,0.6c0.3,0.2,0.4,0.5,0.6,0.9
				c0.1,0.3,0.2,0.7,0.2,1c0,0.6-0.1,1-0.4,1.5c-0.2,0.4-0.6,0.7-1,1l1.9,3.4h-2.1l-1.6-3.2H139v3.2h-1.9V173.6z M140.2,177.5
				c0.4,0,0.6-0.1,0.8-0.3c0.2-0.2,0.3-0.5,0.3-0.8c0-0.4-0.1-0.6-0.3-0.8c-0.2-0.2-0.5-0.3-0.8-0.3H139v2.3H140.2z"/>
			<path class="st0" d="M145.5,173.6h3.2c0.7,0,1.3,0.1,1.8,0.3c0.6,0.2,1,0.4,1.5,0.8c0.4,0.4,0.7,0.8,1,1.4
				c0.2,0.5,0.3,1.2,0.3,1.9c0,0.7-0.1,1.3-0.3,1.9c-0.2,0.5-0.6,1-1,1.3c-0.4,0.4-0.9,0.6-1.5,0.8c-0.6,0.2-1.2,0.3-1.8,0.3h-3.2
				V173.6z M148.6,180.5c0.9,0,1.5-0.2,2-0.7c0.5-0.5,0.7-1.1,0.7-1.9c0-0.4-0.1-0.8-0.2-1.1c-0.1-0.3-0.3-0.6-0.5-0.8
				c-0.2-0.2-0.5-0.4-0.8-0.5c-0.3-0.1-0.7-0.2-1.2-0.2h-1.2v5.2H148.6z"/>
		</g>
		<g>
			<path class="st1" d="M155.4,180.2h2.1v2h-2.1V180.2z"/>
		</g>
		<g>
			<path class="st0" d="M166.2,175.3h-2.8v-1.7h7.5v1.7h-2.8v6.9h-2V175.3z"/>
			<path class="st0" d="M176.3,182.4c-0.6,0-1.2-0.1-1.8-0.3c-0.5-0.2-1-0.5-1.4-1c-0.4-0.4-0.7-0.9-0.9-1.4
				c-0.2-0.6-0.3-1.1-0.3-1.8c0-0.6,0.1-1.2,0.3-1.8c0.2-0.5,0.5-1,0.9-1.4c0.4-0.4,0.9-0.7,1.4-1c0.5-0.2,1.1-0.3,1.8-0.3
				c0.6,0,1.2,0.1,1.8,0.3c0.5,0.2,1,0.5,1.4,1c0.4,0.4,0.7,0.9,0.9,1.4c0.2,0.5,0.3,1.1,0.3,1.8c0,0.6-0.1,1.2-0.3,1.8
				c-0.2,0.6-0.5,1-0.9,1.4c-0.4,0.4-0.9,0.7-1.4,1C177.5,182.3,176.9,182.4,176.3,182.4z M176.3,180.6c0.4,0,0.7-0.1,1-0.2
				c0.3-0.1,0.6-0.3,0.8-0.6c0.2-0.2,0.4-0.5,0.5-0.9c0.1-0.3,0.2-0.7,0.2-1c0-0.4-0.1-0.7-0.2-1c-0.1-0.3-0.3-0.6-0.5-0.9
				c-0.2-0.2-0.5-0.4-0.8-0.6s-0.6-0.2-1-0.2c-0.4,0-0.7,0.1-1,0.2c-0.3,0.1-0.6,0.3-0.8,0.6c-0.2,0.2-0.4,0.5-0.5,0.9
				c-0.1,0.3-0.2,0.7-0.2,1c0,0.4,0.1,0.7,0.2,1c0.1,0.3,0.3,0.6,0.5,0.9c0.2,0.2,0.5,0.4,0.8,0.6
				C175.6,180.5,175.9,180.6,176.3,180.6z"/>
		</g>
		<g>
			<path class="st0" d="M3,194.6H0.2v-1.7h7.5v1.7H4.9v6.9H3V194.6z"/>
			<path class="st0" d="M13,201.7c-0.6,0-1.2-0.1-1.8-0.3c-0.5-0.2-1-0.5-1.4-1c-0.4-0.4-0.7-0.9-0.9-1.4c-0.2-0.6-0.3-1.1-0.3-1.8
				c0-0.6,0.1-1.2,0.3-1.8c0.2-0.5,0.5-1,0.9-1.4c0.4-0.4,0.9-0.7,1.4-1c0.5-0.2,1.1-0.3,1.8-0.3c0.6,0,1.2,0.1,1.8,0.3
				c0.5,0.2,1,0.5,1.4,1c0.4,0.4,0.7,0.9,0.9,1.4c0.2,0.5,0.3,1.1,0.3,1.8c0,0.6-0.1,1.2-0.3,1.8c-0.2,0.6-0.5,1-0.9,1.4
				c-0.4,0.4-0.9,0.7-1.4,1C14.2,201.6,13.7,201.7,13,201.7z M13,199.9c0.4,0,0.7-0.1,1-0.2c0.3-0.1,0.6-0.3,0.8-0.6
				c0.2-0.2,0.4-0.5,0.5-0.9c0.1-0.3,0.2-0.7,0.2-1c0-0.4-0.1-0.7-0.2-1c-0.1-0.3-0.3-0.6-0.5-0.9c-0.2-0.2-0.5-0.4-0.8-0.6
				c-0.3-0.1-0.6-0.2-1-0.2c-0.4,0-0.7,0.1-1,0.2c-0.3,0.1-0.6,0.3-0.8,0.6c-0.2,0.2-0.4,0.5-0.5,0.9c-0.1,0.3-0.2,0.7-0.2,1
				c0,0.4,0.1,0.7,0.2,1c0.1,0.3,0.3,0.6,0.5,0.9c0.2,0.2,0.5,0.4,0.8,0.6C12.3,199.8,12.6,199.9,13,199.9z"/>
			<path class="st0" d="M19.5,192.9h5.9v1.7h-3.9v1.7h3.1v1.6h-3.1v1.9h4.2v1.7h-6.2V192.9z"/>
			<path class="st0" d="M39,192.9h3.2c0.7,0,1.3,0.1,1.8,0.3c0.6,0.2,1,0.4,1.5,0.8c0.4,0.4,0.7,0.8,1,1.4c0.2,0.5,0.3,1.2,0.3,1.9
				c0,0.7-0.1,1.3-0.3,1.9c-0.2,0.5-0.6,1-1,1.3c-0.4,0.4-0.9,0.6-1.5,0.8c-0.6,0.2-1.2,0.3-1.8,0.3H39V192.9z M42.1,199.8
				c0.9,0,1.5-0.2,2-0.7c0.5-0.5,0.7-1.1,0.7-1.9c0-0.4-0.1-0.8-0.2-1.1c-0.1-0.3-0.3-0.6-0.5-0.8c-0.2-0.2-0.5-0.4-0.8-0.5
				c-0.3-0.1-0.7-0.2-1.2-0.2h-1.2v5.2H42.1z"/>
			<path class="st0" d="M48.8,192.9h1.9v8.6h-1.9V192.9z"/>
			<path class="st0" d="M53.1,192.9h3.1c0.5,0,1,0.1,1.4,0.2c0.4,0.2,0.7,0.4,0.9,0.6c0.2,0.3,0.4,0.5,0.5,0.9
				c0.1,0.3,0.2,0.7,0.2,1c0,0.5-0.1,0.9-0.2,1.2c-0.2,0.3-0.4,0.6-0.6,0.9c-0.3,0.2-0.6,0.4-0.9,0.5c-0.4,0.1-0.7,0.2-1.1,0.2H55v3
				h-1.9V192.9z M56.1,196.9c0.4,0,0.6-0.1,0.9-0.3c0.2-0.2,0.3-0.5,0.3-0.9c0-0.4-0.1-0.7-0.3-0.9c-0.2-0.2-0.5-0.3-0.9-0.3H55v2.4
				H56.1z"/>
			<path class="st0" d="M61.2,192.9h3.1c0.5,0,1,0.1,1.4,0.2c0.4,0.2,0.7,0.4,0.9,0.6c0.2,0.3,0.4,0.5,0.5,0.9
				c0.1,0.3,0.2,0.7,0.2,1c0,0.5-0.1,0.9-0.2,1.2c-0.2,0.3-0.4,0.6-0.6,0.9c-0.3,0.2-0.6,0.4-0.9,0.5c-0.4,0.1-0.7,0.2-1.1,0.2h-1.3
				v3h-1.9V192.9z M64.2,196.9c0.4,0,0.6-0.1,0.9-0.3c0.2-0.2,0.3-0.5,0.3-0.9c0-0.4-0.1-0.7-0.3-0.9c-0.2-0.2-0.5-0.3-0.9-0.3h-1.1
				v2.4H64.2z"/>
			<path class="st0" d="M69.3,192.9h5.9v1.7h-3.9v1.7h3.1v1.6h-3.1v1.9h4.2v1.7h-6.2V192.9z"/>
			<path class="st0" d="M77.4,192.9h3.2c0.5,0,0.9,0.1,1.3,0.2c0.4,0.1,0.7,0.3,0.9,0.6c0.3,0.2,0.4,0.5,0.6,0.9
				c0.1,0.3,0.2,0.7,0.2,1c0,0.6-0.1,1-0.4,1.5c-0.2,0.4-0.6,0.7-1,1l1.9,3.4H82l-1.6-3.2h-1.1v3.2h-1.9V192.9z M80.5,196.8
				c0.4,0,0.6-0.1,0.8-0.3c0.2-0.2,0.3-0.5,0.3-0.8c0-0.4-0.1-0.6-0.3-0.8c-0.2-0.2-0.5-0.3-0.8-0.3h-1.2v2.3H80.5z"/>
			<path class="st0" d="M86.3,198.9c0.1,0.1,0.2,0.2,0.4,0.4c0.2,0.1,0.3,0.2,0.5,0.3c0.2,0.1,0.4,0.2,0.6,0.3
				c0.2,0.1,0.5,0.1,0.7,0.1c0.1,0,0.3,0,0.4-0.1c0.1,0,0.3-0.1,0.4-0.2c0.1-0.1,0.2-0.2,0.3-0.3c0.1-0.1,0.1-0.2,0.1-0.4
				c0-0.3-0.2-0.6-0.5-0.7c-0.3-0.2-0.8-0.3-1.5-0.5c-0.3-0.1-0.6-0.2-0.9-0.3c-0.3-0.1-0.5-0.3-0.7-0.5c-0.2-0.2-0.4-0.4-0.5-0.7
				c-0.1-0.3-0.2-0.6-0.2-0.9c0-0.4,0.1-0.7,0.2-1c0.1-0.3,0.3-0.6,0.6-0.8c0.3-0.2,0.6-0.4,1-0.6s0.9-0.2,1.4-0.2
				c0.4,0,0.8,0,1.2,0.1c0.3,0.1,0.6,0.2,0.9,0.3c0.2,0.1,0.4,0.3,0.6,0.4c0.1,0.1,0.3,0.2,0.3,0.3l-1.1,1.2
				c-0.1-0.1-0.2-0.2-0.3-0.3c-0.1-0.1-0.3-0.2-0.4-0.3c-0.2-0.1-0.3-0.1-0.5-0.2c-0.2-0.1-0.4-0.1-0.6-0.1c-0.1,0-0.3,0-0.4,0.1
				c-0.1,0-0.3,0.1-0.4,0.2c-0.1,0.1-0.2,0.2-0.3,0.3c-0.1,0.1-0.1,0.2-0.1,0.3c0,0.3,0.2,0.5,0.5,0.7c0.3,0.2,0.7,0.3,1.3,0.5
				c0.3,0.1,0.6,0.2,0.9,0.3c0.3,0.1,0.6,0.3,0.8,0.5c0.2,0.2,0.4,0.5,0.6,0.8c0.1,0.3,0.2,0.7,0.2,1.1c0,0.4-0.1,0.7-0.3,1.1
				c-0.2,0.3-0.4,0.6-0.7,0.8c-0.3,0.2-0.6,0.4-1,0.6c-0.4,0.1-0.8,0.2-1.3,0.2c-0.4,0-0.8,0-1.2-0.1c-0.4-0.1-0.7-0.2-1-0.3
				c-0.3-0.1-0.5-0.3-0.8-0.5c-0.2-0.2-0.4-0.3-0.6-0.5L86.3,198.9z"/>
			<path class="st0" d="M107.7,192.9h2.2l3.1,8.6h-2.1l-0.7-2h-3l-0.7,2h-2L107.7,192.9z M109.8,198l-1-3.2l-1.1,3.2H109.8z"/>
			<path class="st0" d="M114.6,192.9h1.9l3.7,5.6v-5.6h1.9v8.6h-1.8l-3.8-5.7v5.7h-1.9V192.9z"/>
			<path class="st0" d="M124.4,192.9h3.2c0.7,0,1.3,0.1,1.8,0.3c0.6,0.2,1,0.4,1.5,0.8c0.4,0.4,0.7,0.8,1,1.4
				c0.2,0.5,0.3,1.2,0.3,1.9c0,0.7-0.1,1.3-0.3,1.9c-0.2,0.5-0.6,1-1,1.3c-0.4,0.4-0.9,0.6-1.5,0.8c-0.6,0.2-1.2,0.3-1.8,0.3h-3.2
				V192.9z M127.6,199.8c0.9,0,1.5-0.2,2-0.7c0.5-0.5,0.7-1.1,0.7-1.9c0-0.4-0.1-0.8-0.2-1.1c-0.1-0.3-0.3-0.6-0.5-0.8
				c-0.2-0.2-0.5-0.4-0.8-0.5c-0.3-0.1-0.7-0.2-1.2-0.2h-1.2v5.2H127.6z"/>
			<path class="st0" d="M145.7,192.9h3.2c0.5,0,1,0.1,1.4,0.2c0.4,0.1,0.7,0.3,0.9,0.5c0.2,0.2,0.4,0.4,0.5,0.7
				c0.1,0.3,0.2,0.6,0.2,0.8c0,0.3,0,0.5-0.1,0.7c-0.1,0.2-0.2,0.4-0.3,0.5c-0.1,0.2-0.3,0.3-0.4,0.4c-0.2,0.1-0.3,0.1-0.4,0.2
				c0.2,0,0.3,0.1,0.5,0.2c0.2,0.1,0.4,0.2,0.6,0.4c0.2,0.2,0.3,0.4,0.5,0.6c0.1,0.3,0.2,0.6,0.2,0.9c0,0.4-0.1,0.8-0.2,1.1
				c-0.2,0.3-0.4,0.6-0.7,0.8c-0.3,0.2-0.6,0.3-1.1,0.4c-0.4,0.1-0.9,0.1-1.4,0.1h-3.2V192.9z M148.7,196.3c0.1,0,0.3,0,0.4-0.1
				c0.1,0,0.3-0.1,0.4-0.2c0.1-0.1,0.2-0.2,0.3-0.3c0.1-0.1,0.1-0.3,0.1-0.5c0-0.2,0-0.3-0.1-0.5c-0.1-0.1-0.2-0.2-0.3-0.3
				c-0.1-0.1-0.2-0.1-0.4-0.2c-0.1,0-0.3,0-0.4,0h-1.1v1.9H148.7z M148.8,200c0.1,0,0.3,0,0.5,0c0.2,0,0.3-0.1,0.5-0.1
				c0.1-0.1,0.3-0.2,0.4-0.3c0.1-0.1,0.1-0.3,0.1-0.6c0-0.2,0-0.4-0.1-0.6c-0.1-0.1-0.2-0.3-0.4-0.3c-0.1-0.1-0.3-0.1-0.5-0.2
				c-0.2,0-0.3,0-0.5,0h-1.3v2.2H148.8z"/>
			<path class="st0" d="M158.4,201.7c-0.6,0-1.2-0.1-1.8-0.3c-0.5-0.2-1-0.5-1.4-1c-0.4-0.4-0.7-0.9-0.9-1.4
				c-0.2-0.6-0.3-1.1-0.3-1.8c0-0.6,0.1-1.2,0.3-1.8c0.2-0.5,0.5-1,0.9-1.4c0.4-0.4,0.9-0.7,1.4-1c0.5-0.2,1.1-0.3,1.8-0.3
				s1.2,0.1,1.8,0.3c0.5,0.2,1,0.5,1.4,1c0.4,0.4,0.7,0.9,0.9,1.4c0.2,0.5,0.3,1.1,0.3,1.8c0,0.6-0.1,1.2-0.3,1.8
				c-0.2,0.6-0.5,1-0.9,1.4c-0.4,0.4-0.9,0.7-1.4,1C159.6,201.6,159,201.7,158.4,201.7z M158.4,199.9c0.4,0,0.7-0.1,1-0.2
				c0.3-0.1,0.6-0.3,0.8-0.6c0.2-0.2,0.4-0.5,0.5-0.9c0.1-0.3,0.2-0.7,0.2-1c0-0.4-0.1-0.7-0.2-1c-0.1-0.3-0.3-0.6-0.5-0.9
				c-0.2-0.2-0.5-0.4-0.8-0.6c-0.3-0.1-0.6-0.2-1-0.2c-0.4,0-0.7,0.1-1,0.2c-0.3,0.1-0.6,0.3-0.8,0.6c-0.2,0.2-0.4,0.5-0.5,0.9
				c-0.1,0.3-0.2,0.7-0.2,1c0,0.4,0.1,0.7,0.2,1c0.1,0.3,0.3,0.6,0.5,0.9c0.2,0.2,0.5,0.4,0.8,0.6
				C157.6,199.8,158,199.9,158.4,199.9z"/>
			<path class="st0" d="M164.8,192.9h3.2c0.7,0,1.3,0.1,1.8,0.3c0.6,0.2,1,0.4,1.5,0.8c0.4,0.4,0.7,0.8,1,1.4
				c0.2,0.5,0.3,1.2,0.3,1.9c0,0.7-0.1,1.3-0.3,1.9c-0.2,0.5-0.6,1-1,1.3c-0.4,0.4-0.9,0.6-1.5,0.8c-0.6,0.2-1.2,0.3-1.8,0.3h-3.2
				V192.9z M167.9,199.8c0.9,0,1.5-0.2,2-0.7c0.5-0.5,0.7-1.1,0.7-1.9c0-0.4-0.1-0.8-0.2-1.1c-0.1-0.3-0.3-0.6-0.5-0.8
				c-0.2-0.2-0.5-0.4-0.8-0.5c-0.3-0.1-0.7-0.2-1.2-0.2h-1.2v5.2H167.9z"/>
			<path class="st0" d="M176.2,197.9l-3-5h2.2l1.9,3.2l1.8-3.2h2.1l-3,5v3.6h-2V197.9z"/>
		</g>
		<g>
			<path class="st0" d="M0.7,212.2h3.1c0.5,0,1,0.1,1.4,0.2c0.4,0.2,0.7,0.4,0.9,0.6c0.2,0.3,0.4,0.5,0.5,0.9c0.1,0.3,0.2,0.7,0.2,1
				c0,0.5-0.1,0.9-0.2,1.2c-0.2,0.3-0.4,0.6-0.6,0.9c-0.3,0.2-0.6,0.4-0.9,0.5c-0.4,0.1-0.7,0.2-1.1,0.2H2.6v3H0.7V212.2z
				 M3.8,216.2c0.4,0,0.6-0.1,0.9-0.3c0.2-0.2,0.3-0.5,0.3-0.9c0-0.4-0.1-0.7-0.3-0.9c-0.2-0.2-0.5-0.3-0.9-0.3H2.6v2.4H3.8z"/>
			<path class="st0" d="M8.2,212.2h1.9v6.9h4.1v1.7H8.2V212.2z"/>
			<path class="st0" d="M15.2,212.2h2v5.1c0,0.3,0,0.5,0.1,0.8c0.1,0.2,0.1,0.4,0.3,0.6c0.1,0.2,0.3,0.3,0.5,0.4
				c0.2,0.1,0.5,0.1,0.8,0.1c0.3,0,0.6,0,0.8-0.1c0.2-0.1,0.4-0.2,0.5-0.4c0.1-0.2,0.2-0.4,0.3-0.6c0.1-0.2,0.1-0.5,0.1-0.8v-5.1h2
				v5.3c0,0.5-0.1,1-0.3,1.4c-0.2,0.4-0.4,0.8-0.7,1.1c-0.3,0.3-0.7,0.5-1.1,0.7c-0.4,0.2-0.9,0.3-1.5,0.3c-0.5,0-1-0.1-1.5-0.3
				c-0.4-0.2-0.8-0.4-1.1-0.7c-0.3-0.3-0.6-0.7-0.7-1.1c-0.2-0.4-0.3-0.9-0.3-1.4V212.2z"/>
			<path class="st0" d="M24,212.2h1.9l3.7,5.6v-5.6h1.9v8.6h-1.8l-3.8-5.7v5.7H24V212.2z"/>
			<path class="st0" d="M37.6,216H41v3.7c-0.4,0.4-1,0.7-1.6,0.9c-0.6,0.2-1.3,0.3-2,0.3c-0.7,0-1.3-0.1-1.9-0.3
				c-0.6-0.2-1-0.5-1.4-0.9c-0.4-0.4-0.7-0.9-0.9-1.4c-0.2-0.5-0.3-1.2-0.3-1.8c0-0.6,0.1-1.2,0.3-1.8c0.2-0.5,0.5-1,0.9-1.4
				c0.4-0.4,0.9-0.7,1.4-1c0.5-0.2,1.1-0.3,1.8-0.3c0.8,0,1.5,0.1,2.1,0.4c0.6,0.3,1.1,0.7,1.5,1.2l-1.3,1.2
				c-0.3-0.3-0.6-0.6-0.9-0.8c-0.3-0.2-0.7-0.3-1.2-0.3c-0.4,0-0.7,0.1-1.1,0.2c-0.3,0.1-0.6,0.3-0.8,0.6c-0.2,0.2-0.4,0.5-0.5,0.9
				c-0.1,0.3-0.2,0.7-0.2,1.1c0,0.4,0.1,0.8,0.2,1.1c0.1,0.3,0.3,0.6,0.5,0.9c0.2,0.2,0.5,0.4,0.8,0.5c0.3,0.1,0.7,0.2,1,0.2
				c0.3,0,0.7,0,0.9-0.1c0.3-0.1,0.5-0.2,0.8-0.4v-1.1h-1.5V216z"/>
			<path class="st0" d="M42.5,212.2h5.9v1.7h-3.9v1.7h3.1v1.6h-3.1v1.9h4.2v1.7h-6.2V212.2z"/>
			<path class="st0" d="M50,212.2h3.2c0.5,0,0.9,0.1,1.3,0.2c0.4,0.1,0.7,0.3,0.9,0.6c0.3,0.2,0.4,0.5,0.6,0.9
				c0.1,0.3,0.2,0.7,0.2,1c0,0.6-0.1,1-0.4,1.5c-0.2,0.4-0.6,0.7-1,1l1.9,3.4h-2.1l-1.6-3.2h-1.1v3.2H50V212.2z M53.1,216
				c0.4,0,0.6-0.1,0.8-0.3c0.2-0.2,0.3-0.5,0.3-0.8c0-0.4-0.1-0.6-0.3-0.8c-0.2-0.2-0.5-0.3-0.8-0.3h-1.2v2.3H53.1z"/>
			<path class="st0" d="M58.2,218.2c0.1,0.1,0.2,0.2,0.4,0.4c0.2,0.1,0.3,0.2,0.5,0.3c0.2,0.1,0.4,0.2,0.6,0.3s0.5,0.1,0.7,0.1
				c0.1,0,0.3,0,0.4-0.1c0.1,0,0.3-0.1,0.4-0.2c0.1-0.1,0.2-0.2,0.3-0.3c0.1-0.1,0.1-0.2,0.1-0.4c0-0.3-0.2-0.6-0.5-0.7
				c-0.3-0.2-0.8-0.3-1.5-0.5c-0.3-0.1-0.6-0.2-0.9-0.3c-0.3-0.1-0.5-0.3-0.7-0.5c-0.2-0.2-0.4-0.4-0.5-0.7
				c-0.1-0.3-0.2-0.6-0.2-0.9c0-0.4,0.1-0.7,0.2-1c0.1-0.3,0.3-0.6,0.6-0.8c0.3-0.2,0.6-0.4,1-0.6c0.4-0.1,0.9-0.2,1.4-0.2
				c0.4,0,0.8,0,1.2,0.1c0.3,0.1,0.6,0.2,0.9,0.3c0.2,0.1,0.4,0.3,0.6,0.4c0.2,0.1,0.3,0.2,0.3,0.3l-1.1,1.2
				c-0.1-0.1-0.2-0.2-0.3-0.3c-0.1-0.1-0.3-0.2-0.4-0.3c-0.2-0.1-0.3-0.1-0.5-0.2c-0.2-0.1-0.4-0.1-0.6-0.1c-0.1,0-0.3,0-0.4,0.1
				c-0.1,0-0.3,0.1-0.4,0.2c-0.1,0.1-0.2,0.2-0.3,0.3c-0.1,0.1-0.1,0.2-0.1,0.3c0,0.3,0.2,0.5,0.5,0.7c0.3,0.2,0.7,0.3,1.3,0.5
				c0.3,0.1,0.6,0.2,0.9,0.3c0.3,0.1,0.6,0.3,0.8,0.5c0.2,0.2,0.4,0.5,0.6,0.8c0.1,0.3,0.2,0.7,0.2,1.1c0,0.4-0.1,0.7-0.3,1.1
				c-0.2,0.3-0.4,0.6-0.7,0.8c-0.3,0.2-0.6,0.4-1,0.6c-0.4,0.1-0.8,0.2-1.3,0.2c-0.4,0-0.8,0-1.2-0.1c-0.4-0.1-0.7-0.2-1-0.3
				c-0.3-0.1-0.5-0.3-0.8-0.5c-0.2-0.2-0.4-0.3-0.6-0.5L58.2,218.2z"/>
			<path class="st0" d="M65.8,220.7h-0.7v-2.1h2.1v2l-1.1,1.9H65L65.8,220.7z"/>
			<path class="st0" d="M73.5,213.9h-2.8v-1.7h7.5v1.7h-2.8v6.9h-2V213.9z"/>
			<path class="st0" d="M83,221c-0.6,0-1.2-0.1-1.8-0.3c-0.5-0.2-1-0.5-1.4-1c-0.4-0.4-0.7-0.9-0.9-1.4c-0.2-0.6-0.3-1.1-0.3-1.8
				c0-0.6,0.1-1.2,0.3-1.8c0.2-0.5,0.5-1,0.9-1.4c0.4-0.4,0.9-0.7,1.4-1c0.5-0.2,1.1-0.3,1.8-0.3c0.6,0,1.2,0.1,1.8,0.3
				c0.5,0.2,1,0.5,1.4,1c0.4,0.4,0.7,0.9,0.9,1.4c0.2,0.5,0.3,1.1,0.3,1.8c0,0.6-0.1,1.2-0.3,1.8c-0.2,0.6-0.5,1-0.9,1.4
				c-0.4,0.4-0.9,0.7-1.4,1C84.2,220.9,83.6,221,83,221z M83,219.1c0.4,0,0.7-0.1,1-0.2c0.3-0.1,0.6-0.3,0.8-0.6
				c0.2-0.2,0.4-0.5,0.5-0.9c0.1-0.3,0.2-0.7,0.2-1c0-0.4-0.1-0.7-0.2-1c-0.1-0.3-0.3-0.6-0.5-0.9c-0.2-0.2-0.5-0.4-0.8-0.6
				c-0.3-0.1-0.6-0.2-1-0.2c-0.4,0-0.7,0.1-1,0.2c-0.3,0.1-0.6,0.3-0.8,0.6c-0.2,0.2-0.4,0.5-0.5,0.9c-0.1,0.3-0.2,0.7-0.2,1
				c0,0.4,0.1,0.7,0.2,1c0.1,0.3,0.3,0.6,0.5,0.9c0.2,0.2,0.5,0.4,0.8,0.6C82.2,219.1,82.6,219.1,83,219.1z"/>
			<path class="st0" d="M93.9,212.2h3.2c0.7,0,1.3,0.1,1.8,0.3c0.6,0.2,1,0.4,1.5,0.8c0.4,0.4,0.7,0.8,1,1.4
				c0.2,0.5,0.3,1.2,0.3,1.9c0,0.7-0.1,1.3-0.3,1.9c-0.2,0.5-0.6,1-1,1.3c-0.4,0.4-0.9,0.6-1.5,0.8c-0.6,0.2-1.2,0.3-1.8,0.3h-3.2
				V212.2z M97,219c0.9,0,1.5-0.2,2-0.7c0.5-0.5,0.7-1.1,0.7-1.9c0-0.4-0.1-0.8-0.2-1.1c-0.1-0.3-0.3-0.6-0.5-0.8
				c-0.2-0.2-0.5-0.4-0.8-0.5c-0.3-0.1-0.7-0.2-1.2-0.2h-1.2v5.2H97z"/>
			<path class="st0" d="M103.1,212.2h1.9v8.6h-1.9V212.2z"/>
			<path class="st0" d="M107.4,218.2c0.1,0.1,0.2,0.2,0.4,0.4c0.2,0.1,0.3,0.2,0.5,0.3c0.2,0.1,0.4,0.2,0.6,0.3s0.5,0.1,0.7,0.1
				c0.1,0,0.3,0,0.4-0.1c0.1,0,0.3-0.1,0.4-0.2c0.1-0.1,0.2-0.2,0.3-0.3c0.1-0.1,0.1-0.2,0.1-0.4c0-0.3-0.2-0.6-0.5-0.7
				c-0.3-0.2-0.8-0.3-1.5-0.5c-0.3-0.1-0.6-0.2-0.9-0.3c-0.3-0.1-0.5-0.3-0.7-0.5c-0.2-0.2-0.4-0.4-0.5-0.7
				c-0.1-0.3-0.2-0.6-0.2-0.9c0-0.4,0.1-0.7,0.2-1c0.1-0.3,0.3-0.6,0.6-0.8c0.3-0.2,0.6-0.4,1-0.6c0.4-0.1,0.9-0.2,1.4-0.2
				c0.4,0,0.8,0,1.2,0.1c0.3,0.1,0.6,0.2,0.9,0.3c0.2,0.1,0.4,0.3,0.6,0.4c0.2,0.1,0.3,0.2,0.3,0.3l-1.1,1.2
				c-0.1-0.1-0.2-0.2-0.3-0.3c-0.1-0.1-0.3-0.2-0.4-0.3c-0.2-0.1-0.3-0.1-0.5-0.2c-0.2-0.1-0.4-0.1-0.6-0.1c-0.1,0-0.3,0-0.4,0.1
				c-0.1,0-0.3,0.1-0.4,0.2c-0.1,0.1-0.2,0.2-0.3,0.3c-0.1,0.1-0.1,0.2-0.1,0.3c0,0.3,0.2,0.5,0.5,0.7s0.7,0.3,1.3,0.5
				c0.3,0.1,0.6,0.2,0.9,0.3c0.3,0.1,0.6,0.3,0.8,0.5c0.2,0.2,0.4,0.5,0.6,0.8c0.1,0.3,0.2,0.7,0.2,1.1c0,0.4-0.1,0.7-0.3,1.1
				c-0.2,0.3-0.4,0.6-0.7,0.8c-0.3,0.2-0.6,0.4-1,0.6c-0.4,0.1-0.8,0.2-1.3,0.2c-0.4,0-0.8,0-1.2-0.1c-0.4-0.1-0.7-0.2-1-0.3
				c-0.3-0.1-0.5-0.3-0.8-0.5c-0.2-0.2-0.4-0.3-0.6-0.5L107.4,218.2z"/>
			<path class="st0" d="M116.2,213.9h-2.8v-1.7h7.5v1.7h-2.8v6.9h-2V213.9z"/>
			<path class="st0" d="M122,212.2h1.9v8.6H122V212.2z"/>
			<path class="st0" d="M125.7,212.2h1.9l3.7,5.6v-5.6h1.9v8.6h-1.8l-3.8-5.7v5.7h-1.9V212.2z"/>
			<path class="st0" d="M142.6,219.2c-0.2,0.2-0.4,0.5-0.7,0.7c-0.3,0.2-0.5,0.4-0.9,0.6c-0.3,0.2-0.7,0.3-1,0.4
				c-0.4,0.1-0.7,0.1-1.1,0.1c-0.7,0-1.2-0.1-1.8-0.3c-0.5-0.2-1-0.5-1.4-0.9c-0.4-0.4-0.7-0.9-0.9-1.4c-0.2-0.5-0.3-1.1-0.3-1.8
				c0-0.6,0.1-1.2,0.3-1.8c0.2-0.6,0.5-1,0.9-1.4c0.4-0.4,0.9-0.7,1.4-1c0.5-0.2,1.1-0.4,1.8-0.4c0.8,0,1.5,0.1,2.1,0.4
				c0.6,0.3,1.1,0.7,1.5,1.3l-1.3,1.3c-0.3-0.4-0.6-0.7-0.9-0.9c-0.4-0.2-0.8-0.3-1.3-0.3c-0.4,0-0.7,0.1-1,0.2s-0.6,0.3-0.8,0.6
				c-0.2,0.2-0.4,0.5-0.5,0.9c-0.1,0.3-0.2,0.7-0.2,1c0,0.4,0.1,0.7,0.2,1.1c0.1,0.3,0.3,0.6,0.5,0.9c0.2,0.2,0.5,0.4,0.8,0.6
				c0.3,0.1,0.6,0.2,1,0.2c0.3,0,0.6,0,0.8-0.1c0.2-0.1,0.4-0.2,0.6-0.3c0.2-0.1,0.3-0.2,0.5-0.4c0.1-0.1,0.3-0.3,0.4-0.4
				L142.6,219.2z"/>
			<path class="st0" d="M146,213.9h-2.8v-1.7h7.5v1.7h-2.8v6.9h-2V213.9z"/>
			<path class="st0" d="M151.8,212.2h1.9v8.6h-1.9V212.2z"/>
			<path class="st0" d="M159.5,221c-0.6,0-1.2-0.1-1.8-0.3c-0.5-0.2-1-0.5-1.4-1c-0.4-0.4-0.7-0.9-0.9-1.4c-0.2-0.6-0.3-1.1-0.3-1.8
				c0-0.6,0.1-1.2,0.3-1.8c0.2-0.5,0.5-1,0.9-1.4c0.4-0.4,0.9-0.7,1.4-1c0.5-0.2,1.1-0.3,1.8-0.3c0.6,0,1.2,0.1,1.8,0.3
				c0.5,0.2,1,0.5,1.4,1c0.4,0.4,0.7,0.9,0.9,1.4c0.2,0.5,0.3,1.1,0.3,1.8c0,0.6-0.1,1.2-0.3,1.8c-0.2,0.6-0.5,1-0.9,1.4
				c-0.4,0.4-0.9,0.7-1.4,1C160.8,220.9,160.2,221,159.5,221z M159.5,219.1c0.4,0,0.7-0.1,1-0.2c0.3-0.1,0.6-0.3,0.8-0.6
				c0.2-0.2,0.4-0.5,0.5-0.9c0.1-0.3,0.2-0.7,0.2-1c0-0.4-0.1-0.7-0.2-1c-0.1-0.3-0.3-0.6-0.5-0.9c-0.2-0.2-0.5-0.4-0.8-0.6
				c-0.3-0.1-0.6-0.2-1-0.2c-0.4,0-0.7,0.1-1,0.2c-0.3,0.1-0.6,0.3-0.8,0.6c-0.2,0.2-0.4,0.5-0.5,0.9c-0.1,0.3-0.2,0.7-0.2,1
				c0,0.4,0.1,0.7,0.2,1c0.1,0.3,0.3,0.6,0.5,0.9c0.2,0.2,0.5,0.4,0.8,0.6C158.8,219.1,159.2,219.1,159.5,219.1z"/>
			<path class="st0" d="M165.3,212.2h1.9l3.7,5.6v-5.6h1.9v8.6h-1.8l-3.8-5.7v5.7h-1.9V212.2z"/>
			<path class="st0" d="M175.2,218.2c0.1,0.1,0.2,0.2,0.4,0.4c0.2,0.1,0.3,0.2,0.5,0.3c0.2,0.1,0.4,0.2,0.6,0.3s0.5,0.1,0.7,0.1
				c0.1,0,0.3,0,0.4-0.1c0.1,0,0.3-0.1,0.4-0.2c0.1-0.1,0.2-0.2,0.3-0.3c0.1-0.1,0.1-0.2,0.1-0.4c0-0.3-0.2-0.6-0.5-0.7
				c-0.3-0.2-0.8-0.3-1.5-0.5c-0.3-0.1-0.6-0.2-0.9-0.3c-0.3-0.1-0.5-0.3-0.7-0.5c-0.2-0.2-0.4-0.4-0.5-0.7
				c-0.1-0.3-0.2-0.6-0.2-0.9c0-0.4,0.1-0.7,0.2-1c0.1-0.3,0.3-0.6,0.6-0.8c0.3-0.2,0.6-0.4,1-0.6c0.4-0.1,0.9-0.2,1.4-0.2
				c0.4,0,0.8,0,1.2,0.1c0.3,0.1,0.6,0.2,0.9,0.3c0.2,0.1,0.4,0.3,0.6,0.4c0.2,0.1,0.3,0.2,0.3,0.3l-1.1,1.2
				c-0.1-0.1-0.2-0.2-0.3-0.3c-0.1-0.1-0.3-0.2-0.4-0.3c-0.2-0.1-0.3-0.1-0.5-0.2c-0.2-0.1-0.4-0.1-0.6-0.1c-0.1,0-0.3,0-0.4,0.1
				c-0.1,0-0.3,0.1-0.4,0.2c-0.1,0.1-0.2,0.2-0.3,0.3c-0.1,0.1-0.1,0.2-0.1,0.3c0,0.3,0.2,0.5,0.5,0.7s0.7,0.3,1.3,0.5
				c0.3,0.1,0.6,0.2,0.9,0.3c0.3,0.1,0.6,0.3,0.8,0.5c0.2,0.2,0.4,0.5,0.6,0.8c0.1,0.3,0.2,0.7,0.2,1.1c0,0.4-0.1,0.7-0.3,1.1
				c-0.2,0.3-0.4,0.6-0.7,0.8c-0.3,0.2-0.6,0.4-1,0.6c-0.4,0.1-0.8,0.2-1.3,0.2c-0.4,0-0.8,0-1.2-0.1c-0.4-0.1-0.7-0.2-1-0.3
				c-0.3-0.1-0.5-0.3-0.8-0.5c-0.2-0.2-0.4-0.3-0.6-0.5L175.2,218.2z"/>
		</g>
		<g>
			<path class="st0" d="M3.2,231.4h2.2l3.1,8.6H6.4l-0.7-2h-3L2,240H0L3.2,231.4z M5.3,236.5l-1-3.2l-1.1,3.2H5.3z"/>
			<path class="st0" d="M10.1,231.4h1.9l3.7,5.6v-5.6h1.9v8.6h-1.8l-3.8-5.7v5.7h-1.9V231.4z"/>
			<path class="st0" d="M19.9,231.4h3.2c0.7,0,1.3,0.1,1.8,0.3c0.6,0.2,1,0.4,1.5,0.8c0.4,0.4,0.7,0.8,1,1.4
				c0.2,0.5,0.3,1.2,0.3,1.9c0,0.7-0.1,1.3-0.3,1.9c-0.2,0.5-0.6,1-1,1.3c-0.4,0.4-0.9,0.6-1.5,0.8c-0.6,0.2-1.2,0.3-1.8,0.3h-3.2
				V231.4z M23,238.3c0.9,0,1.5-0.2,2-0.7c0.5-0.5,0.7-1.1,0.7-1.9c0-0.4-0.1-0.8-0.2-1.1c-0.1-0.3-0.3-0.6-0.5-0.8
				c-0.2-0.2-0.5-0.4-0.8-0.5c-0.3-0.1-0.7-0.2-1.2-0.2h-1.2v5.2H23z"/>
			<path class="st0" d="M48,233.1h-2.8v-1.7h7.5v1.7H50v6.9h-2V233.1z"/>
			<path class="st0" d="M58.1,240.2c-0.6,0-1.2-0.1-1.8-0.3c-0.5-0.2-1-0.5-1.4-1c-0.4-0.4-0.7-0.9-0.9-1.4
				c-0.2-0.6-0.3-1.1-0.3-1.8c0-0.6,0.1-1.2,0.3-1.8c0.2-0.5,0.5-1,0.9-1.4c0.4-0.4,0.9-0.7,1.4-1c0.5-0.2,1.1-0.3,1.8-0.3
				s1.2,0.1,1.8,0.3c0.5,0.2,1,0.5,1.4,1c0.4,0.4,0.7,0.9,0.9,1.4c0.2,0.5,0.3,1.1,0.3,1.8c0,0.6-0.1,1.2-0.3,1.8
				c-0.2,0.6-0.5,1-0.9,1.4c-0.4,0.4-0.9,0.7-1.4,1C59.3,240.1,58.7,240.2,58.1,240.2z M58.1,238.4c0.4,0,0.7-0.1,1-0.2
				c0.3-0.1,0.6-0.3,0.8-0.6c0.2-0.2,0.4-0.5,0.5-0.9c0.1-0.3,0.2-0.7,0.2-1c0-0.4-0.1-0.7-0.2-1c-0.1-0.3-0.3-0.6-0.5-0.9
				c-0.2-0.2-0.5-0.4-0.8-0.6c-0.3-0.1-0.6-0.2-1-0.2c-0.4,0-0.7,0.1-1,0.2c-0.3,0.1-0.6,0.3-0.8,0.6c-0.2,0.2-0.4,0.5-0.5,0.9
				c-0.1,0.3-0.2,0.7-0.2,1c0,0.4,0.1,0.7,0.2,1c0.1,0.3,0.3,0.6,0.5,0.9c0.2,0.2,0.5,0.4,0.8,0.6C57.4,238.3,57.7,238.4,58.1,238.4
				z"/>
			<path class="st0" d="M80.5,231.4h5.8v1.7h-3.8v1.9h2.9v1.7h-2.9v3.3h-1.9V231.4z"/>
			<path class="st0" d="M90.6,231.4h2.2l3.1,8.6h-2.1l-0.7-2h-3l-0.7,2h-2L90.6,231.4z M92.6,236.5l-1-3.2l-1.1,3.2H92.6z"/>
			<path class="st0" d="M97.5,231.4h1.9v8.6h-1.9V231.4z"/>
			<path class="st0" d="M101.7,231.4h1.9v6.9h4.1v1.7h-6.1V231.4z"/>
			<path class="st0" d="M109.4,231.4h2v5.1c0,0.3,0,0.5,0.1,0.8c0.1,0.2,0.1,0.4,0.3,0.6c0.1,0.2,0.3,0.3,0.5,0.4
				c0.2,0.1,0.5,0.1,0.8,0.1c0.3,0,0.6,0,0.8-0.1c0.2-0.1,0.4-0.2,0.5-0.4c0.1-0.2,0.2-0.4,0.3-0.6c0.1-0.2,0.1-0.5,0.1-0.8v-5.1h2
				v5.3c0,0.5-0.1,1-0.3,1.4c-0.2,0.4-0.4,0.8-0.7,1.1c-0.3,0.3-0.7,0.5-1.1,0.7c-0.4,0.2-0.9,0.3-1.5,0.3c-0.5,0-1-0.1-1.5-0.3
				c-0.4-0.2-0.8-0.4-1.1-0.7c-0.3-0.3-0.6-0.7-0.7-1.1c-0.2-0.4-0.3-0.9-0.3-1.4V231.4z"/>
			<path class="st0" d="M118.8,231.4h3.2c0.5,0,0.9,0.1,1.3,0.2s0.7,0.3,0.9,0.6c0.3,0.2,0.4,0.5,0.6,0.9c0.1,0.3,0.2,0.7,0.2,1
				c0,0.6-0.1,1-0.4,1.5c-0.2,0.4-0.6,0.7-1,1l1.9,3.4h-2.1l-1.6-3.2h-1.1v3.2h-1.9V231.4z M121.9,235.3c0.4,0,0.6-0.1,0.8-0.3
				c0.2-0.2,0.3-0.5,0.3-0.8c0-0.4-0.1-0.6-0.3-0.8c-0.2-0.2-0.5-0.3-0.8-0.3h-1.2v2.3H121.9z"/>
			<path class="st0" d="M127.3,231.4h5.9v1.7h-3.9v1.7h3.1v1.6h-3.1v1.9h4.2v1.7h-6.2V231.4z"/>
			<path class="st0" d="M136.1,237.5c0.1,0.1,0.2,0.2,0.4,0.4c0.2,0.1,0.3,0.2,0.5,0.3c0.2,0.1,0.4,0.2,0.6,0.3
				c0.2,0.1,0.5,0.1,0.7,0.1c0.1,0,0.3,0,0.4-0.1c0.1,0,0.3-0.1,0.4-0.2c0.1-0.1,0.2-0.2,0.3-0.3c0.1-0.1,0.1-0.2,0.1-0.4
				c0-0.3-0.2-0.6-0.5-0.7c-0.3-0.2-0.8-0.3-1.5-0.5c-0.3-0.1-0.6-0.2-0.9-0.3c-0.3-0.1-0.5-0.3-0.7-0.5c-0.2-0.2-0.4-0.4-0.5-0.7
				c-0.1-0.3-0.2-0.6-0.2-0.9c0-0.4,0.1-0.7,0.2-1c0.1-0.3,0.3-0.6,0.6-0.8c0.3-0.2,0.6-0.4,1-0.6c0.4-0.1,0.9-0.2,1.4-0.2
				c0.4,0,0.8,0,1.2,0.1c0.3,0.1,0.6,0.2,0.9,0.3c0.2,0.1,0.4,0.3,0.6,0.4c0.1,0.1,0.3,0.2,0.3,0.3l-1.1,1.2
				c-0.1-0.1-0.2-0.2-0.3-0.3c-0.1-0.1-0.3-0.2-0.4-0.3c-0.2-0.1-0.3-0.1-0.5-0.2c-0.2-0.1-0.4-0.1-0.6-0.1c-0.1,0-0.3,0-0.4,0.1
				c-0.1,0-0.3,0.1-0.4,0.2c-0.1,0.1-0.2,0.2-0.3,0.3c-0.1,0.1-0.1,0.2-0.1,0.3c0,0.3,0.2,0.5,0.5,0.7c0.3,0.2,0.7,0.3,1.3,0.5
				c0.3,0.1,0.6,0.2,0.9,0.3c0.3,0.1,0.6,0.3,0.8,0.5c0.2,0.2,0.4,0.5,0.6,0.8c0.1,0.3,0.2,0.7,0.2,1.1c0,0.4-0.1,0.7-0.3,1.1
				c-0.2,0.3-0.4,0.6-0.7,0.8c-0.3,0.2-0.6,0.4-1,0.6c-0.4,0.1-0.8,0.2-1.3,0.2c-0.4,0-0.8,0-1.2-0.1c-0.4-0.1-0.7-0.2-1-0.3
				c-0.3-0.1-0.5-0.3-0.8-0.5c-0.2-0.2-0.4-0.3-0.6-0.5L136.1,237.5z"/>
		</g>
		<g>
			<path class="st1" d="M143.6,238h2.1v2h-2.1V238z"/>
		</g>
		<g>
			<path class="st0" d="M166.3,233.1h-2.8v-1.7h7.5v1.7h-2.8v6.9h-2V233.1z"/>
			<path class="st0" d="M176.3,240.2c-0.6,0-1.2-0.1-1.8-0.3c-0.5-0.2-1-0.5-1.4-1c-0.4-0.4-0.7-0.9-0.9-1.4
				c-0.2-0.6-0.3-1.1-0.3-1.8c0-0.6,0.1-1.2,0.3-1.8c0.2-0.5,0.5-1,0.9-1.4c0.4-0.4,0.9-0.7,1.4-1c0.5-0.2,1.1-0.3,1.8-0.3
				c0.6,0,1.2,0.1,1.8,0.3c0.5,0.2,1,0.5,1.4,1c0.4,0.4,0.7,0.9,0.9,1.4c0.2,0.5,0.3,1.1,0.3,1.8c0,0.6-0.1,1.2-0.3,1.8
				c-0.2,0.6-0.5,1-0.9,1.4c-0.4,0.4-0.9,0.7-1.4,1C177.5,240.1,176.9,240.2,176.3,240.2z M176.3,238.4c0.4,0,0.7-0.1,1-0.2
				c0.3-0.1,0.6-0.3,0.8-0.6c0.2-0.2,0.4-0.5,0.5-0.9c0.1-0.3,0.2-0.7,0.2-1c0-0.4-0.1-0.7-0.2-1c-0.1-0.3-0.3-0.6-0.5-0.9
				c-0.2-0.2-0.5-0.4-0.8-0.6s-0.6-0.2-1-0.2c-0.4,0-0.7,0.1-1,0.2c-0.3,0.1-0.6,0.3-0.8,0.6c-0.2,0.2-0.4,0.5-0.5,0.9
				c-0.1,0.3-0.2,0.7-0.2,1c0,0.4,0.1,0.7,0.2,1c0.1,0.3,0.3,0.6,0.5,0.9c0.2,0.2,0.5,0.4,0.8,0.6
				C175.6,238.3,175.9,238.4,176.3,238.4z"/>
		</g>
		<g>
			<path class="st0" d="M0.7,250.7h1.9v3.3h3.7v-3.3h1.9v8.6H6.4v-3.5H2.7v3.5H0.7V250.7z"/>
			<path class="st0" d="M13.1,250.7h2.2l3.1,8.6h-2.1l-0.7-2h-3l-0.7,2h-2L13.1,250.7z M15.2,255.8l-1-3.2l-1.1,3.2H15.2z"/>
			<path class="st0" d="M20,250.7h1.9l3.7,5.6v-5.6h1.9v8.6h-1.8l-3.8-5.7v5.7H20V250.7z"/>
			<path class="st0" d="M29.8,250.7h3.2c0.7,0,1.3,0.1,1.8,0.3c0.6,0.2,1,0.4,1.5,0.8c0.4,0.4,0.7,0.8,1,1.4
				c0.2,0.5,0.3,1.2,0.3,1.9c0,0.7-0.1,1.3-0.3,1.9c-0.2,0.5-0.6,1-1,1.3c-0.4,0.4-0.9,0.6-1.5,0.8c-0.6,0.2-1.2,0.3-1.8,0.3h-3.2
				V250.7z M33,257.6c0.9,0,1.5-0.2,2-0.7c0.5-0.5,0.7-1.1,0.7-1.9c0-0.4-0.1-0.8-0.2-1.1c-0.1-0.3-0.3-0.6-0.5-0.8
				c-0.2-0.2-0.5-0.4-0.8-0.5c-0.3-0.1-0.7-0.2-1.2-0.2h-1.2v5.2H33z"/>
			<path class="st0" d="M48.2,250.7h1.9v3.3h3.7v-3.3h1.9v8.6h-1.9v-3.5h-3.7v3.5h-1.9V250.7z"/>
			<path class="st0" d="M62.3,259.5c-0.6,0-1.2-0.1-1.8-0.3c-0.5-0.2-1-0.5-1.4-1c-0.4-0.4-0.7-0.9-0.9-1.4
				c-0.2-0.6-0.3-1.1-0.3-1.8c0-0.6,0.1-1.2,0.3-1.8c0.2-0.5,0.5-1,0.9-1.4c0.4-0.4,0.9-0.7,1.4-1c0.5-0.2,1.1-0.3,1.8-0.3
				c0.6,0,1.2,0.1,1.8,0.3c0.5,0.2,1,0.5,1.4,1c0.4,0.4,0.7,0.9,0.9,1.4c0.2,0.5,0.3,1.1,0.3,1.8c0,0.6-0.1,1.2-0.3,1.8
				c-0.2,0.6-0.5,1-0.9,1.4c-0.4,0.4-0.9,0.7-1.4,1C63.5,259.4,62.9,259.5,62.3,259.5z M62.3,257.7c0.4,0,0.7-0.1,1-0.2
				c0.3-0.1,0.6-0.3,0.8-0.6c0.2-0.2,0.4-0.5,0.5-0.9c0.1-0.3,0.2-0.7,0.2-1c0-0.4-0.1-0.7-0.2-1c-0.1-0.3-0.3-0.6-0.5-0.9
				c-0.2-0.2-0.5-0.4-0.8-0.6c-0.3-0.1-0.6-0.2-1-0.2c-0.4,0-0.7,0.1-1,0.2c-0.3,0.1-0.6,0.3-0.8,0.6c-0.2,0.2-0.4,0.5-0.5,0.9
				c-0.1,0.3-0.2,0.7-0.2,1c0,0.4,0.1,0.7,0.2,1c0.1,0.3,0.3,0.6,0.5,0.9c0.2,0.2,0.5,0.4,0.8,0.6C61.6,257.6,61.9,257.7,62.3,257.7
				z"/>
			<path class="st0" d="M68.7,250.7h1.9v6.9h4.1v1.7h-6.1V250.7z"/>
			<path class="st0" d="M76.6,250.7h3.2c0.7,0,1.3,0.1,1.8,0.3c0.6,0.2,1,0.4,1.5,0.8c0.4,0.4,0.7,0.8,1,1.4
				c0.2,0.5,0.3,1.2,0.3,1.9c0,0.7-0.1,1.3-0.3,1.9c-0.2,0.5-0.6,1-1,1.3c-0.4,0.4-0.9,0.6-1.5,0.8c-0.6,0.2-1.2,0.3-1.8,0.3h-3.2
				V250.7z M79.7,257.6c0.9,0,1.5-0.2,2-0.7c0.5-0.5,0.7-1.1,0.7-1.9c0-0.4-0.1-0.8-0.2-1.1c-0.1-0.3-0.3-0.6-0.5-0.8
				c-0.2-0.2-0.5-0.4-0.8-0.5c-0.3-0.1-0.7-0.2-1.2-0.2h-1.2v5.2H79.7z"/>
			<path class="st0" d="M86.5,250.7h1.9v8.6h-1.9V250.7z"/>
			<path class="st0" d="M90.7,250.7h1.9l3.7,5.6v-5.6h1.9v8.6h-1.8l-3.8-5.7v5.7h-1.9V250.7z"/>
			<path class="st0" d="M105,254.6h3.3v3.7c-0.4,0.4-1,0.7-1.6,0.9c-0.6,0.2-1.3,0.3-2,0.3c-0.7,0-1.3-0.1-1.9-0.3
				c-0.6-0.2-1-0.5-1.4-0.9c-0.4-0.4-0.7-0.9-0.9-1.4c-0.2-0.5-0.3-1.2-0.3-1.8c0-0.6,0.1-1.2,0.3-1.8c0.2-0.5,0.5-1,0.9-1.4
				c0.4-0.4,0.9-0.7,1.4-1c0.5-0.2,1.1-0.3,1.8-0.3c0.8,0,1.5,0.1,2.1,0.4c0.6,0.3,1.1,0.7,1.5,1.2l-1.3,1.2
				c-0.3-0.3-0.6-0.6-0.9-0.8c-0.3-0.2-0.7-0.3-1.2-0.3c-0.4,0-0.7,0.1-1.1,0.2c-0.3,0.1-0.6,0.3-0.8,0.6c-0.2,0.2-0.4,0.5-0.5,0.9
				c-0.1,0.3-0.2,0.7-0.2,1.1c0,0.4,0.1,0.8,0.2,1.1c0.1,0.3,0.3,0.6,0.5,0.9c0.2,0.2,0.5,0.4,0.8,0.5c0.3,0.1,0.7,0.2,1,0.2
				c0.3,0,0.7,0,0.9-0.1c0.3-0.1,0.5-0.2,0.8-0.4v-1.1H105V254.6z"/>
			<path class="st0" d="M121.2,252.4h-2.8v-1.7h7.5v1.7h-2.8v6.9h-2V252.4z"/>
			<path class="st0" d="M127.7,250.7h1.9v3.3h3.7v-3.3h1.9v8.6h-1.9v-3.5h-3.7v3.5h-1.9V250.7z"/>
			<path class="st0" d="M137.6,250.7h5.9v1.7h-3.9v1.7h3.1v1.6h-3.1v1.9h4.2v1.7h-6.2V250.7z"/>
			<path class="st0" d="M153.6,250.7h2.1l1.3,6.2l1.5-6h1.8l1.5,6l1.2-6.2h2l-2.2,8.6h-2l-1.5-5.6l-1.5,5.6h-2L153.6,250.7z"/>
			<path class="st0" d="M168.4,250.7h2.2l3.1,8.6h-2.1l-0.7-2h-3l-0.7,2h-2L168.4,250.7z M170.4,255.8l-1-3.2l-1.1,3.2H170.4z"/>
			<path class="st0" d="M176.2,255.7l-3-5h2.2l1.9,3.2l1.8-3.2h2.1l-3,5v3.6h-2V255.7z"/>
		</g>
		<g>
			<g>
				<path class="st0" d="M3,275l-3-5h2.2l1.9,3.2l1.8-3.2H8l-3,5v3.6H3V275z"/>
				<path class="st0" d="M12.9,278.8c-0.6,0-1.2-0.1-1.8-0.3c-0.5-0.2-1-0.5-1.4-1c-0.4-0.4-0.7-0.9-0.9-1.4
					c-0.2-0.6-0.3-1.1-0.3-1.8c0-0.6,0.1-1.2,0.3-1.8c0.2-0.5,0.5-1,0.9-1.4c0.4-0.4,0.9-0.7,1.4-1c0.5-0.2,1.1-0.3,1.8-0.3
					c0.6,0,1.2,0.1,1.8,0.3c0.5,0.2,1,0.5,1.4,1c0.4,0.4,0.7,0.9,0.9,1.4c0.2,0.5,0.3,1.1,0.3,1.8c0,0.6-0.1,1.2-0.3,1.8
					c-0.2,0.6-0.5,1-0.9,1.4c-0.4,0.4-0.9,0.7-1.4,1C14.1,278.6,13.6,278.8,12.9,278.8z M12.9,276.9c0.4,0,0.7-0.1,1-0.2
					c0.3-0.1,0.6-0.3,0.8-0.6c0.2-0.2,0.4-0.5,0.5-0.9c0.1-0.3,0.2-0.7,0.2-1c0-0.4-0.1-0.7-0.2-1c-0.1-0.3-0.3-0.6-0.5-0.9
					c-0.2-0.2-0.5-0.4-0.8-0.6c-0.3-0.1-0.6-0.2-1-0.2c-0.4,0-0.7,0.1-1,0.2c-0.3,0.1-0.6,0.3-0.8,0.6c-0.2,0.2-0.4,0.5-0.5,0.9
					c-0.1,0.3-0.2,0.7-0.2,1c0,0.4,0.1,0.7,0.2,1c0.1,0.3,0.3,0.6,0.5,0.9c0.2,0.2,0.5,0.4,0.8,0.6
					C12.2,276.9,12.5,276.9,12.9,276.9z"/>
				<path class="st0" d="M19.3,270h2v5.1c0,0.3,0,0.5,0.1,0.8c0.1,0.2,0.1,0.4,0.3,0.6c0.1,0.2,0.3,0.3,0.5,0.4
					c0.2,0.1,0.5,0.1,0.8,0.1c0.3,0,0.6,0,0.8-0.1c0.2-0.1,0.4-0.2,0.5-0.4c0.1-0.2,0.2-0.4,0.3-0.6c0.1-0.2,0.1-0.5,0.1-0.8V270h2
					v5.3c0,0.5-0.1,1-0.3,1.4c-0.2,0.4-0.4,0.8-0.7,1.1c-0.3,0.3-0.7,0.5-1.1,0.7c-0.4,0.2-0.9,0.3-1.5,0.3c-0.5,0-1-0.1-1.5-0.3
					c-0.4-0.2-0.8-0.4-1.1-0.7c-0.3-0.3-0.6-0.7-0.7-1.1c-0.2-0.4-0.3-0.9-0.3-1.4V270z"/>
				<path class="st0" d="M29,270h2l-0.9,2.9h-1.4L29,270z"/>
				<path class="st0" d="M33,270H35v6.9h4.1v1.7H33V270z"/>
				<path class="st0" d="M40.9,270h1.9v6.9h4.1v1.7h-6.1V270z"/>
				<path class="st0" d="M76.1,270h2.2l3.1,8.6h-2.1l-0.7-2h-3l-0.7,2h-2L76.1,270z M78.1,275.1l-1-3.2l-1.1,3.2H78.1z"/>
				<path class="st0" d="M83,270h3.1c0.5,0,1,0.1,1.4,0.2c0.4,0.2,0.7,0.4,0.9,0.6c0.2,0.3,0.4,0.5,0.5,0.9c0.1,0.3,0.2,0.7,0.2,1
					c0,0.5-0.1,0.9-0.2,1.2c-0.2,0.3-0.4,0.6-0.6,0.9c-0.3,0.2-0.6,0.4-0.9,0.5c-0.4,0.1-0.7,0.2-1.1,0.2h-1.3v3H83V270z M86,273.9
					c0.4,0,0.6-0.1,0.9-0.3c0.2-0.2,0.3-0.5,0.3-0.9c0-0.4-0.1-0.7-0.3-0.9c-0.2-0.2-0.5-0.3-0.9-0.3h-1.1v2.4H86z"/>
				<path class="st0" d="M91.1,270h3.1c0.5,0,1,0.1,1.4,0.2c0.4,0.2,0.7,0.4,0.9,0.6c0.2,0.3,0.4,0.5,0.5,0.9c0.1,0.3,0.2,0.7,0.2,1
					c0,0.5-0.1,0.9-0.2,1.2c-0.2,0.3-0.4,0.6-0.6,0.9c-0.3,0.2-0.6,0.4-0.9,0.5c-0.4,0.1-0.7,0.2-1.1,0.2h-1.3v3h-1.9V270z
					 M94.1,273.9c0.4,0,0.6-0.1,0.9-0.3c0.2-0.2,0.3-0.5,0.3-0.9c0-0.4-0.1-0.7-0.3-0.9c-0.2-0.2-0.5-0.3-0.9-0.3h-1.1v2.4H94.1z"/>
				<path class="st0" d="M99.1,270h3.2c0.5,0,0.9,0.1,1.3,0.2c0.4,0.1,0.7,0.3,0.9,0.6c0.3,0.2,0.4,0.5,0.6,0.9
					c0.1,0.3,0.2,0.7,0.2,1c0,0.6-0.1,1-0.4,1.5c-0.2,0.4-0.6,0.7-1,1l1.9,3.4h-2.1l-1.6-3.2H101v3.2h-1.9V270z M102.2,273.8
					c0.4,0,0.6-0.1,0.8-0.3c0.2-0.2,0.3-0.5,0.3-0.8c0-0.4-0.1-0.6-0.3-0.8s-0.5-0.3-0.8-0.3H101v2.3H102.2z"/>
				<path class="st0" d="M111.6,278.8c-0.6,0-1.2-0.1-1.8-0.3c-0.5-0.2-1-0.5-1.4-1c-0.4-0.4-0.7-0.9-0.9-1.4
					c-0.2-0.6-0.3-1.1-0.3-1.8c0-0.6,0.1-1.2,0.3-1.8c0.2-0.5,0.5-1,0.9-1.4c0.4-0.4,0.9-0.7,1.4-1c0.5-0.2,1.1-0.3,1.8-0.3
					c0.6,0,1.2,0.1,1.8,0.3c0.5,0.2,1,0.5,1.4,1c0.4,0.4,0.7,0.9,0.9,1.4c0.2,0.5,0.3,1.1,0.3,1.8c0,0.6-0.1,1.2-0.3,1.8
					c-0.2,0.6-0.5,1-0.9,1.4c-0.4,0.4-0.9,0.7-1.4,1C112.8,278.6,112.2,278.8,111.6,278.8z M111.6,276.9c0.4,0,0.7-0.1,1-0.2
					c0.3-0.1,0.6-0.3,0.8-0.6c0.2-0.2,0.4-0.5,0.5-0.9c0.1-0.3,0.2-0.7,0.2-1c0-0.4-0.1-0.7-0.2-1c-0.1-0.3-0.3-0.6-0.5-0.9
					c-0.2-0.2-0.5-0.4-0.8-0.6c-0.3-0.1-0.6-0.2-1-0.2c-0.4,0-0.7,0.1-1,0.2c-0.3,0.1-0.6,0.3-0.8,0.6c-0.2,0.2-0.4,0.5-0.5,0.9
					c-0.1,0.3-0.2,0.7-0.2,1c0,0.4,0.1,0.7,0.2,1c0.1,0.3,0.3,0.6,0.5,0.9c0.2,0.2,0.5,0.4,0.8,0.6
					C110.9,276.9,111.2,276.9,111.6,276.9z"/>
				<path class="st0" d="M117.3,270h2.2l2.1,6.3l2-6.3h2.1l-3.2,8.6h-2L117.3,270z"/>
				<path class="st0" d="M127.3,270h5.9v1.7h-3.9v1.7h3.1v1.6h-3.1v1.9h4.2v1.7h-6.2V270z"/>
				<path class="st0" d="M164.4,278.8c-0.6,0-1.2-0.1-1.8-0.3c-0.5-0.2-1-0.5-1.4-1c-0.4-0.4-0.7-0.9-0.9-1.4
					c-0.2-0.6-0.3-1.1-0.3-1.8c0-0.6,0.1-1.2,0.3-1.8c0.2-0.5,0.5-1,0.9-1.4c0.4-0.4,0.9-0.7,1.4-1c0.5-0.2,1.1-0.3,1.8-0.3
					c0.6,0,1.2,0.1,1.8,0.3c0.5,0.2,1,0.5,1.4,1c0.4,0.4,0.7,0.9,0.9,1.4c0.2,0.5,0.3,1.1,0.3,1.8c0,0.6-0.1,1.2-0.3,1.8
					c-0.2,0.6-0.5,1-0.9,1.4c-0.4,0.4-0.9,0.7-1.4,1C165.6,278.6,165,278.8,164.4,278.8z M164.4,276.9c0.4,0,0.7-0.1,1-0.2
					c0.3-0.1,0.6-0.3,0.8-0.6c0.2-0.2,0.4-0.5,0.5-0.9c0.1-0.3,0.2-0.7,0.2-1c0-0.4-0.1-0.7-0.2-1c-0.1-0.3-0.3-0.6-0.5-0.9
					c-0.2-0.2-0.5-0.4-0.8-0.6c-0.3-0.1-0.6-0.2-1-0.2c-0.4,0-0.7,0.1-1,0.2c-0.3,0.1-0.6,0.3-0.8,0.6c-0.2,0.2-0.4,0.5-0.5,0.9
					c-0.1,0.3-0.2,0.7-0.2,1c0,0.4,0.1,0.7,0.2,1c0.1,0.3,0.3,0.6,0.5,0.9c0.2,0.2,0.5,0.4,0.8,0.6
					C163.7,276.9,164,276.9,164.4,276.9z"/>
				<path class="st0" d="M170.9,270h5.8v1.7h-3.8v1.9h2.9v1.7h-2.9v3.3h-1.9V270z"/>
				<path class="st0" d="M179.2,278.5h-0.7v-2.1h2.1v2l-1.1,1.9h-1.1L179.2,278.5z"/>
			</g>
		</g>
		<g>
			<g>
				<path class="st1" d="M0,289.2h2.1l1.3,6.2l1.5-6h1.8l1.5,6l1.2-6.2h2l-2.2,8.6h-2l-1.5-5.6l-1.5,5.6h-2L0,289.2z"/>
				<path class="st1" d="M13,289.2h5.9v1.7H15v1.7H18v1.6H15v1.9h4.2v1.7H13V289.2z"/>
				<path class="st1" d="M34.4,289.2h2.1l1.3,6.2l1.5-6H41l1.5,6l1.2-6.2h2l-2.2,8.6h-2l-1.5-5.6l-1.5,5.6h-2L34.4,289.2z"/>
				<path class="st1" d="M47.4,289.2h5.9v1.7h-3.9v1.7h3.1v1.6h-3.1v1.9h4.2v1.7h-6.2V289.2z"/>
				<path class="st1" d="M55.5,289.2h1.9v6.9h4.1v1.7h-6.1V289.2z"/>
				<path class="st1" d="M70.7,296.2c-0.2,0.2-0.4,0.5-0.7,0.7c-0.3,0.2-0.5,0.4-0.9,0.6c-0.3,0.2-0.7,0.3-1,0.4
					c-0.4,0.1-0.7,0.1-1.1,0.1c-0.7,0-1.2-0.1-1.8-0.3c-0.5-0.2-1-0.5-1.4-0.9c-0.4-0.4-0.7-0.9-0.9-1.4c-0.2-0.5-0.3-1.1-0.3-1.8
					c0-0.6,0.1-1.2,0.3-1.8c0.2-0.6,0.5-1,0.9-1.4c0.4-0.4,0.9-0.7,1.4-1c0.5-0.2,1.1-0.4,1.8-0.4c0.8,0,1.5,0.1,2.1,0.4
					c0.6,0.3,1.1,0.7,1.5,1.3l-1.3,1.3c-0.3-0.4-0.6-0.7-0.9-0.9c-0.4-0.2-0.8-0.3-1.3-0.3c-0.4,0-0.7,0.1-1,0.2
					c-0.3,0.1-0.6,0.3-0.8,0.6c-0.2,0.2-0.4,0.5-0.5,0.9c-0.1,0.3-0.2,0.7-0.2,1c0,0.4,0.1,0.7,0.2,1.1c0.1,0.3,0.3,0.6,0.5,0.9
					c0.2,0.2,0.5,0.4,0.8,0.6c0.3,0.1,0.6,0.2,1,0.2c0.3,0,0.6,0,0.8-0.1c0.2-0.1,0.4-0.2,0.6-0.3c0.2-0.1,0.3-0.2,0.5-0.4
					c0.1-0.1,0.3-0.3,0.4-0.4L70.7,296.2z"/>
				<path class="st1" d="M76.3,298c-0.6,0-1.2-0.1-1.8-0.3c-0.5-0.2-1-0.5-1.4-1c-0.4-0.4-0.7-0.9-0.9-1.4c-0.2-0.6-0.3-1.1-0.3-1.8
					c0-0.6,0.1-1.2,0.3-1.8c0.2-0.5,0.5-1,0.9-1.4c0.4-0.4,0.9-0.7,1.4-1c0.5-0.2,1.1-0.3,1.8-0.3c0.6,0,1.2,0.1,1.8,0.3
					c0.5,0.2,1,0.5,1.4,1c0.4,0.4,0.7,0.9,0.9,1.4c0.2,0.5,0.3,1.1,0.3,1.8c0,0.6-0.1,1.2-0.3,1.8c-0.2,0.6-0.5,1-0.9,1.4
					c-0.4,0.4-0.9,0.7-1.4,1C77.5,297.9,76.9,298,76.3,298z M76.3,296.2c0.4,0,0.7-0.1,1-0.2c0.3-0.1,0.6-0.3,0.8-0.6
					c0.2-0.2,0.4-0.5,0.5-0.9c0.1-0.3,0.2-0.7,0.2-1c0-0.4-0.1-0.7-0.2-1c-0.1-0.3-0.3-0.6-0.5-0.9c-0.2-0.2-0.5-0.4-0.8-0.6
					c-0.3-0.1-0.6-0.2-1-0.2c-0.4,0-0.7,0.1-1,0.2c-0.3,0.1-0.6,0.3-0.8,0.6c-0.2,0.2-0.4,0.5-0.5,0.9c-0.1,0.3-0.2,0.7-0.2,1
					c0,0.4,0.1,0.7,0.2,1c0.1,0.3,0.3,0.6,0.5,0.9c0.2,0.2,0.5,0.4,0.8,0.6C75.5,296.1,75.9,296.2,76.3,296.2z"/>
				<path class="st1" d="M83,289.2h1.8l2.2,4l2.2-4h1.9l0.4,8.6h-1.9l-0.2-5.6l-1.8,3.3h-1l-1.9-3.3l-0.2,5.6h-1.9L83,289.2z"/>
				<path class="st1" d="M93.7,289.2h5.9v1.7h-3.9v1.7h3.1v1.6h-3.1v1.9h4.2v1.7h-6.2V289.2z"/>
				<path class="st1" d="M118,294.2l-3-5h2.2l1.9,3.2l1.8-3.2h2.1l-3,5v3.6h-2V294.2z"/>
				<path class="st1" d="M127.9,298c-0.6,0-1.2-0.1-1.8-0.3c-0.5-0.2-1-0.5-1.4-1c-0.4-0.4-0.7-0.9-0.9-1.4
					c-0.2-0.6-0.3-1.1-0.3-1.8c0-0.6,0.1-1.2,0.3-1.8c0.2-0.5,0.5-1,0.9-1.4c0.4-0.4,0.9-0.7,1.4-1c0.5-0.2,1.1-0.3,1.8-0.3
					c0.6,0,1.2,0.1,1.8,0.3c0.5,0.2,1,0.5,1.4,1c0.4,0.4,0.7,0.9,0.9,1.4c0.2,0.5,0.3,1.1,0.3,1.8c0,0.6-0.1,1.2-0.3,1.8
					c-0.2,0.6-0.5,1-0.9,1.4c-0.4,0.4-0.9,0.7-1.4,1C129.1,297.9,128.5,298,127.9,298z M127.9,296.2c0.4,0,0.7-0.1,1-0.2
					c0.3-0.1,0.6-0.3,0.8-0.6c0.2-0.2,0.4-0.5,0.5-0.9c0.1-0.3,0.2-0.7,0.2-1c0-0.4-0.1-0.7-0.2-1c-0.1-0.3-0.3-0.6-0.5-0.9
					c-0.2-0.2-0.5-0.4-0.8-0.6s-0.6-0.2-1-0.2c-0.4,0-0.7,0.1-1,0.2c-0.3,0.1-0.6,0.3-0.8,0.6c-0.2,0.2-0.4,0.5-0.5,0.9
					c-0.1,0.3-0.2,0.7-0.2,1c0,0.4,0.1,0.7,0.2,1c0.1,0.3,0.3,0.6,0.5,0.9c0.2,0.2,0.5,0.4,0.8,0.6
					C127.2,296.1,127.5,296.2,127.9,296.2z"/>
				<path class="st1" d="M134.3,289.2h2v5.1c0,0.3,0,0.5,0.1,0.8c0.1,0.2,0.1,0.4,0.3,0.6c0.1,0.2,0.3,0.3,0.5,0.4
					c0.2,0.1,0.5,0.1,0.8,0.1c0.3,0,0.6,0,0.8-0.1c0.2-0.1,0.4-0.2,0.5-0.4c0.1-0.2,0.2-0.4,0.3-0.6c0.1-0.2,0.1-0.5,0.1-0.8v-5.1h2
					v5.3c0,0.5-0.1,1-0.3,1.4c-0.2,0.4-0.4,0.8-0.7,1.1c-0.3,0.3-0.7,0.5-1.1,0.7c-0.4,0.2-0.9,0.3-1.5,0.3c-0.5,0-1-0.1-1.5-0.3
					c-0.4-0.2-0.8-0.4-1.1-0.7c-0.3-0.3-0.6-0.7-0.7-1.1c-0.2-0.4-0.3-0.9-0.3-1.4V289.2z"/>
				<path class="st1" d="M160.1,289.2h2.2l3.1,8.6h-2.1l-0.7-2h-3l-0.7,2h-2L160.1,289.2z M162.2,294.3l-1-3.2l-1.1,3.2H162.2z"/>
				<path class="st1" d="M167,289.2h1.9v6.9h4.1v1.7H167V289.2z"/>
				<path class="st1" d="M174.9,289.2h1.9v6.9h4.1v1.7h-6.1V289.2z"/>
			</g>
		</g>
	</g>
</g>
</svg>
