<?xml version="1.0" encoding="utf-8"?>
<!-- Generator: Adobe Illustrator 22.0.1, SVG Export Plug-In . SVG Version: 6.00 Build 0)  -->
<svg version="1.1" id="Layer_1" xmlns="http://www.w3.org/2000/svg" xmlns:xlink="http://www.w3.org/1999/xlink" x="0px" y="0px"
	 viewBox="0 0 655.8 381.7" style="enable-background:new 0 0 655.8 381.7;" xml:space="preserve">
<style type="text/css">
	.st0{fill:#FFFFFF;}
	.st1{fill:#E30613;}
</style>
<g>
	<g>
		<path class="st0" d="M10.7,7H0.7V0.8h27.2V7h-10V32h-7.1V7z"/>
		<path class="st0" d="M47.2,32.7c-2.3,0-4.4-0.4-6.4-1.3c-2-0.8-3.7-2-5.1-3.5c-1.4-1.5-2.6-3.2-3.4-5.2c-0.8-2-1.2-4.2-1.2-6.5
			c0-2.3,0.4-4.5,1.2-6.5c0.8-2,2-3.7,3.4-5.2c1.4-1.5,3.2-2.6,5.1-3.5c2-0.8,4.1-1.3,6.4-1.3c2.3,0,4.4,0.4,6.4,1.3
			c2,0.8,3.7,2,5.1,3.5c1.4,1.5,2.6,3.2,3.4,5.2c0.8,2,1.2,4.2,1.2,6.5c0,2.3-0.4,4.5-1.2,6.5c-0.8,2-2,3.7-3.4,5.2
			c-1.4,1.5-3.2,2.6-5.1,3.5C51.6,32.3,49.5,32.7,47.2,32.7z M47.2,26.1c1.4,0,2.6-0.3,3.7-0.8c1.1-0.5,2-1.2,2.8-2.1
			c0.8-0.9,1.3-1.9,1.7-3.1c0.4-1.2,0.6-2.4,0.6-3.8c0-1.3-0.2-2.6-0.6-3.8c-0.4-1.2-1-2.2-1.7-3.1c-0.8-0.9-1.7-1.6-2.8-2.1
			c-1.1-0.5-2.3-0.8-3.7-0.8c-1.4,0-2.6,0.3-3.7,0.8c-1.1,0.5-2,1.2-2.8,2.1c-0.8,0.9-1.3,1.9-1.7,3.1c-0.4,1.2-0.6,2.4-0.6,3.8
			c0,1.3,0.2,2.6,0.6,3.8c0.4,1.2,1,2.2,1.7,3.1c0.8,0.9,1.7,1.6,2.8,2.1C44.6,25.9,45.8,26.1,47.2,26.1z"/>
		<path class="st0" d="M95.8,0.8h7.8L114.9,32h-7.7l-2.4-7.1h-11L91.5,32h-7.4L95.8,0.8z M103.2,19.4L99.4,7.6l-3.9,11.8H103.2z"/>
		<path class="st0" d="M120.7,0.8h7v24.9h14.9V32h-21.9V0.8z"/>
		<path class="st0" d="M149.1,0.8h7v24.9H171V32h-21.9V0.8z"/>
		<path class="st0" d="M201.9,7h-10.1V0.8H219V7h-10V32h-7.1V7z"/>
		<path class="st0" d="M225.3,0.8h7v11.9h13.5V0.8h7V32h-7V19.2h-13.5V32h-7V0.8z"/>
		<path class="st0" d="M276.3,32.7c-2.3,0-4.4-0.4-6.4-1.3c-2-0.8-3.7-2-5.1-3.5c-1.4-1.5-2.6-3.2-3.4-5.2c-0.8-2-1.2-4.2-1.2-6.5
			c0-2.3,0.4-4.5,1.2-6.5c0.8-2,2-3.7,3.4-5.2c1.4-1.5,3.2-2.6,5.1-3.5c2-0.8,4.1-1.3,6.4-1.3s4.4,0.4,6.4,1.3c2,0.8,3.7,2,5.1,3.5
			c1.4,1.5,2.6,3.2,3.4,5.2c0.8,2,1.2,4.2,1.2,6.5c0,2.3-0.4,4.5-1.2,6.5c-0.8,2-2,3.7-3.4,5.2c-1.4,1.5-3.2,2.6-5.1,3.5
			C280.7,32.3,278.6,32.7,276.3,32.7z M276.3,26.1c1.4,0,2.6-0.3,3.7-0.8c1.1-0.5,2-1.2,2.8-2.1c0.8-0.9,1.3-1.9,1.7-3.1
			c0.4-1.2,0.6-2.4,0.6-3.8c0-1.3-0.2-2.6-0.6-3.8c-0.4-1.2-1-2.2-1.7-3.1C282,8.5,281,7.8,280,7.3c-1.1-0.5-2.3-0.8-3.7-0.8
			c-1.4,0-2.6,0.3-3.7,0.8c-1.1,0.5-2,1.2-2.8,2.1c-0.8,0.9-1.3,1.9-1.7,3.1c-0.4,1.2-0.6,2.4-0.6,3.8c0,1.3,0.2,2.6,0.6,3.8
			c0.4,1.2,1,2.2,1.7,3.1c0.8,0.9,1.7,1.6,2.8,2.1C273.7,25.9,274.9,26.1,276.3,26.1z"/>
		<path class="st0" d="M301.6,22.7c0.4,0.4,0.9,0.9,1.4,1.3c0.5,0.5,1.2,0.9,1.8,1.2c0.7,0.4,1.4,0.7,2.2,0.9
			c0.8,0.2,1.6,0.3,2.5,0.3c0.5,0,1.1-0.1,1.6-0.2c0.5-0.2,1-0.4,1.4-0.7c0.4-0.3,0.8-0.7,1-1.1c0.3-0.4,0.4-0.9,0.4-1.4
			c0-1.2-0.6-2-1.7-2.7c-1.1-0.6-2.9-1.3-5.3-1.9c-1.2-0.3-2.3-0.7-3.3-1.2c-1-0.5-1.9-1.2-2.6-1.9c-0.7-0.7-1.3-1.6-1.7-2.6
			c-0.4-1-0.6-2-0.6-3.2c0-1.3,0.2-2.5,0.7-3.7c0.5-1.2,1.2-2.2,2.1-3.1c0.9-0.9,2.1-1.6,3.5-2.1c1.4-0.5,3.1-0.8,5-0.8
			c1.6,0,3,0.2,4.2,0.5c1.2,0.3,2.2,0.7,3.1,1.2c0.9,0.5,1.6,0.9,2.1,1.4c0.5,0.5,1,0.9,1.2,1.1l-4.1,4.5c-0.3-0.3-0.7-0.6-1.2-0.9
			c-0.5-0.3-1-0.6-1.5-0.9c-0.6-0.3-1.2-0.5-1.8-0.7c-0.7-0.2-1.4-0.3-2.1-0.3c-0.5,0-1,0.1-1.5,0.2c-0.5,0.2-0.9,0.4-1.3,0.6
			c-0.4,0.3-0.7,0.6-0.9,0.9c-0.2,0.4-0.4,0.7-0.4,1.1c0,1.1,0.6,1.9,1.7,2.6c1.1,0.7,2.7,1.2,4.6,1.6c1.2,0.3,2.3,0.7,3.4,1.1
			c1.1,0.5,2.1,1.1,3,1.9c0.9,0.8,1.6,1.7,2.1,2.9c0.5,1.1,0.8,2.5,0.8,4.1c0,1.4-0.3,2.7-0.9,3.9c-0.6,1.2-1.5,2.2-2.5,3.1
			c-1.1,0.9-2.3,1.5-3.8,2c-1.4,0.5-3,0.7-4.7,0.7c-1.6,0-3-0.1-4.2-0.4c-1.3-0.3-2.4-0.7-3.5-1.2c-1-0.5-2-1-2.8-1.7
			c-0.8-0.6-1.5-1.3-2.1-1.9L301.6,22.7z"/>
		<path class="st0" d="M329.2,0.8h21.3V7h-14.2v6.1h11.1v6h-11.1v6.7h15.3V32h-22.3V0.8z"/>
		<path class="st0" d="M382.9,7h-10.1V0.8H400V7h-10V32h-7.1V7z"/>
		<path class="st0" d="M406.4,0.8h7v11.9h13.5V0.8h7V32h-7V19.2h-13.5V32h-7V0.8z"/>
		<path class="st0" d="M451.2,0.8h7.8L470.4,32h-7.7l-2.4-7.1h-11L447,32h-7.4L451.2,0.8z M458.6,19.4l-3.8-11.8L451,19.4H458.6z"/>
		<path class="st0" d="M479.1,7H469V0.8h27.2V7h-10V32h-7.1V7z"/>
		<path class="st0" d="M516.3,0.8h7.6l4.6,22.5l5.5-21.7h6.4l5.5,21.7l4.5-22.5h7.3L549.7,32h-7.4L537,11.6L531.5,32h-7.4L516.3,0.8
			z"/>
		<path class="st0" d="M570,0.8h7.8L589.2,32h-7.7l-2.4-7.1h-11l-2.4,7.1h-7.4L570,0.8z M577.4,19.4l-3.8-11.8l-3.9,11.8H577.4z"/>
		<path class="st0" d="M594.9,0.8h6.7L615.1,21V0.8h7V32h-6.4l-13.8-20.6V32h-7V0.8z"/>
		<path class="st0" d="M638.5,7h-10.1V0.8h27.2V7h-10V32h-7.1V7z"/>
	</g>
	<g>
		<path class="st0" d="M17.7,102.5c-2.3,0-4.4-0.4-6.4-1.3c-2-0.8-3.7-2-5.1-3.5c-1.4-1.5-2.6-3.2-3.4-5.2c-0.8-2-1.2-4.2-1.2-6.5
			c0-2.3,0.4-4.5,1.2-6.5c0.8-2,2-3.7,3.4-5.2c1.4-1.5,3.2-2.6,5.1-3.5c2-0.8,4.1-1.3,6.4-1.3c2.3,0,4.4,0.4,6.4,1.3
			c2,0.8,3.7,2,5.1,3.5c1.4,1.5,2.6,3.2,3.4,5.2c0.8,2,1.2,4.2,1.2,6.5c0,2.3-0.4,4.5-1.2,6.5c-0.8,2-2,3.7-3.4,5.2
			c-1.4,1.5-3.2,2.6-5.1,3.5C22.1,102.1,20,102.5,17.7,102.5z M17.7,95.9c1.4,0,2.6-0.3,3.7-0.8c1.1-0.5,2-1.2,2.8-2.1
			c0.8-0.9,1.3-1.9,1.7-3.1c0.4-1.2,0.6-2.4,0.6-3.8c0-1.3-0.2-2.6-0.6-3.8c-0.4-1.2-1-2.2-1.7-3.1c-0.8-0.9-1.7-1.6-2.8-2.1
			c-1.1-0.5-2.3-0.8-3.7-0.8c-1.4,0-2.6,0.3-3.7,0.8c-1.1,0.5-2,1.2-2.8,2.1c-0.8,0.9-1.3,1.9-1.7,3.1c-0.4,1.2-0.6,2.4-0.6,3.8
			c0,1.3,0.2,2.6,0.6,3.8c0.4,1.2,1,2.2,1.7,3.1c0.8,0.9,1.7,1.6,2.8,2.1C15.1,95.7,16.3,95.9,17.7,95.9z"/>
		<path class="st0" d="M41.1,70.6h6.7l13.5,20.2V70.6h7v31.1h-6.4L48,81.2v20.6h-7V70.6z"/>
		<path class="st0" d="M76.6,70.6h21.3v6.2H83.6v6.1h11.1v6H83.6v6.7h15.3v6.2H76.6V70.6z"/>
		<path class="st0" d="M108.6,101.7h-2.7v-7.5h7.7v7.4l-3.9,6.7h-4.1L108.6,101.7z"/>
		<path class="st0" d="M138.3,70.6h7.8l11.4,31.1h-7.7l-2.4-7.1h-11l-2.4,7.1h-7.4L138.3,70.6z M145.7,89.2l-3.8-11.8L138,89.2
			H145.7z"/>
		<path class="st0" d="M163.2,70.6h6.7l13.5,20.2V70.6h7v31.1h-6.4l-13.8-20.6v20.6h-7V70.6z"/>
		<path class="st0" d="M198.7,70.6h11.8c2.4,0,4.6,0.3,6.6,0.9c2,0.6,3.8,1.6,5.3,2.8c1.5,1.3,2.6,2.9,3.5,4.9c0.8,2,1.2,4.3,1.2,7
			c0,2.6-0.4,4.8-1.3,6.7s-2,3.5-3.5,4.8c-1.5,1.3-3.2,2.3-5.3,2.9c-2,0.6-4.3,1-6.6,1h-11.7V70.6z M210.1,95.5
			c3.1,0,5.5-0.8,7.2-2.4c1.7-1.6,2.5-3.9,2.5-6.7c0-1.4-0.2-2.7-0.6-3.9c-0.4-1.2-1-2.2-1.8-3c-0.8-0.8-1.8-1.5-3-1.9
			c-1.2-0.5-2.7-0.7-4.3-0.7h-4.3v18.7H210.1z"/>
		<path class="st0" d="M257.3,102.5c-2.3,0-4.4-0.4-6.4-1.3c-2-0.8-3.7-2-5.1-3.5c-1.4-1.5-2.6-3.2-3.4-5.2c-0.8-2-1.2-4.2-1.2-6.5
			c0-2.3,0.4-4.5,1.2-6.5c0.8-2,2-3.7,3.4-5.2c1.4-1.5,3.2-2.6,5.1-3.5c2-0.8,4.1-1.3,6.4-1.3c2.3,0,4.4,0.4,6.4,1.3
			c2,0.8,3.7,2,5.1,3.5c1.4,1.5,2.6,3.2,3.4,5.2c0.8,2,1.2,4.2,1.2,6.5c0,2.3-0.4,4.5-1.2,6.5c-0.8,2-2,3.7-3.4,5.2
			c-1.4,1.5-3.2,2.6-5.1,3.5C261.8,102.1,259.6,102.5,257.3,102.5z M257.3,95.9c1.4,0,2.6-0.3,3.7-0.8c1.1-0.5,2-1.2,2.8-2.1
			c0.8-0.9,1.3-1.9,1.7-3.1c0.4-1.2,0.6-2.4,0.6-3.8c0-1.3-0.2-2.6-0.6-3.8c-0.4-1.2-1-2.2-1.7-3.1c-0.8-0.9-1.7-1.6-2.8-2.1
			c-1.1-0.5-2.3-0.8-3.7-0.8c-1.4,0-2.6,0.3-3.7,0.8c-1.1,0.5-2,1.2-2.8,2.1c-0.8,0.9-1.3,1.9-1.7,3.1c-0.4,1.2-0.6,2.4-0.6,3.8
			c0,1.3,0.2,2.6,0.6,3.8c0.4,1.2,1,2.2,1.7,3.1c0.8,0.9,1.7,1.6,2.8,2.1C254.7,95.7,256,95.9,257.3,95.9z"/>
		<path class="st0" d="M280.7,70.6h6.7l13.5,20.2V70.6h7v31.1h-6.4l-13.8-20.6v20.6h-7V70.6z"/>
		<path class="st0" d="M316.2,70.6h21.3v6.2h-14.2v6.1h11.1v6h-11.1v6.7h15.3v6.2h-22.3V70.6z"/>
		<path class="st0" d="M348,92.5c0.4,0.4,0.9,0.9,1.4,1.3c0.5,0.5,1.2,0.9,1.8,1.2c0.7,0.4,1.4,0.7,2.2,0.9c0.8,0.2,1.6,0.3,2.5,0.3
			c0.5,0,1.1-0.1,1.6-0.2c0.5-0.2,1-0.4,1.4-0.7c0.4-0.3,0.8-0.7,1-1.1c0.3-0.4,0.4-0.9,0.4-1.4c0-1.2-0.6-2-1.7-2.7
			c-1.1-0.6-2.9-1.3-5.3-1.9c-1.2-0.3-2.3-0.7-3.3-1.2c-1-0.5-1.9-1.2-2.6-1.9c-0.7-0.7-1.3-1.6-1.7-2.6c-0.4-1-0.6-2-0.6-3.2
			c0-1.3,0.2-2.5,0.7-3.7c0.5-1.2,1.2-2.2,2.1-3.1c0.9-0.9,2.1-1.6,3.5-2.1c1.4-0.5,3.1-0.8,5-0.8c1.6,0,3,0.2,4.2,0.5
			c1.2,0.3,2.2,0.7,3.1,1.2c0.9,0.5,1.6,0.9,2.1,1.4c0.5,0.5,1,0.9,1.2,1.1l-4.1,4.5c-0.3-0.3-0.7-0.6-1.2-0.9
			c-0.5-0.3-1-0.6-1.5-0.9c-0.6-0.3-1.2-0.5-1.8-0.7c-0.7-0.2-1.4-0.3-2.1-0.3c-0.5,0-1,0.1-1.5,0.2c-0.5,0.2-0.9,0.4-1.3,0.6
			c-0.4,0.3-0.7,0.6-0.9,0.9c-0.2,0.4-0.4,0.7-0.4,1.1c0,1.1,0.6,1.9,1.7,2.6c1.1,0.7,2.7,1.2,4.6,1.6c1.2,0.3,2.3,0.7,3.4,1.1
			c1.1,0.5,2.1,1.1,3,1.9c0.9,0.8,1.6,1.7,2.1,2.9c0.5,1.1,0.8,2.5,0.8,4.1c0,1.4-0.3,2.7-0.9,3.9c-0.6,1.2-1.5,2.2-2.5,3.1
			c-1.1,0.9-2.3,1.5-3.8,2c-1.4,0.5-3,0.7-4.7,0.7c-1.6,0-3-0.1-4.2-0.4c-1.3-0.3-2.4-0.7-3.5-1.2c-1-0.5-2-1-2.8-1.7
			c-0.8-0.6-1.5-1.3-2.1-1.9L348,92.5z"/>
		<path class="st0" d="M391.5,76.8h-10.1v-6.2h27.2v6.2h-10v24.9h-7.1V76.8z"/>
		<path class="st0" d="M415,70.6h7v11.9h13.5V70.6h7v31.1h-7V89H422v12.8h-7V70.6z"/>
		<path class="st0" d="M459.8,70.6h7.8l11.4,31.1h-7.7l-2.4-7.1h-11l-2.4,7.1h-7.4L459.8,70.6z M467.3,89.2l-3.8-11.8l-3.9,11.8
			H467.3z"/>
		<path class="st0" d="M487.8,76.8h-10.1v-6.2h27.2v6.2h-10v24.9h-7.1V76.8z"/>
		<path class="st0" d="M516.5,70.6h7.6l4.6,22.5l5.5-21.7h6.4l5.5,21.7l4.5-22.5h7.3l-7.9,31.1h-7.4l-5.3-20.3l-5.4,20.3h-7.4
			L516.5,70.6z"/>
		<path class="st0" d="M570.2,70.6h7.8l11.4,31.1h-7.7l-2.4-7.1h-11l-2.4,7.1h-7.4L570.2,70.6z M577.6,89.2l-3.8-11.8L570,89.2
			H577.6z"/>
		<path class="st0" d="M595.1,70.6h6.7l13.5,20.2V70.6h7v31.1h-6.4l-13.8-20.6v20.6h-7V70.6z"/>
		<path class="st0" d="M638.7,76.8h-10.1v-6.2h27.2v6.2h-10v24.9h-7.1V76.8z"/>
	</g>
	<g>
		<path class="st0" d="M11.6,140.4h7.8l11.4,31.1h-7.7l-2.4-7.1h-11l-2.4,7.1H0L11.6,140.4z M19,158.9l-3.8-11.8l-3.9,11.8H19z"/>
		<path class="st0" d="M44.2,140.4h11.7c1.9,0,3.6,0.2,4.9,0.7c1.3,0.5,2.4,1,3.3,1.8c0.8,0.7,1.4,1.6,1.8,2.6c0.4,1,0.6,2,0.6,3.1
			c0,1-0.2,1.9-0.5,2.6c-0.4,0.8-0.8,1.4-1.3,2c-0.5,0.5-1,1-1.5,1.3c-0.5,0.3-1,0.5-1.4,0.6c0.6,0.1,1.2,0.3,1.9,0.7
			c0.7,0.3,1.4,0.8,2.1,1.4c0.7,0.6,1.2,1.4,1.7,2.3c0.5,0.9,0.7,2,0.7,3.2c0,1.6-0.3,3-0.9,4.1c-0.6,1.1-1.4,2-2.4,2.8
			c-1,0.7-2.3,1.2-3.8,1.6c-1.5,0.3-3.2,0.5-5.1,0.5H44.2V140.4z M55.2,152.9c0.5,0,1-0.1,1.6-0.2c0.5-0.1,1-0.3,1.4-0.6
			c0.4-0.3,0.7-0.6,1-1.1c0.2-0.5,0.4-1,0.4-1.7c0-0.7-0.1-1.3-0.4-1.7c-0.2-0.5-0.6-0.8-1-1.1c-0.4-0.3-0.9-0.5-1.4-0.6
			c-0.5-0.1-1-0.2-1.5-0.2H51v7H55.2z M55.6,166.1c0.5,0,1.1,0,1.7-0.1c0.6-0.1,1.2-0.3,1.7-0.5c0.5-0.3,1-0.7,1.3-1.2
			c0.4-0.5,0.5-1.3,0.5-2.2c0-0.8-0.2-1.5-0.5-2.1c-0.3-0.5-0.8-0.9-1.3-1.2c-0.5-0.3-1.1-0.5-1.7-0.6c-0.6-0.1-1.2-0.2-1.7-0.2H51
			v8.1H55.6z"/>
		<path class="st0" d="M75.1,140.4h21.3v6.2H82.2v6.1h11.1v6H82.2v6.7h15.3v6.2H75.1V140.4z"/>
		<path class="st0" d="M112.5,146.6h-10.1v-6.2h27.2v6.2h-10v24.9h-7.1V146.6z"/>
		<path class="st0" d="M144.2,146.6h-10.1v-6.2h27.2v6.2h-10v24.9h-7.1V146.6z"/>
		<path class="st0" d="M167.7,140.4H189v6.2h-14.2v6.1h11.1v6h-11.1v6.7H190v6.2h-22.3V140.4z"/>
		<path class="st0" d="M197.1,140.4h11.6c1.8,0,3.4,0.3,4.8,0.8c1.4,0.5,2.5,1.2,3.4,2.1c0.9,0.9,1.6,1.9,2.1,3.1
			c0.5,1.2,0.7,2.4,0.7,3.8c0,2-0.4,3.8-1.3,5.3c-0.9,1.5-2.1,2.7-3.8,3.6l6.9,12.5h-7.7l-5.8-11.4H204v11.4h-6.9V140.4z
			 M208.3,154.5c1.3,0,2.3-0.4,3.1-1.2c0.7-0.8,1.1-1.8,1.1-2.9c0-1.3-0.4-2.3-1.1-3c-0.7-0.7-1.8-1.1-3.1-1.1H204v8.3H208.3z"/>
		<path class="st0" d="M250.3,172.3c-2.3,0-4.4-0.4-6.4-1.3c-2-0.8-3.7-2-5.1-3.5c-1.4-1.5-2.6-3.2-3.4-5.2c-0.8-2-1.2-4.2-1.2-6.5
			c0-2.3,0.4-4.5,1.2-6.5c0.8-2,2-3.7,3.4-5.2c1.4-1.5,3.2-2.6,5.1-3.5c2-0.8,4.1-1.3,6.4-1.3c2.3,0,4.4,0.4,6.4,1.3
			c2,0.8,3.7,2,5.1,3.5c1.4,1.5,2.6,3.2,3.4,5.2c0.8,2,1.2,4.2,1.2,6.5c0,2.3-0.4,4.5-1.2,6.5c-0.8,2-2,3.7-3.4,5.2
			c-1.4,1.5-3.2,2.6-5.1,3.5C254.8,171.9,252.6,172.3,250.3,172.3z M250.3,165.7c1.4,0,2.6-0.3,3.7-0.8c1.1-0.5,2-1.2,2.8-2.1
			c0.8-0.9,1.3-1.9,1.7-3.1c0.4-1.2,0.6-2.4,0.6-3.8c0-1.3-0.2-2.6-0.6-3.8c-0.4-1.2-1-2.2-1.7-3.1c-0.8-0.9-1.7-1.6-2.8-2.1
			c-1.1-0.5-2.3-0.8-3.7-0.8c-1.4,0-2.6,0.3-3.7,0.8c-1.1,0.5-2,1.2-2.8,2.1c-0.8,0.9-1.3,1.9-1.7,3.1c-0.4,1.2-0.6,2.4-0.6,3.8
			c0,1.3,0.2,2.6,0.6,3.8c0.4,1.2,1,2.2,1.7,3.1c0.8,0.9,1.7,1.6,2.8,2.1C247.7,165.4,249,165.7,250.3,165.7z"/>
		<path class="st0" d="M273.7,140.4h6.7l13.5,20.2v-20.2h7v31.1h-6.4L280.7,151v20.6h-7V140.4z"/>
		<path class="st0" d="M309.2,140.4h21.3v6.2h-14.2v6.1h11.1v6h-11.1v6.7h15.3v6.2h-22.3V140.4z"/>
	</g>
	<g>
		<path class="st1" d="M338.5,164.1h7.6v7.4h-7.6V164.1z"/>
	</g>
	<g>
		<path class="st0" d="M377.5,146.6h-10.1v-6.2h27.2v6.2h-10v24.9h-7.1V146.6z"/>
		<path class="st0" d="M413.9,172.3c-2.3,0-4.4-0.4-6.4-1.3c-2-0.8-3.7-2-5.1-3.5c-1.4-1.5-2.6-3.2-3.4-5.2c-0.8-2-1.2-4.2-1.2-6.5
			c0-2.3,0.4-4.5,1.2-6.5c0.8-2,2-3.7,3.4-5.2c1.4-1.5,3.2-2.6,5.1-3.5c2-0.8,4.1-1.3,6.4-1.3c2.3,0,4.4,0.4,6.4,1.3
			c2,0.8,3.7,2,5.1,3.5c1.4,1.5,2.6,3.2,3.4,5.2c0.8,2,1.2,4.2,1.2,6.5c0,2.3-0.4,4.5-1.2,6.5c-0.8,2-2,3.7-3.4,5.2
			c-1.4,1.5-3.2,2.6-5.1,3.5C418.4,171.9,416.2,172.3,413.9,172.3z M413.9,165.7c1.4,0,2.6-0.3,3.7-0.8c1.1-0.5,2-1.2,2.8-2.1
			c0.8-0.9,1.3-1.9,1.7-3.1c0.4-1.2,0.6-2.4,0.6-3.8c0-1.3-0.2-2.6-0.6-3.8c-0.4-1.2-1-2.2-1.7-3.1c-0.8-0.9-1.7-1.6-2.8-2.1
			c-1.1-0.5-2.3-0.8-3.7-0.8c-1.4,0-2.6,0.3-3.7,0.8c-1.1,0.5-2,1.2-2.8,2.1c-0.8,0.9-1.3,1.9-1.7,3.1c-0.4,1.2-0.6,2.4-0.6,3.8
			c0,1.3,0.2,2.6,0.6,3.8c0.4,1.2,1,2.2,1.7,3.1c0.8,0.9,1.7,1.6,2.8,2.1C411.3,165.4,412.6,165.7,413.9,165.7z"/>
		<path class="st0" d="M453.8,140.4h7.8l11.4,31.1h-7.7l-2.4-7.1h-11l-2.4,7.1h-7.4L453.8,140.4z M461.2,158.9l-3.8-11.8l-3.9,11.8
			H461.2z"/>
		<path class="st0" d="M478.7,140.4h7v24.9h14.9v6.3h-21.9V140.4z"/>
		<path class="st0" d="M507.1,140.4h7v24.9h14.9v6.3h-21.9V140.4z"/>
		<path class="st0" d="M540.6,140.4h7.6l4.6,22.5l5.5-21.7h6.4l5.5,21.7l4.5-22.5h7.3l-7.9,31.1h-7.4l-5.3-20.3l-5.4,20.3h-7.4
			L540.6,140.4z"/>
		<path class="st0" d="M587.8,140.4h7v11.9h13.5v-11.9h7v31.1h-7v-12.8h-13.5v12.8h-7V140.4z"/>
		<path class="st0" d="M638.7,172.3c-2.3,0-4.4-0.4-6.4-1.3c-2-0.8-3.7-2-5.1-3.5c-1.4-1.5-2.6-3.2-3.4-5.2c-0.8-2-1.2-4.2-1.2-6.5
			c0-2.3,0.4-4.5,1.2-6.5c0.8-2,2-3.7,3.4-5.2c1.4-1.5,3.2-2.6,5.1-3.5c2-0.8,4.1-1.3,6.4-1.3c2.3,0,4.4,0.4,6.4,1.3
			c2,0.8,3.7,2,5.1,3.5c1.4,1.5,2.6,3.2,3.4,5.2c0.8,2,1.2,4.2,1.2,6.5c0,2.3-0.4,4.5-1.2,6.5c-0.8,2-2,3.7-3.4,5.2
			c-1.4,1.5-3.2,2.6-5.1,3.5C643.1,171.9,641,172.3,638.7,172.3z M638.7,165.7c1.4,0,2.6-0.3,3.7-0.8c1.1-0.5,2-1.2,2.8-2.1
			c0.8-0.9,1.3-1.9,1.7-3.1c0.4-1.2,0.6-2.4,0.6-3.8c0-1.3-0.2-2.6-0.6-3.8c-0.4-1.2-1-2.2-1.7-3.1c-0.8-0.9-1.7-1.6-2.8-2.1
			c-1.1-0.5-2.3-0.8-3.7-0.8s-2.6,0.3-3.7,0.8c-1.1,0.5-2,1.2-2.8,2.1c-0.8,0.9-1.3,1.9-1.7,3.1c-0.4,1.2-0.6,2.4-0.6,3.8
			c0,1.3,0.2,2.6,0.6,3.8c0.4,1.2,1,2.2,1.7,3.1c0.8,0.9,1.7,1.6,2.8,2.1C636.1,165.4,637.3,165.7,638.7,165.7z"/>
	</g>
	<g>
		<path class="st0" d="M2.7,210.2h11.8c2.4,0,4.6,0.3,6.6,0.9c2,0.6,3.8,1.6,5.3,2.8c1.5,1.3,2.6,2.9,3.5,4.9c0.8,2,1.2,4.3,1.2,7
			c0,2.6-0.4,4.8-1.3,6.7c-0.8,1.9-2,3.5-3.5,4.8c-1.5,1.3-3.2,2.3-5.3,2.9c-2,0.6-4.3,1-6.6,1H2.7V210.2z M14,235.1
			c3.1,0,5.5-0.8,7.2-2.4c1.7-1.6,2.5-3.9,2.5-6.7c0-1.4-0.2-2.7-0.6-3.9c-0.4-1.2-1-2.2-1.8-3c-0.8-0.8-1.8-1.5-3-1.9
			c-1.2-0.5-2.7-0.7-4.3-0.7H9.7v18.7H14z"/>
		<path class="st0" d="M53.5,242.1c-2.3,0-4.4-0.4-6.4-1.3c-2-0.8-3.7-2-5.1-3.5c-1.4-1.5-2.6-3.2-3.4-5.2c-0.8-2-1.2-4.2-1.2-6.5
			c0-2.3,0.4-4.5,1.2-6.5c0.8-2,2-3.7,3.4-5.2c1.4-1.5,3.2-2.6,5.1-3.5c2-0.8,4.1-1.3,6.4-1.3c2.3,0,4.4,0.4,6.4,1.3
			c2,0.8,3.7,2,5.1,3.5c1.4,1.5,2.6,3.2,3.4,5.2c0.8,2,1.2,4.2,1.2,6.5c0,2.3-0.4,4.5-1.2,6.5c-0.8,2-2,3.7-3.4,5.2
			c-1.4,1.5-3.2,2.6-5.1,3.5C57.9,241.7,55.8,242.1,53.5,242.1z M53.5,235.5c1.4,0,2.6-0.3,3.7-0.8c1.1-0.5,2-1.2,2.8-2.1
			c0.8-0.9,1.3-1.9,1.7-3.1c0.4-1.2,0.6-2.4,0.6-3.8c0-1.3-0.2-2.6-0.6-3.8c-0.4-1.2-1-2.2-1.7-3.1c-0.8-0.9-1.7-1.6-2.8-2.1
			c-1.1-0.5-2.3-0.8-3.7-0.8c-1.4,0-2.6,0.3-3.7,0.8c-1.1,0.5-2,1.2-2.8,2.1c-0.8,0.9-1.3,1.9-1.7,3.1c-0.4,1.2-0.6,2.4-0.6,3.8
			c0,1.3,0.2,2.6,0.6,3.8c0.4,1.2,1,2.2,1.7,3.1c0.8,0.9,1.7,1.6,2.8,2.1C50.9,235.2,52.1,235.5,53.5,235.5z"/>
		<path class="st0" d="M76.8,210.2h6.7L97,230.4v-20.2h7v31.1h-6.4l-13.8-20.6v20.6h-7V210.2z"/>
		<path class="st0" d="M113.1,210.3h7.3l-3.4,10.7h-5L113.1,210.3z"/>
		<path class="st0" d="M135.8,216.4h-10.1v-6.2H153v6.2h-10v24.9h-7.1V216.4z"/>
		<path class="st0" d="M179.6,210.2h7v11.9h13.5v-11.9h7v31.1h-7v-12.8h-13.5v12.8h-7V210.2z"/>
		<path class="st0" d="M224.4,210.2h7.8l11.4,31.1h-7.7l-2.4-7.1h-11l-2.4,7.1h-7.4L224.4,210.2z M231.8,228.7L228,217l-3.9,11.8
			H231.8z"/>
		<path class="st0" d="M246.6,210.2h7.8l7.6,22.7l7.4-22.7h7.5l-11.4,31.1H258L246.6,210.2z"/>
		<path class="st0" d="M282.6,210.2h21.3v6.2h-14.2v6.1h11.1v6h-11.1v6.7h15.3v6.2h-22.3V210.2z"/>
		<path class="st0" d="M340.3,216.4h-10.1v-6.2h27.2v6.2h-10v24.9h-7.1V216.4z"/>
		<path class="st0" d="M363.8,210.2h7v31.1h-7V210.2z"/>
		<path class="st0" d="M380.2,210.2h6.7l8.1,14.6l7.9-14.6h6.7l1.4,31.1h-7l-0.9-20.3l-6.4,12.1H393l-6.8-12l-0.8,20.2h-6.7
			L380.2,210.2z"/>
		<path class="st0" d="M418.9,210.2h21.3v6.2H426v6.1H437v6H426v6.7h15.3v6.2h-22.3V210.2z"/>
		<path class="st0" d="M477.5,210.2h7.8l11.4,31.1H489l-2.4-7.1h-11l-2.4,7.1h-7.4L477.5,210.2z M484.9,228.7l-3.8-11.8l-3.9,11.8
			H484.9z"/>
		<path class="st0" d="M502.4,210.2h6.7l13.5,20.2v-20.2h7v31.1h-6.4l-13.8-20.6v20.6h-7V210.2z"/>
		<path class="st0" d="M538,210.2h11.8c2.4,0,4.6,0.3,6.6,0.9c2,0.6,3.8,1.6,5.3,2.8c1.5,1.3,2.6,2.9,3.5,4.9c0.8,2,1.2,4.3,1.2,7
			c0,2.6-0.4,4.8-1.3,6.7c-0.8,1.9-2,3.5-3.5,4.8c-1.5,1.3-3.2,2.3-5.3,2.9c-2,0.6-4.3,1-6.6,1H538V210.2z M549.3,235.1
			c3.1,0,5.5-0.8,7.2-2.4c1.7-1.6,2.5-3.9,2.5-6.7c0-1.4-0.2-2.7-0.6-3.9c-0.4-1.2-1-2.2-1.8-3c-0.8-0.8-1.8-1.5-3-1.9
			c-1.2-0.5-2.7-0.7-4.3-0.7H545v18.7H549.3z"/>
		<path class="st0" d="M602,216.4H592v-6.2h27.2v6.2h-10v24.9H602V216.4z"/>
		<path class="st0" d="M638.5,242.1c-2.3,0-4.4-0.4-6.4-1.3c-2-0.8-3.7-2-5.1-3.5c-1.4-1.5-2.6-3.2-3.4-5.2c-0.8-2-1.2-4.2-1.2-6.5
			c0-2.3,0.4-4.5,1.2-6.5c0.8-2,2-3.7,3.4-5.2c1.4-1.5,3.2-2.6,5.1-3.5c2-0.8,4.1-1.3,6.4-1.3c2.3,0,4.4,0.4,6.4,1.3
			c2,0.8,3.7,2,5.1,3.5c1.4,1.5,2.6,3.2,3.4,5.2c0.8,2,1.2,4.2,1.2,6.5c0,2.3-0.4,4.5-1.2,6.5c-0.8,2-2,3.7-3.4,5.2
			c-1.4,1.5-3.2,2.6-5.1,3.5C642.9,241.7,640.8,242.1,638.5,242.1z M638.5,235.5c1.4,0,2.6-0.3,3.7-0.8c1.1-0.5,2-1.2,2.8-2.1
			c0.8-0.9,1.3-1.9,1.7-3.1c0.4-1.2,0.6-2.4,0.6-3.8c0-1.3-0.2-2.6-0.6-3.8c-0.4-1.2-1-2.2-1.7-3.1c-0.8-0.9-1.7-1.6-2.8-2.1
			c-1.1-0.5-2.3-0.8-3.7-0.8c-1.4,0-2.6,0.3-3.7,0.8c-1.1,0.5-2,1.2-2.8,2.1c-0.8,0.9-1.3,1.9-1.7,3.1c-0.4,1.2-0.6,2.4-0.6,3.8
			c0,1.3,0.2,2.6,0.6,3.8c0.4,1.2,1,2.2,1.7,3.1c0.8,0.9,1.7,1.6,2.8,2.1C635.9,235.2,637.1,235.5,638.5,235.5z"/>
	</g>
	<g>
		<path class="st0" d="M11.6,280h7.8l11.4,31.1h-7.7l-2.4-7.1h-11l-2.4,7.1H0L11.6,280z M19,298.5l-3.8-11.8l-3.9,11.8H19z"/>
		<path class="st0" d="M36.5,280h7v24.9h14.9v6.3H36.5V280z"/>
		<path class="st0" d="M64.9,280h7v24.9h14.9v6.3H64.9V280z"/>
		<path class="st0" d="M109.2,286.2H99.1V280h27.2v6.2h-10v24.9h-7.1V286.2z"/>
		<path class="st0" d="M132.6,280h7v11.9h13.5V280h7v31.1h-7v-12.8h-13.5v12.8h-7V280z"/>
		<path class="st0" d="M177.5,280h7.8l11.4,31.1h-7.7l-2.4-7.1h-11l-2.4,7.1h-7.4L177.5,280z M184.9,298.5l-3.8-11.8l-3.9,11.8
			H184.9z"/>
		<path class="st0" d="M205.4,286.2h-10.1V280h27.2v6.2h-10v24.9h-7.1V286.2z"/>
		<path class="st0" d="M236.7,280h11.8c2.4,0,4.6,0.3,6.6,0.9c2,0.6,3.8,1.6,5.3,2.8c1.5,1.3,2.6,2.9,3.5,4.9c0.8,2,1.2,4.3,1.2,7
			c0,2.6-0.4,4.8-1.3,6.7c-0.8,1.9-2,3.5-3.5,4.8c-1.5,1.3-3.2,2.3-5.3,2.9c-2,0.6-4.3,1-6.6,1h-11.7V280z M248,304.9
			c3.1,0,5.5-0.8,7.2-2.4c1.7-1.6,2.5-3.9,2.5-6.7c0-1.4-0.2-2.7-0.6-3.9c-0.4-1.2-1-2.2-1.8-3c-0.8-0.8-1.8-1.5-3-1.9
			c-1.2-0.5-2.7-0.7-4.3-0.7h-4.3v18.7H248z"/>
		<path class="st0" d="M287.4,311.9c-2.3,0-4.4-0.4-6.4-1.3c-2-0.8-3.7-2-5.1-3.5c-1.4-1.5-2.6-3.2-3.4-5.2c-0.8-2-1.2-4.2-1.2-6.5
			c0-2.3,0.4-4.5,1.2-6.5c0.8-2,2-3.7,3.4-5.2c1.4-1.5,3.2-2.6,5.1-3.5c2-0.8,4.1-1.3,6.4-1.3s4.4,0.4,6.4,1.3c2,0.8,3.7,2,5.1,3.5
			c1.4,1.5,2.6,3.2,3.4,5.2c0.8,2,1.2,4.2,1.2,6.5c0,2.3-0.4,4.5-1.2,6.5c-0.8,2-2,3.7-3.4,5.2c-1.4,1.5-3.2,2.6-5.1,3.5
			C291.9,311.5,289.7,311.9,287.4,311.9z M287.4,305.3c1.4,0,2.6-0.3,3.7-0.8c1.1-0.5,2-1.2,2.8-2.1c0.8-0.9,1.3-1.9,1.7-3.1
			c0.4-1.2,0.6-2.4,0.6-3.8c0-1.3-0.2-2.6-0.6-3.8c-0.4-1.2-1-2.2-1.7-3.1c-0.8-0.9-1.7-1.6-2.8-2.1c-1.1-0.5-2.3-0.8-3.7-0.8
			c-1.4,0-2.6,0.3-3.7,0.8c-1.1,0.5-2,1.2-2.8,2.1c-0.8,0.9-1.3,1.9-1.7,3.1c-0.4,1.2-0.6,2.4-0.6,3.8c0,1.3,0.2,2.6,0.6,3.8
			c0.4,1.2,1,2.2,1.7,3.1c0.8,0.9,1.7,1.6,2.8,2.1C284.8,305,286,305.3,287.4,305.3z"/>
		<path class="st0" d="M310.8,280h6.7l13.5,20.2V280h7v31.1h-6.4l-13.8-20.6v20.6h-7V280z"/>
		<path class="st0" d="M347.1,280h7.3l-3.4,10.7h-5L347.1,280z"/>
		<path class="st0" d="M369.8,286.2h-10.1V280h27.2v6.2h-10v24.9h-7.1V286.2z"/>
		<path class="st0" d="M409.1,286.2h-10.1V280h27.2v6.2h-10v24.9h-7.1V286.2z"/>
		<path class="st0" d="M432.6,280h11.6c1.8,0,3.4,0.3,4.8,0.8c1.4,0.5,2.5,1.2,3.4,2.1c0.9,0.9,1.6,1.9,2.1,3.1
			c0.5,1.2,0.7,2.4,0.7,3.8c0,2-0.4,3.8-1.3,5.3c-0.9,1.5-2.1,2.7-3.8,3.6l6.9,12.5h-7.7l-5.8-11.4h-3.9v11.4h-6.9V280z M443.8,294
			c1.3,0,2.3-0.4,3.1-1.2c0.7-0.8,1.1-1.8,1.1-2.9c0-1.3-0.4-2.3-1.1-3s-1.8-1.1-3.1-1.1h-4.3v8.3H443.8z"/>
		<path class="st0" d="M463,280h7.1v18.4c0,1,0.1,2,0.3,2.8c0.2,0.8,0.5,1.5,1,2.1c0.5,0.6,1.1,1,1.8,1.4c0.8,0.3,1.7,0.5,2.8,0.5
			c1.1,0,2-0.2,2.8-0.5c0.8-0.3,1.4-0.8,1.8-1.4c0.5-0.6,0.8-1.3,1-2.1c0.2-0.8,0.3-1.7,0.3-2.8V280h7.1v19.3c0,1.9-0.3,3.6-0.9,5.1
			c-0.6,1.6-1.5,2.9-2.6,4c-1.1,1.1-2.5,2-4.1,2.6c-1.6,0.6-3.4,0.9-5.4,0.9c-2,0-3.8-0.3-5.4-0.9c-1.6-0.6-3-1.5-4.1-2.6
			c-1.1-1.1-2-2.5-2.6-4c-0.6-1.6-0.9-3.3-0.9-5.1V280z"/>
		<path class="st0" d="M499.6,301.8c0.4,0.4,0.9,0.9,1.4,1.3c0.5,0.5,1.2,0.9,1.8,1.2c0.7,0.4,1.4,0.7,2.2,0.9s1.6,0.3,2.5,0.3
			c0.5,0,1.1-0.1,1.6-0.2c0.5-0.2,1-0.4,1.4-0.7c0.4-0.3,0.8-0.7,1-1.1c0.3-0.4,0.4-0.9,0.4-1.4c0-1.2-0.6-2-1.7-2.7
			c-1.1-0.6-2.9-1.3-5.3-1.9c-1.2-0.3-2.3-0.7-3.3-1.2c-1-0.5-1.9-1.2-2.6-1.9c-0.7-0.7-1.3-1.6-1.7-2.6c-0.4-1-0.6-2-0.6-3.2
			c0-1.3,0.2-2.5,0.7-3.7c0.5-1.2,1.2-2.2,2.1-3.1c0.9-0.9,2.1-1.6,3.5-2.1c1.4-0.5,3.1-0.8,5-0.8c1.6,0,3,0.2,4.2,0.5
			c1.2,0.3,2.2,0.7,3.1,1.2c0.9,0.5,1.6,0.9,2.1,1.4c0.5,0.5,1,0.9,1.2,1.1l-4.1,4.5c-0.3-0.3-0.7-0.6-1.2-0.9
			c-0.5-0.3-1-0.6-1.5-0.9c-0.6-0.3-1.2-0.5-1.8-0.7c-0.7-0.2-1.4-0.3-2.1-0.3c-0.5,0-1,0.1-1.5,0.2c-0.5,0.2-0.9,0.4-1.3,0.6
			c-0.4,0.3-0.7,0.6-0.9,0.9c-0.2,0.4-0.4,0.7-0.4,1.1c0,1.1,0.6,1.9,1.7,2.6c1.1,0.7,2.7,1.2,4.6,1.6c1.2,0.3,2.3,0.7,3.4,1.1
			c1.1,0.5,2.1,1.1,3,1.9c0.9,0.8,1.6,1.7,2.1,2.9c0.5,1.1,0.8,2.5,0.8,4.1c0,1.4-0.3,2.7-0.9,3.9c-0.6,1.2-1.5,2.2-2.5,3.1
			c-1.1,0.9-2.3,1.5-3.8,2c-1.4,0.5-3,0.7-4.7,0.7c-1.6,0-3-0.1-4.2-0.4c-1.3-0.3-2.4-0.7-3.5-1.2c-1-0.5-2-1-2.8-1.7
			c-0.8-0.6-1.5-1.3-2.1-1.9L499.6,301.8z"/>
		<path class="st0" d="M533.8,286.2h-10.1V280h27.2v6.2h-10v24.9h-7.1V286.2z"/>
		<path class="st0" d="M573.2,286.2h-10.1V280h27.2v6.2h-10v24.9h-7.1V286.2z"/>
		<path class="st0" d="M596.6,280h7v11.9h13.5V280h7v31.1h-7v-12.8h-13.5v12.8h-7V280z"/>
		<path class="st0" d="M632.6,280h21.3v6.2h-14.2v6.1h11.1v6h-11.1v6.7h15.3v6.2h-22.3V280z"/>
	</g>
	<g>
		<path class="st0" d="M3.6,349.8h6.7l8.1,14.6l7.9-14.6h6.7l1.4,31.1h-7l-0.9-20.3l-6.4,12.1h-3.6l-6.8-12l-0.8,20.2H2.2L3.6,349.8
			z"/>
		<path class="st0" d="M51.3,349.8h7.8l11.4,31.1h-7.7l-2.4-7.1h-11l-2.4,7.1h-7.4L51.3,349.8z M58.7,368.3L55,356.6l-3.9,11.8H58.7
			z"/>
		<path class="st0" d="M102.9,375.2c-0.7,0.9-1.4,1.7-2.4,2.5c-0.9,0.8-2,1.5-3.1,2.1c-1.1,0.6-2.4,1.1-3.7,1.4
			c-1.3,0.3-2.7,0.5-4.1,0.5c-2.4,0-4.5-0.4-6.5-1.2c-2-0.8-3.6-1.9-5.1-3.4c-1.4-1.4-2.5-3.2-3.3-5.1c-0.8-2-1.2-4.1-1.2-6.5
			c0-2.3,0.4-4.5,1.2-6.5c0.8-2,1.9-3.7,3.3-5.2c1.4-1.5,3.1-2.6,5.1-3.5c2-0.9,4.2-1.3,6.6-1.3c2.9,0,5.4,0.5,7.6,1.6
			c2.2,1.1,4,2.6,5.4,4.6l-4.8,4.6c-0.9-1.3-2-2.4-3.3-3.1c-1.3-0.8-2.8-1.2-4.6-1.2c-1.4,0-2.7,0.3-3.8,0.8
			c-1.1,0.5-2.1,1.2-2.8,2.1c-0.8,0.9-1.4,2-1.8,3.1c-0.4,1.2-0.6,2.5-0.6,3.8c0,1.4,0.2,2.6,0.6,3.8c0.4,1.2,1,2.2,1.8,3.1
			c0.8,0.9,1.7,1.6,2.8,2.1c1.1,0.5,2.3,0.7,3.7,0.7c1.1,0,2.1-0.1,2.9-0.3c0.8-0.2,1.6-0.5,2.2-0.9c0.6-0.4,1.2-0.8,1.7-1.4
			c0.5-0.5,1-1,1.4-1.6L102.9,375.2z"/>
		<path class="st0" d="M108.9,349.8h7v11.9h13.5v-11.9h7v31.1h-7v-12.8H116v12.8h-7V349.8z"/>
		<path class="st0" d="M144.9,349.8h7v31.1h-7V349.8z"/>
		<path class="st0" d="M160.3,349.8h6.7l13.5,20.2v-20.2h7v31.1h-6.4l-13.8-20.6v20.6h-7V349.8z"/>
		<path class="st0" d="M195.8,349.8h21.3v6.2h-14.2v6.1h11.1v6h-11.1v6.7h15.3v6.2h-22.3V349.8z"/>
	</g>
	<g>
		<path class="st1" d="M225.1,373.5h7.6v7.4h-7.6V373.5z"/>
	</g>
</g>
</svg>
